{
.appVersion = "3343";
.formatVersion = 3;
axes = (
{
name = Reform;
tag = FORM;
}
);
date = "2024-02-29 18:40:22 +0000";
familyName = "Whole Part";
fontMaster = (
{
axesValues = (
0
);
customParameters = (
{
name = "Master Icon Glyph Name";
value = a;
}
);
id = m01;
metricValues = (
{
pos = 1622;
},
{
over = 16;
pos = 500;
},
{
},
{
pos = -426;
},
{
}
);
name = Regular;
visible = 1;
},
{
axesValues = (
100
);
customParameters = (
{
name = "Master Icon Glyph Name";
value = n;
}
);
id = "9BE5C8F1-5E5D-4A4F-AAC2-5BCBDB5A5B12";
metricValues = (
{
pos = 1622;
},
{
over = 16;
pos = 500;
},
{
},
{
pos = -426;
},
{
}
);
name = Reformed;
visible = 1;
}
);
glyphs = (
{
glyphname = A;
lastChange = "2024-03-08 19:08:16 +0000";
layers = (
{
layerId = m01;
shapes = (
{
closed = 1;
nodes = (
(672,580,q),
(665,579,l),
(594,579,l),
(516,581,ls),
(507,581,o),
(472,583,o),
(472,597,qs),
(472,680,o),
(638,1067,qs),
(667,1134,l),
(668,1134,o),
(696,1069,qs),
(857,693,o),
(857,599,qs),
(857,593,ls),
(857,580,o)
);
},
{
closed = 1;
nodes = (
(162,6,o),
(407,6,o),
(407,42,qs),
(407,44,o),
(336,132,o),
(336,247,o),
(410,431,o),
(474,473,o),
(858,473,o),
(909,427,o),
(984,233,o),
(984,129,o),
(937,61,o),
(937,52,qs),
(937,2,o),
(1122,2,qs),
(1180,3,ls),
(1318,3,o),
(1352,10,qs),
(1402,20,o),
(1402,62,qs),
(1402,81,o),
(1282,144,o),
(1257,196,qs),
(1242,226,o),
(990,904,o),
(906,1137,o),
(885,1185,qs),
(823,1326,o),
(766,1369,qs),
(738,1390,o),
(719,1390,qs),
(691,1390,ls),
(616,1390,o),
(575,1292,qs),
(557,1249,o),
(458,926,o),
(289,520,o),
(191,253,o),
(137,151,o),
(23,85,o),
(23,60,qs),
(23,25,o)
);
}
);
width = 1448;
},
{
layerId = "9BE5C8F1-5E5D-4A4F-AAC2-5BCBDB5A5B12";
shapes = (
{
closed = 1;
nodes = (
(664,857,q),
(664,857,l),
(665,857,l),
(665,857,ls),
(665,857,o),
(665,857,o),
(665,857,qs),
(666,856,o),
(665,856,qs),
(664,856,l),
(664,856,o),
(664,856,qs),
(664,857,o),
(664,857,qs),
(664,857,ls),
(664,857,o)
);
},
{
closed = 1;
nodes = (
(167,6,o),
(236,5,o),
(273,5,qs),
(275,5,o),
(362,5,o),
(382,5,o),
(410,5,o),
(474,5,o),
(678,5,o),
(729,5,o),
(772,5,o),
(858,5,o),
(916,5,o),
(967,5,qs),
(1021,5,o),
(1122,5,qs),
(1180,5,ls),
(1218,5,o),
(1252,10,qs),
(1302,17,o),
(1302,62,qs),
(1302,81,o),
(1282,144,o),
(1257,196,qs),
(1242,226,o),
(990,904,o),
(906,1137,o),
(885,1185,qs),
(823,1326,o),
(766,1369,qs),
(738,1390,o),
(719,1390,qs),
(691,1390,ls),
(619,1390,o),
(578,1292,q),
(542,1207,o),
(491,1065,o),
(289,520,o),
(191,253,o),
(142,151,o),
(118,85,o),
(118,60,qs),
(118,25,o)
);
}
);
width = 1448;
}
);
note = uni0041;
unicode = 65;
},
{
glyphname = B;
lastChange = "2024-03-08 18:36:32 +0000";
layers = (
{
layerId = m01;
shapes = (
{
closed = 1;
nodes = (
(563,1283,q),
(623,1283,l),
(649,1282,l),
(667,1280,l),
(769,1280,o),
(910,1151,o),
(910,1048,qs),
(910,1021,ls),
(910,920,o),
(780,778,o),
(684,778,qs),
(676,778,o),
(667,777,qs),
(607,774,l),
(598,773,l),
(556,773,ls),
(499,773,o),
(477,802,o),
(477,864,qs),
(477,1058,ls),
(477,1226,o),
(483,1247,qs),
(493,1281,o),
(538,1281,qs),
(547,1281,o)
);
},
{
closed = 1;
nodes = (
(979,529,o),
(979,406,qs),
(979,354,ls),
(979,240,o),
(815,101,o),
(683,101,qs),
(624,101,ls),
(521,101,o),
(476,142,o),
(476,235,qs),
(476,522,ls),
(476,628,o),
(495,670,o),
(572,670,qs),
(658,670,ls),
(799,670,o)
);
},
{
closed = 1;
nodes = (
(297,1384,ls),
(153,1384,o),
(97,1363,o),
(97,1334,qs),
(97,1314,o),
(207,1262,o),
(244,1183,o),
(244,987,o),
(245,961,qs),
(247,857,l),
(247,528,ls),
(247,266,o),
(214,123,o),
(107,64,o),
(107,-3,o),
(281,-3,qs),
(358,-3,ls),
(384,-3,o),
(410,-4,qs),
(436,-5,ls),
(462,-5,o),
(488,-6,qs),
(514,-7,ls),
(541,-7,o),
(567,-8,qs),
(593,-9,l),
(699,-9,ls),
(828,-9,o),
(1015,48,o),
(1067,86,qs),
(1211,190,o),
(1211,366,qs),
(1211,392,ls),
(1211,498,o),
(1127,598,qs),
(1080,653,o),
(919,734,o),
(919,746,o),
(984,785,o),
(1047,836,o),
(1128,966,o),
(1128,1137,o),
(1092,1203,qs),
(991,1390,o),
(635,1390,qs),
(529,1390,l)
);
}
);
width = 1321;
},
{
layerId = "9BE5C8F1-5E5D-4A4F-AAC2-5BCBDB5A5B12";
shapes = (
{
closed = 1;
nodes = (
(694,1028,q),
(694,1028,l),
(694,1028,l),
(694,1028,l),
(693,1028,o),
(693,1028,o),
(693,1028,qs),
(693,1028,ls),
(693,1028,o),
(693,1028,o),
(694,1028,qs),
(694,1028,o),
(694,1028,qs),
(694,1028,l),
(694,1028,l),
(694,1028,ls),
(694,1028,o),
(694,1028,o),
(694,1028,qs),
(694,1028,ls),
(694,1028,o),
(694,1028,qs),
(694,1028,o),
(694,1028,qs),
(694,1028,o)
);
},
{
closed = 1;
nodes = (
(727,385,o),
(727,385,qs),
(727,386,ls),
(727,386,o),
(727,386,o),
(728,386,qs),
(728,386,ls),
(728,386,o),
(728,386,o),
(728,386,qs),
(728,385,ls),
(728,385,o),
(728,385,o),
(728,385,qs),
(728,385,ls),
(727,385,o)
);
},
{
closed = 1;
nodes = (
(303,1384,ls),
(269,1383,o),
(243,1363,o),
(243,1334,qs),
(243,1314,o),
(243,1262,o),
(244,1183,o),
(244,987,o),
(245,961,qs),
(247,857,l),
(247,528,ls),
(247,266,o),
(244,179,o),
(243,118,o),
(244,-3,o),
(291,-3,qs),
(358,-3,ls),
(384,-3,o),
(410,-4,qs),
(436,-5,ls),
(462,-5,o),
(488,-6,qs),
(514,-7,ls),
(541,-7,o),
(567,-8,qs),
(593,-9,l),
(699,-9,ls),
(828,-9,o),
(1015,48,o),
(1067,86,qs),
(1211,190,o),
(1211,366,qs),
(1211,392,ls),
(1211,501,o),
(1206,598,qs),
(1206,669,o),
(1206,743,o),
(1206,802,o),
(1206,895,o),
(1206,982,o),
(1205,1045,o),
(1164,1162,o),
(1102,1227,qs),
(951,1384,o),
(668,1390,qs),
(529,1390,l)
);
}
);
width = 1321;
}
);
note = uni0042;
unicode = 66;
},
{
glyphname = C;
lastChange = "2024-03-08 19:37:56 +0000";
layers = (
{
layerId = m01;
shapes = (
{
closed = 1;
nodes = (
(506,1353,qs),
(255,1254,o),
(150,978,qs),
(98,842,o),
(98,517,o),
(150,380,qs),
(251,117,o),
(502,28,qs),
(626,-16,o),
(747,-16,qs),
(782,-16,ls),
(998,-16,o),
(1133,59,qs),
(1181,86,o),
(1259,218,o),
(1259,249,qs),
(1259,310,o),
(1217,310,qs),
(1195,310,o),
(1116,235,qs),
(989,114,o),
(806,114,qs),
(592,114,o),
(352,434,o),
(351,694,qs),
(351,1113,o),
(586,1238,qs),
(664,1280,o),
(741,1280,qs),
(875,1280,o),
(983,1222,qs),
(1044,1189,o),
(1178,1036,o),
(1195,1036,qs),
(1247,1036,o),
(1247,1312,o),
(1189,1345,qs),
(1159,1362,o),
(1055,1368,o),
(873,1403,o),
(803,1403,qs),
(769,1403,ls),
(633,1403,o)
);
}
);
width = 1361;
},
{
layerId = "9BE5C8F1-5E5D-4A4F-AAC2-5BCBDB5A5B12";
shapes = (
{
closed = 1;
nodes = (
(506,1353,qs),
(255,1254,o),
(150,978,qs),
(98,842,o),
(98,517,o),
(150,380,qs),
(251,117,o),
(502,28,qs),
(626,-16,o),
(747,-16,qs),
(782,-16,ls),
(998,-16,o),
(1133,59,qs),
(1181,86,o),
(1259,219,o),
(1259,265,qs),
(1259,315,o),
(1260,309,qs),
(1260,330,o),
(1260,347,qs),
(1260,361,o),
(1260,391,qs),
(1260,432,o),
(1260,473,o),
(1260,550,qs),
(1260,578,o),
(1260,683,qs),
(1260,732,o),
(1260,788,qs),
(1260,826,o),
(1260,886,qs),
(1260,948,o),
(1260,972,o),
(1260,1045,qs),
(1260,1096,o),
(1260,1168,o),
(1258,1221,qs),
(1254,1322,o),
(1065,1382,o),
(857,1405,o),
(803,1405,qs),
(769,1405,ls),
(633,1405,o)
);
}
);
width = 1361;
}
);
note = uni0043;
unicode = 67;
},
{
glyphname = D;
lastChange = "2024-03-08 19:03:53 +0000";
layers = (
{
layerId = m01;
shapes = (
{
closed = 1;
nodes = (
(837,1253,qs),
(1032,1170,o),
(1098,944,qs),
(1130,832,o),
(1130,725,qs),
(1130,653,ls),
(1130,538,o),
(1058,315,o),
(995,246,qs),
(870,108,o),
(661,108,qs),
(645,107,ls),
(533,107,o),
(475,156,o),
(475,260,qs),
(475,309,l),
(476,374,ls),
(476,399,o),
(476,424,qs),
(477,473,ls),
(477,498,o),
(477,523,qs),
(478,572,l),
(478,946,ls),
(478,1222,o),
(484,1243,qs),
(496,1287,o),
(606,1287,qs),
(654,1287,ls),
(758,1287,o)
);
},
{
closed = 1;
nodes = (
(406,1386,qs),
(382,1385,l),
(358,1383,l),
(262,1381,ls),
(109,1381,o),
(109,1343,qs),
(109,1311,o),
(212,1268,o),
(259,1196,o),
(259,1062,qs),
(261,961,l),
(263,834,l),
(263,360,ls),
(263,196,o),
(239,150,qs),
(228,128,o),
(154,90,qs),
(111,68,o),
(111,2,o),
(335,2,qs),
(482,-1,ls),
(508,-1,o),
(533,-2,qs),
(584,-3,l),
(609,-4,l),
(684,-4,ls),
(835,-4,o),
(960,44,qs),
(1232,149,o),
(1340,407,qs),
(1395,539,o),
(1395,705,qs),
(1395,733,ls),
(1395,876,o),
(1343,1004,qs),
(1185,1394,o),
(684,1395,qs),
(632,1395,ls),
(622,1395,o)
);
}
);
width = 1509;
},
{
layerId = "9BE5C8F1-5E5D-4A4F-AAC2-5BCBDB5A5B12";
shapes = (
{
closed = 1;
nodes = (
(803,697,qs),
(803,697,o),
(803,697,qs),
(803,697,o),
(803,697,qs),
(803,697,ls),
(803,697,o),
(803,697,o),
(803,697,qs),
(803,697,o),
(802,697,qs),
(802,697,ls),
(802,697,o),
(802,697,o),
(802,697,qs),
(802,697,l),
(802,697,ls),
(802,697,o),
(802,697,qs),
(802,697,ls),
(802,697,o),
(802,697,qs),
(802,697,l),
(802,697,ls),
(802,697,o),
(802,697,qs),
(802,697,o),
(802,697,qs),
(802,697,ls),
(802,697,o)
);
},
{
closed = 1;
nodes = (
(406,1386,qs),
(382,1385,l),
(358,1383,l),
(302,1381,ls),
(251,1379,o),
(259,1343,qs),
(259,1311,o),
(258,1268,o),
(258,1196,o),
(258,1062,qs),
(258,961,l),
(258,834,l),
(258,721,ls),
(258,452,o),
(258,417,qs),
(258,358,o),
(258,303,qs),
(258,257,o),
(254,4,o),
(335,2,qs),
(482,-1,ls),
(508,-2,o),
(533,-2,qs),
(584,-3,l),
(609,-4,l),
(684,-4,ls),
(835,-4,o),
(960,44,qs),
(1232,149,o),
(1340,407,qs),
(1395,539,o),
(1395,705,qs),
(1395,733,ls),
(1395,876,o),
(1343,1004,qs),
(1185,1395,o),
(684,1395,qs),
(632,1395,ls),
(622,1395,o)
);
}
);
width = 1509;
}
);
note = uni0044;
unicode = 68;
},
{
glyphname = E;
lastChange = "2024-03-08 20:22:27 +0000";
layers = (
{
layerId = m01;
shapes = (
{
closed = 1;
nodes = (
(605,1392,ls),
(207,1392,o),
(180,1388,qs),
(115,1378,o),
(115,1338,qs),
(115,1317,o),
(217,1263,o),
(228,1242,qs),
(252,1196,o),
(252,1004,qs),
(248,613,ls),
(248,251,o),
(216,145,o),
(108,75,o),
(108,52,qs),
(108,16,o),
(224,-1,o),
(601,-1,qs),
(645,-2,l),
(777,-2,ls),
(1062,-2,o),
(1103,24,qs),
(1125,38,o),
(1178,137,o),
(1178,214,qs),
(1178,246,ls),
(1178,280,o),
(1144,280,qs),
(1137,280,o),
(1081,237,o),
(1027,199,o),
(982,185,qs),
(821,133,o),
(579,133,o),
(547,174,qs),
(490,248,o),
(490,568,o),
(515,600,qs),
(553,649,o),
(668,649,qs),
(735,649,o),
(855,552,o),
(874,552,qs),
(945,552,o),
(945,707,qs),
(945,795,o),
(908,873,o),
(858,873,qs),
(857,873,o),
(726,786,o),
(599,786,o),
(501,856,o),
(501,928,qs),
(501,1129,o),
(558,1204,qs),
(599,1258,o),
(819,1258,o),
(961,1209,qs),
(993,1198,o),
(1090,1139,o),
(1103,1139,qs),
(1126,1139,o),
(1126,1192,qs),
(1126,1393,o),
(947,1393,qs),
(905,1393,l)
);
}
);
width = 1275;
},
{
layerId = "9BE5C8F1-5E5D-4A4F-AAC2-5BCBDB5A5B12";
shapes = (
{
closed = 1;
nodes = (
(605,1392,ls),
(423,1391,o),
(289,1391,q),
(252,1394,o),
(256,1326,qs),
(257,1305,o),
(256,1280,o),
(256,1242,qs),
(256,1139,o),
(256,1004,qs),
(255,613,ls),
(254,251,o),
(255,199,o),
(256,116,o),
(256,72,qs),
(256,0,o),
(419,1,o),
(601,1,qs),
(645,1,l),
(777,1,ls),
(899,1,o),
(997,0,qs),
(1065,-1,o),
(1122,67,o),
(1122,144,qs),
(1122,176,ls),
(1122,202,o),
(1122,236,qs),
(1122,236,o),
(1122,274,o),
(1122,291,o),
(1122,349,qs),
(1122,410,o),
(1122,434,o),
(1122,454,qs),
(1122,496,o),
(1122,523,o),
(1122,540,qs),
(1122,562,o),
(1122,591,qs),
(1122,607,o),
(1122,629,o),
(1122,647,qs),
(1122,678,o),
(1122,702,qs),
(1122,724,o),
(1122,746,o),
(1122,790,qs),
(1122,833,o),
(1122,878,o),
(1122,913,o),
(1122,939,o),
(1122,956,qs),
(1122,975,o),
(1122,990,qs),
(1122,1012,o),
(1122,1027,o),
(1122,1058,qs),
(1122,1093,o),
(1122,1110,o),
(1122,1120,qs),
(1122,1141,o),
(1122,1192,qs),
(1142,1393,o),
(947,1393,qs),
(905,1393,l)
);
}
);
width = 1275;
}
);
note = uni0045;
unicode = 69;
},
{
glyphname = F;
lastChange = "2024-03-16 00:33:44 +0000";
layers = (
{
layerId = m01;
shapes = (
{
closed = 1;
nodes = (
(572,1393,l),
(321,1388,ls),
(178,1388,o),
(152,1382,qs),
(111,1372,o),
(111,1338,qs),
(111,1328,o),
(187,1273,qs),
(218,1251,o),
(254,1126,o),
(254,894,qs),
(254,785,l),
(253,677,l),
(250,570,l),
(250,370,ls),
(250,224,o),
(226,148,o),
(172,114,qs),
(119,80,o),
(119,52,qs),
(119,-3,o),
(392,-3,qs),
(427,-4,l),
(462,-4,ls),
(597,-4,o),
(597,33,qs),
(597,43,o),
(564,91,o),
(540,135,o),
(500,303,o),
(500,531,o),
(597,606,o),
(693,606,qs),
(720,606,o),
(837,545,o),
(851,545,qs),
(935,545,o),
(935,713,qs),
(935,789,o),
(904,857,o),
(867,857,qs),
(863,857,o),
(724,773,o),
(573,773,o),
(497,849,o),
(497,954,qs),
(497,1141,o),
(575,1267,o),
(672,1267,qs),
(826,1267,o),
(930,1226,qs),
(972,1209,o),
(1092,1114,o),
(1096,1114,qs),
(1129,1114,o),
(1129,1187,qs),
(1129,1317,o),
(1054,1396,o),
(973,1396,qs),
(681,1396,l)
);
}
);
width = 1195;
},
{
layerId = "9BE5C8F1-5E5D-4A4F-AAC2-5BCBDB5A5B12";
shapes = (
{
closed = 1;
nodes = (
(572,1393,l),
(357,1389,ls),
(349,1389,o),
(300,1389,qs),
(248,1389,o),
(248,1338,qs),
(247,1303,o),
(247,1221,qs),
(247,1131,o),
(247,1126,o),
(247,894,qs),
(247,785,l),
(247,677,l),
(247,570,l),
(247,370,ls),
(247,224,o),
(247,192,o),
(247,147,qs),
(247,124,o),
(247,93,q),
(247,1,o),
(392,-3,qs),
(427,-4,l),
(462,-4,ls),
(495,-4,o),
(545,0,qs),
(572,0,o),
(654,0,o),
(747,0,o),
(858,0,o),
(1118,0,o),
(1120,160,o),
(1120,186,qs),
(1120,214,o),
(1120,265,o),
(1120,280,qs),
(1120,350,o),
(1120,420,qs),
(1120,460,o),
(1120,534,o),
(1120,582,qs),
(1120,585,o),
(1120,640,o),
(1120,691,o),
(1120,783,o),
(1120,890,qs),
(1120,957,o),
(1120,1006,o),
(1120,1045,qs),
(1120,1107,o),
(1120,1129,qs),
(1120,1183,o),
(1120,1216,o),
(1120,1231,qs),
(1120,1246,o),
(1120,1277,qs),
(1112,1374,o),
(970,1397,o),
(921,1397,qs),
(681,1396,l)
);
}
);
width = 1195;
}
);
note = uni0046;
unicode = 70;
},
{
glyphname = G;
lastChange = "2024-03-17 01:49:29 +0000";
layers = (
{
layerId = m01;
shapes = (
{
closed = 1;
nodes = (
(506,1347,qs),
(261,1248,o),
(156,990,qs),
(100,852,o),
(100,711,qs),
(100,668,ls),
(100,524,o),
(206,250,o),
(380,76,o),
(628,-21,o),
(768,-21,qs),
(808,-21,ls),
(916,-21,o),
(1143,49,qs),
(1232,76,o),
(1277,140,o),
(1302,457,o),
(1310,483,o),
(1362,560,o),
(1362,567,qs),
(1362,604,o),
(1280,631,o),
(1154,631,qs),
(957,631,o),
(957,588,qs),
(957,580,o),
(1020,519,o),
(1028,506,qs),
(1058,458,o),
(1058,394,qs),
(1058,228,o),
(938,116,o),
(805,116,qs),
(600,116,o),
(474,281,qs),
(348,445,o),
(348,705,qs),
(348,966,o),
(468,1123,qs),
(589,1280,o),
(790,1280,qs),
(992,1280,o),
(1136,1120,qs),
(1198,1050,o),
(1225,1050,q),
(1245,1061,l),
(1278,1089,o),
(1278,1271,o),
(1226,1345,o),
(1198,1355,qs),
(1072,1402,o),
(786,1402,qs),
(642,1402,o)
);
}
);
width = 1469;
},
{
layerId = "9BE5C8F1-5E5D-4A4F-AAC2-5BCBDB5A5B12";
shapes = (
{
closed = 1;
nodes = (
(506,1347,qs),
(261,1248,o),
(156,990,qs),
(100,852,o),
(100,711,qs),
(100,668,ls),
(100,524,o),
(206,250,o),
(380,76,o),
(628,-21,o),
(768,-21,qs),
(808,-21,ls),
(947,-21,o),
(1143,24,qs),
(1234,45,o),
(1283,103,o),
(1287,169,o),
(1287,191,o),
(1287,222,o),
(1287,229,qs),
(1287,247,o),
(1287,309,o),
(1287,339,qs),
(1287,382,o),
(1287,430,qs),
(1287,478,o),
(1287,515,o),
(1287,540,qs),
(1287,600,o),
(1287,628,qs),
(1287,664,o),
(1287,674,o),
(1287,711,qs),
(1287,729,o),
(1287,779,qs),
(1287,801,o),
(1287,815,qs),
(1287,828,o),
(1287,842,qs),
(1287,864,o),
(1287,933,qs),
(1287,933,o),
(1287,964,qs),
(1287,1029,o),
(1287,1079,q),
(1287,1163,l),
(1287,1222,o),
(1278,1284,o),
(1226,1345,o),
(1198,1355,q),
(1072,1402,o),
(786,1402,qs),
(642,1402,o)
);
}
);
width = 1469;
}
);
note = uni0047;
unicode = 71;
},
{
glyphname = H;
lastChange = "2024-03-08 20:12:46 +0000";
layers = (
{
layerId = m01;
shapes = (
{
closed = 1;
nodes = (
(1429,103,qs),
(1394,124,o),
(1364,204,o),
(1364,343,qs),
(1371,837,ls),
(1371,1176,o),
(1388,1215,qs),
(1395,1231,o),
(1476,1286,qs),
(1512,1311,o),
(1512,1342,qs),
(1512,1383,o),
(1132,1383,o),
(1022,1369,o),
(1022,1331,qs),
(1022,1320,o),
(1053,1287,qs),
(1074,1264,l),
(1096,1235,o),
(1117,1151,o),
(1117,844,o),
(1092,820,qs),
(1057,786,o),
(562,786,o),
(496,848,o),
(496,1128,o),
(523,1251,o),
(591,1336,o),
(591,1340,qs),
(591,1387,o),
(451,1387,qs),
(354,1387,ls),
(104,1387,o),
(104,1348,qs),
(104,1319,o),
(223,1250,o),
(253,1116,o),
(253,268,o),
(233,153,o),
(182,119,qs),
(105,68,o),
(105,44,qs),
(105,-1,o),
(498,-1,o),
(526,2,qs),
(589,9,o),
(589,45,qs),
(589,51,o),
(558,86,qs),
(538,109,l),
(517,139,o),
(492,247,o),
(492,595,o),
(519,620,qs),
(560,659,o),
(1059,659,o),
(1130,594,o),
(1130,266,o),
(1096,136,o),
(1029,58,o),
(1029,49,qs),
(1029,16,o),
(1131,-4,o),
(1265,-4,qs),
(1314,-5,l),
(1362,-5,ls),
(1506,-5,o),
(1506,37,qs),
(1506,56,o)
);
}
);
width = 1610;
},
{
layerId = "9BE5C8F1-5E5D-4A4F-AAC2-5BCBDB5A5B12";
shapes = (
{
closed = 1;
nodes = (
(1369,251,qs),
(1370,300,o),
(1369,367,o),
(1370,435,qs),
(1375,837,ls),
(1375,1055,o),
(1375,1104,qs),
(1375,1186,o),
(1375,1235,qs),
(1375,1237,o),
(1375,1292,qs),
(1372,1381,o),
(1132,1387,o),
(1098,1387,o),
(1062,1387,qs),
(1025,1387,o),
(996,1387,qs),
(964,1387,l),
(938,1387,o),
(922,1387,o),
(892,1387,o),
(857,1387,qs),
(788,1387,o),
(718,1387,o),
(677,1387,o),
(640,1387,o),
(588,1387,o),
(532,1387,o),
(532,1387,qs),
(532,1387,o),
(451,1387,qs),
(354,1387,ls),
(245,1387,o),
(245,1318,qs),
(245,1239,o),
(245,1220,o),
(245,1086,o),
(245,268,o),
(245,197,o),
(245,164,qs),
(245,124,o),
(245,69,qs),
(245,3,o),
(419,3,o),
(446,3,qs),
(493,3,o),
(515,3,qs),
(567,3,o),
(597,3,qs),
(640,3,l),
(649,3,o),
(664,3,o),
(712,3,o),
(741,3,qs),
(796,3,o),
(821,3,o),
(872,3,o),
(892,3,o),
(919,3,o),
(952,3,o),
(1029,3,qs),
(1062,3,o),
(1168,3,o),
(1186,3,qs),
(1250,3,l),
(1300,3,ls),
(1369,3,o),
(1369,145,qs),
(1369,241,o)
);
}
);
width = 1610;
}
);
note = uni0048;
unicode = 72;
},
{
glyphname = I;
lastChange = "2024-03-08 17:32:38 +0000";
layers = (
{
layerId = m01;
shapes = (
{
closed = 1;
nodes = (
(592,1390,qs),
(527,1390,l),
(417,1388,ls),
(108,1388,o),
(108,1349,qs),
(108,1326,o),
(190,1281,qs),
(231,1259,o),
(269,1118,o),
(269,277,o),
(237,140,o),
(108,65,o),
(108,46,qs),
(108,32,ls),
(108,3,o),
(271,3,qs),
(406,3,l),
(450,1,ls),
(473,1,o),
(496,0,qs),
(542,-1,l),
(564,-2,ls),
(655,-2,o),
(655,35,qs),
(655,62,o),
(542,125,o),
(509,252,o),
(509,1131,o),
(536,1258,o),
(651,1332,o),
(651,1351,qs),
(651,1390,o)
);
}
);
width = 766;
},
{
layerId = "9BE5C8F1-5E5D-4A4F-AAC2-5BCBDB5A5B12";
shapes = (
{
closed = 1;
nodes = (
(446,1389,qs),
(399,1389,l),
(330,1389,ls),
(263,1389,o),
(263,1322,qs),
(263,1223,o),
(263,1170,qs),
(263,1090,o),
(263,1031,o),
(259,277,o),
(259,222,o),
(259,141,o),
(259,95,qs),
(259,69,ls),
(259,2,o),
(311,2,qs),
(348,2,l),
(388,2,ls),
(410,2,o),
(430,2,qs),
(461,2,l),
(469,2,ls),
(517,2,o),
(513,83,qs),
(513,99,o),
(513,135,o),
(513,252,o),
(510,1081,o),
(510,1208,o),
(510,1295,o),
(510,1313,qs),
(510,1389,o)
);
}
);
width = 766;
}
);
note = uni0049;
unicode = 73;
},
{
glyphname = J;
lastChange = "2024-03-08 19:32:03 +0000";
layers = (
{
layerId = m01;
shapes = (
{
closed = 1;
nodes = (
(370,937,qs),
(371,912,l),
(371,608,l),
(367,458,ls),
(367,215,o),
(299,10,o),
(235,-51,o),
(194,-51,q),
(135,-47,l),
(65,-47,o),
(-1,-109,o),
(-1,-156,qs),
(-1,-236,o),
(160,-236,qs),
(248,-236,o),
(337,-188,qs),
(548,-75,o),
(587,196,qs),
(604,315,o),
(604,455,qs),
(604,621,l),
(605,673,l),
(605,744,ls),
(605,776,o),
(607,828,qs),
(607,906,l),
(608,982,l),
(610,1033,ls),
(610,1190,o),
(639,1269,o),
(713,1340,o),
(713,1353,qs),
(713,1394,o),
(647,1394,qs),
(622,1394,ls),
(597,1394,o),
(548,1391,qs),
(499,1388,ls),
(476,1387,o),
(395,1382,o),
(379,1382,qs),
(213,1382,o),
(213,1351,qs),
(213,1325,o),
(324,1248,o),
(340,1210,qs),
(369,1140,o),
(369,987,qs),
(369,962,o)
);
}
);
width = 828;
},
{
layerId = "9BE5C8F1-5E5D-4A4F-AAC2-5BCBDB5A5B12";
shapes = (
{
closed = 1;
nodes = (
(-1,1127,qs),
(-1,1102,l),
(-1,1043,l),
(-1,901,ls),
(-1,777,o),
(-1,612,o),
(-3,500,o),
(-3,430,q),
(-3,276,l),
(-3,206,o),
(-1,-109,o),
(-1,-156,qs),
(-1,-236,o),
(160,-236,qs),
(248,-236,o),
(337,-188,qs),
(554,-76,o),
(587,196,qs),
(602,314,o),
(601,455,qs),
(607,621,l),
(607,673,l),
(607,744,ls),
(607,776,o),
(607,828,qs),
(607,906,l),
(607,982,l),
(607,1033,ls),
(609,1190,o),
(612,1259,o),
(612,1340,o),
(612,1353,qs),
(616,1392,o),
(587,1392,qs),
(564,1392,ls),
(531,1392,o),
(527,1392,qs),
(499,1392,ls),
(476,1392,o),
(395,1392,o),
(379,1392,qs),
(249,1392,o),
(213,1392,qs),
(145,1392,o),
(0,1388,o),
(1,1333,qs),
(2,1268,o),
(-1,1177,qs),
(-1,1174,o)
);
}
);
width = 828;
}
);
note = uni004A;
unicode = 74;
},
{
glyphname = K;
lastChange = "2024-03-16 00:44:21 +0000";
layers = (
{
layerId = m01;
shapes = (
{
closed = 1;
nodes = (
(922,241,o),
(969,119,qs),
(991,62,o),
(1059,-1,o),
(1162,-1,qs),
(1206,-1,ls),
(1394,-1,o),
(1394,45,qs),
(1394,57,o),
(1210,216,o),
(1129,321,qs),
(803,746,o),
(803,786,qs),
(803,859,o),
(1020,1090,qs),
(1110,1186,o),
(1313,1331,o),
(1313,1343,qs),
(1313,1393,o),
(1137,1393,qs),
(1022,1393,o),
(948,1373,o),
(948,1341,q),
(953,1317,l),
(959,1292,l),
(961,1265,l),
(961,1203,o),
(695,882,o),
(597,805,qs),
(554,771,o),
(538,771,qs),
(498,771,o),
(498,877,qs),
(498,1134,o),
(524,1229,qs),
(531,1256,o),
(594,1336,o),
(594,1356,qs),
(594,1398,o),
(398,1398,qs),
(351,1398,l),
(306,1399,ls),
(118,1399,o),
(118,1347,qs),
(118,1340,o),
(160,1302,qs),
(184,1280,ls),
(222,1241,o),
(253,1088,o),
(253,302,o),
(226,145,o),
(110,65,o),
(110,39,qs),
(110,0,o),
(484,0,o),
(584,24,o),
(584,58,qs),
(584,67,o),
(560,100,qs),
(542,124,l),
(530,145,o),
(494,278,o),
(494,398,qs),
(494,627,o),
(574,627,qs),
(640,627,o)
);
}
);
width = 1458;
},
{
layerId = "9BE5C8F1-5E5D-4A4F-AAC2-5BCBDB5A5B12";
shapes = (
{
closed = 1;
nodes = (
(888,1,o),
(969,1,qs),
(996,1,o),
(1021,3,o),
(1124,0,qs),
(1164,-1,ls),
(1234,-3,o),
(1234,185,qs),
(1234,197,o),
(1228,548,o),
(1228,677,qs),
(1228,749,o),
(1228,903,qs),
(1228,959,o),
(1228,1034,qs),
(1228,1175,o),
(1223,1308,o),
(1223,1320,qs),
(1221,1389,o),
(1137,1389,qs),
(1116,1389,o),
(1098,1389,o),
(1083,1389,q),
(1065,1389,l),
(1014,1389,l),
(988,1389,l),
(951,1389,o),
(911,1389,o),
(889,1389,qs),
(843,1389,o),
(793,1389,qs),
(749,1389,o),
(708,1389,qs),
(677,1389,o),
(589,1389,qs),
(562,1389,o),
(506,1389,o),
(489,1389,qs),
(452,1389,o),
(398,1389,qs),
(351,1389,l),
(306,1389,ls),
(235,1389,o),
(244,1295,qs),
(244,1200,o),
(244,1155,qs),
(244,1106,ls),
(244,1052,o),
(244,938,o),
(247,302,o),
(247,224,o),
(247,188,o),
(247,81,qs),
(256,-7,o),
(428,1,o),
(453,1,o),
(547,1,qs),
(571,1,o),
(588,1,qs),
(615,1,l),
(642,1,o),
(700,1,o),
(736,1,qs),
(762,1,o),
(840,1,qs),
(905,1,o)
);
}
);
width = 1458;
}
);
note = uni004B;
unicode = 75;
},
{
glyphname = L;
lastChange = "2024-03-08 19:19:58 +0000";
layers = (
{
layerId = m01;
shapes = (
{
closed = 1;
nodes = (
(1115,25,qs),
(1169,74,o),
(1169,294,qs),
(1169,320,ls),
(1169,362,o),
(1104,362,o),
(988,200,o),
(938,174,qs),
(850,128,o),
(673,128,qs),
(591,128,o),
(563,137,qs),
(517,152,o),
(492,228,o),
(492,1046,o),
(527,1235,o),
(567,1274,qs),
(638,1343,o),
(638,1355,qs),
(638,1391,o),
(396,1391,qs),
(306,1392,l),
(277,1393,l),
(217,1393,ls),
(105,1393,o),
(105,1321,o),
(179,1289,qs),
(226,1269,o),
(249,1190,o),
(249,282,o),
(216,139,o),
(107,63,o),
(107,48,qs),
(107,13,o),
(159,4,qs),
(187,-1,o),
(542,-1,qs),
(691,-1,l),
(721,-2,l),
(751,-2,ls),
(1085,-2,o)
);
}
);
width = 1219;
},
{
layerId = "9BE5C8F1-5E5D-4A4F-AAC2-5BCBDB5A5B12";
shapes = (
{
closed = 1;
nodes = (
(1062,2,qs),
(1169,14,o),
(1165,294,qs),
(1165,320,ls),
(1165,362,o),
(1165,421,o),
(1165,1189,o),
(1165,1261,qs),
(1151,1393,o),
(954,1393,qs),
(915,1393,o),
(791,1393,qs),
(741,1393,o),
(707,1393,o),
(675,1393,o),
(657,1393,o),
(602,1393,qs),
(591,1393,o),
(535,1393,qs),
(495,1393,o),
(406,1393,qs),
(336,1393,l),
(299,1393,l),
(279,1393,ls),
(240,1393,o),
(239,1328,o),
(240,1289,qs),
(243,1174,o),
(249,957,o),
(245,282,o),
(245,139,o),
(245,76,o),
(245,61,qs),
(245,0,o),
(305,0,qs),
(330,-1,o),
(542,-1,qs),
(691,-1,l),
(721,-2,l),
(751,-2,ls),
(973,-1,o)
);
}
);
width = 1219;
}
);
note = uni004C;
unicode = 76;
},
{
glyphname = M;
lastChange = "2024-03-16 00:39:58 +0000";
layers = (
{
layerId = m01;
shapes = (
{
closed = 1;
nodes = (
(609,1190,o),
(508,1337,o),
(404,1376,o),
(333,1376,qs),
(148,1376,o),
(148,1344,qs),
(148,1318,o),
(249,1218,o),
(277,1127,o),
(277,895,o),
(245,246,o),
(226,175,o),
(113,78,o),
(113,57,qs),
(113,15,o),
(278,15,qs),
(333,15,ls),
(382,15,o),
(444,45,o),
(444,91,o),
(411,231,o),
(397,331,o),
(397,549,qs),
(397,1040,o),
(425,1040,qs),
(459,1040,o),
(852,79,o),
(896,79,qs),
(959,79,o),
(1036,220,o),
(1376,1032,o),
(1397,1032,qs),
(1439,1032,o),
(1439,376,qs),
(1439,286,o),
(1395,105,o),
(1395,76,q),
(1405,54,l),
(1441,17,o),
(1723,17,o),
(1771,39,q),
(1796,57,l),
(1796,74,o),
(1686,177,o),
(1676,267,qs),
(1650,497,o),
(1650,999,qs),
(1650,1117,o),
(1675,1220,o),
(1705,1259,q),
(1736,1292,l),
(1760,1322,l),
(1760,1378,o),
(1519,1378,o),
(1409,1333,o),
(1325,1205,o),
(965,428,o),
(951,428,qs),
(931,428,o)
);
}
);
width = 1913;
},
{
layerId = "9BE5C8F1-5E5D-4A4F-AAC2-5BCBDB5A5B12";
shapes = (
{
closed = 1;
nodes = (
(693,1373,o),
(563,1373,o),
(463,1373,o),
(393,1373,qs),
(304,1380,o),
(277,1344,qs),
(258,1315,o),
(261,1209,o),
(261,1127,o),
(261,895,o),
(263,246,o),
(263,158,o),
(263,115,o),
(263,90,qs),
(262,15,o),
(314,15,qs),
(347,15,ls),
(396,15,o),
(442,15,o),
(466,15,o),
(503,15,o),
(578,15,o),
(642,15,qs),
(661,15,o),
(703,15,qs),
(737,15,o),
(887,15,o),
(931,15,qs),
(993,15,o),
(1146,15,o),
(1178,15,o),
(1199,15,qs),
(1232,15,o),
(1278,15,qs),
(1318,15,o),
(1347,15,o),
(1376,15,q),
(1411,15,l),
(1454,15,o),
(1513,15,o),
(1535,15,q),
(1616,15,ls),
(1658,15,o),
(1658,177,o),
(1658,267,qs),
(1658,498,o),
(1658,999,qs),
(1658,1117,o),
(1658,1168,o),
(1658,1236,q),
(1658,1286,l),
(1658,1330,ls),
(1658,1376,o),
(1519,1373,o),
(1365,1373,o),
(986,1373,o),
(845,1373,o),
(831,1373,qs),
(814,1373,o)
);
}
);
width = 1913;
}
);
note = uni004D;
unicode = 77;
},
{
glyphname = N;
lastChange = "2024-03-08 17:20:43 +0000";
layers = (
{
layerId = m01;
shapes = (
{
closed = 1;
nodes = (
(1355,711,ls),
(1355,1081,o),
(1381,1205,o),
(1422,1245,qs),
(1498,1320,o),
(1498,1323,qs),
(1498,1355,o),
(1474,1366,qs),
(1433,1385,o),
(1306,1385,qs),
(1211,1385,ls),
(1104,1385,o),
(1104,1336,qs),
(1104,1332,o),
(1191,1237,o),
(1218,1093,o),
(1218,395,o),
(1186,395,qs),
(1176,395,o),
(1023,604,qs),
(938,720,ls),
(876,807,o),
(553,1236,o),
(456,1328,o),
(330,1380,o),
(113,1380,o),
(113,1327,qs),
(113,1319,o),
(227,1232,o),
(239,1201,qs),
(265,1135,o),
(265,922,qs),
(266,776,l),
(263,627,ls),
(263,267,o),
(231,148,o),
(108,79,o),
(108,7,o),
(250,7,qs),
(296,7,ls),
(499,7,o),
(499,50,qs),
(499,67,o),
(432,166,o),
(422,218,qs),
(393,363,o),
(393,1065,o),
(414,1065,qs),
(441,1065,o),
(749,636,qs),
(782,589,o),
(961,325,o),
(1056,204,qs),
(1086,167,ls),
(1211,17,o),
(1293,17,qs),
(1331,17,o),
(1353,74,o),
(1353,246,qs),
(1353,516,l)
);
}
);
width = 1588;
},
{
layerId = "9BE5C8F1-5E5D-4A4F-AAC2-5BCBDB5A5B12";
shapes = (
{
closed = 1;
nodes = (
(1355,711,ls),
(1358,1011,o),
(1356,1088,o),
(1356,1153,qs),
(1356,1185,o),
(1356,1212,qs),
(1356,1264,o),
(1356,1348,qs),
(1355,1386,o),
(1306,1385,qs),
(1211,1384,ls),
(1196,1384,o),
(1167,1384,qs),
(1127,1384,o),
(1097,1384,o),
(1051,1384,o),
(982,1384,o),
(951,1384,qs),
(901,1384,o),
(832,1384,qs),
(712,1384,ls),
(609,1384,o),
(471,1384,o),
(395,1384,o),
(330,1385,o),
(261,1380,o),
(261,1327,qs),
(261,1319,o),
(261,1232,o),
(261,1201,qs),
(257,1132,o),
(257,922,qs),
(257,776,l),
(257,627,ls),
(257,358,o),
(257,315,o),
(257,275,o),
(255,14,o),
(294,14,qs),
(330,14,ls),
(390,14,o),
(418,14,qs),
(429,14,o),
(482,14,o),
(534,14,qs),
(554,14,o),
(642,14,o),
(661,14,qs),
(687,14,o),
(712,14,qs),
(749,14,o),
(884,14,o),
(938,14,qs),
(1046,14,ls),
(1241,14,o),
(1293,14,qs),
(1331,23,o),
(1353,74,o),
(1353,246,qs),
(1353,516,l)
);
}
);
width = 1588;
}
);
note = uni004E;
unicode = 78;
},
{
glyphname = O;
lastChange = "2024-03-08 17:06:46 +0000";
layers = (
{
layerId = m01;
shapes = (
{
closed = 1;
nodes = (
(377,980,qs),
(439,1198,o),
(593,1270,qs),
(667,1304,o),
(741,1305,q),
(946,1240,o),
(1116,950,q),
(1150,832,o),
(1150,699,qs),
(1150,644,ls),
(1150,523,o),
(1090,309,o),
(1048,245,qs),
(941,79,o),
(763,79,qs),
(747,79,ls),
(665,79,o),
(510,171,o),
(458,250,qs),
(343,425,o),
(343,686,qs),
(343,740,ls),
(343,859,o)
);
},
{
closed = 1;
nodes = (
(1317,1143,o),
(1231,1232,qs),
(1058,1411,o),
(773,1411,qs),
(750,1411,ls),
(617,1411,o),
(369,1303,o),
(195,1111,o),
(99,842,o),
(99,703,qs),
(99,656,ls),
(99,520,o),
(200,244,o),
(364,75,o),
(589,-29,o),
(718,-29,qs),
(765,-29,ls),
(895,-29,o),
(1024,26,qs),
(1277,134,o),
(1376,412,qs),
(1424,547,o),
(1424,683,qs),
(1424,730,ls),
(1424,869,o)
);
}
);
width = 1536;
},
{
layerId = "9BE5C8F1-5E5D-4A4F-AAC2-5BCBDB5A5B12";
shapes = (
{
closed = 1;
nodes = (
(747,692,qs),
(747,692,o),
(747,692,qs),
(747,692,o),
(747,692,q),
(746,692,o),
(746,692,q),
(746,692,o),
(746,692,qs),
(746,692,ls),
(746,692,o),
(746,692,o),
(746,692,qs),
(746,692,o),
(746,692,qs),
(746,692,ls),
(747,692,o),
(747,692,o),
(747,692,qs),
(747,692,o),
(747,692,qs),
(747,692,ls),
(747,692,o)
);
},
{
closed = 1;
nodes = (
(1317,1143,o),
(1231,1232,qs),
(1058,1411,o),
(773,1411,qs),
(750,1411,ls),
(617,1411,o),
(369,1303,o),
(195,1111,o),
(99,842,o),
(99,703,qs),
(99,656,ls),
(99,520,o),
(200,244,o),
(364,75,o),
(589,-29,o),
(718,-29,qs),
(765,-29,ls),
(895,-29,o),
(1024,26,qs),
(1277,134,o),
(1376,412,qs),
(1424,547,o),
(1424,683,qs),
(1424,730,ls),
(1424,869,o)
);
}
);
width = 1536;
}
);
note = uni004F;
unicode = 79;
},
{
glyphname = P;
lastChange = "2024-03-08 17:14:51 +0000";
layers = (
{
layerId = m01;
shapes = (
{
closed = 1;
nodes = (
(521,1297,o),
(607,1297,qs),
(616,1297,ls),
(767,1297,o),
(941,1137,o),
(941,992,qs),
(941,959,ls),
(941,817,o),
(778,654,o),
(646,654,qs),
(599,654,ls),
(525,654,o),
(487,695,o),
(487,765,qs),
(487,1144,ls),
(487,1251,o)
);
},
{
closed = 1;
nodes = (
(506,1401,qs),
(427,1398,l),
(321,1396,ls),
(179,1396,o),
(123,1372,o),
(123,1321,o),
(224,1263,o),
(255,1112,o),
(255,731,qs),
(256,679,l),
(256,549,l),
(255,497,ls),
(255,471,o),
(255,419,o),
(254,393,qs),
(253,368,ls),
(253,220,o),
(223,149,o),
(117,85,o),
(117,55,qs),
(117,7,o),
(262,7,qs),
(515,7,ls),
(644,7,o),
(644,60,qs),
(644,77,o),
(539,140,o),
(524,161,qs),
(493,205,o),
(493,502,o),
(528,541,qs),
(550,566,o),
(656,574,qs),
(905,593,o),
(1024,676,qs),
(1191,793,o),
(1191,983,qs),
(1191,985,o),
(1191,985,q),
(1191,1013,ls),
(1191,1110,o),
(1152,1190,qs),
(1048,1403,o),
(694,1403,qs),
(587,1403,ls),
(559,1403,o)
);
}
);
width = 1277;
},
{
layerId = "9BE5C8F1-5E5D-4A4F-AAC2-5BCBDB5A5B12";
shapes = (
{
closed = 1;
nodes = (
(714,975,o),
(714,975,qs),
(714,975,ls),
(714,975,o),
(714,975,o),
(714,975,qs),
(714,976,ls),
(714,976,o),
(714,976,o),
(714,976,qs),
(714,976,ls),
(714,976,o),
(714,976,o),
(714,976,qs),
(714,975,ls),
(714,975,o)
);
},
{
closed = 1;
nodes = (
(506,1401,qs),
(427,1398,l),
(321,1396,ls),
(280,1395,o),
(237,1368,o),
(237,1317,o),
(241,1180,o),
(247,1112,o),
(247,731,qs),
(247,679,l),
(247,549,l),
(247,497,ls),
(247,471,o),
(247,419,o),
(247,393,qs),
(247,368,ls),
(247,220,o),
(246,149,o),
(250,85,o),
(250,55,qs),
(250,7,o),
(285,7,qs),
(1102,7,ls),
(1189,7,o),
(1187,130,qs),
(1187,145,o),
(1187,260,o),
(1187,281,qs),
(1187,320,o),
(1187,368,o),
(1187,500,qs),
(1187,583,o),
(1187,638,qs),
(1187,763,o),
(1187,847,qs),
(1187,927,o),
(1187,983,qs),
(1187,985,o),
(1187,985,q),
(1187,1013,ls),
(1187,1110,o),
(1152,1190,qs),
(1048,1403,o),
(694,1403,qs),
(587,1403,ls),
(559,1403,o)
);
}
);
width = 1277;
}
);
note = uni0050;
unicode = 80;
},
{
glyphname = Q;
lastChange = "2024-03-08 17:05:54 +0000";
layers = (
{
layerId = m01;
shapes = (
{
closed = 1;
nodes = (
(356,974,qs),
(417,1188,o),
(568,1269,qs),
(646,1311,o),
(830,1311,o),
(907,1274,qs),
(1074,1194,o),
(1146,954,qs),
(1180,840,o),
(1180,714,qs),
(1180,659,ls),
(1180,417,o),
(1069,265,qs),
(946,95,o),
(758,95,qs),
(668,95,o),
(512,179,o),
(459,248,qs),
(323,429,o),
(323,676,qs),
(323,749,ls),
(323,857,o)
);
},
{
closed = 1;
nodes = (
(1176,56,qs),
(1294,187,o),
(1343,338,qs),
(1398,510,o),
(1398,733,qs),
(1398,1032,o),
(1227,1216,qs),
(1137,1313,o),
(885,1422,o),
(757,1422,qs),
(727,1422,ls),
(591,1422,o),
(344,1319,o),
(255,1224,qs),
(74,1029,o),
(74,706,qs),
(74,542,o),
(218,224,o),
(477,21,o),
(1040,-223,qs),
(1229,-305,o),
(1336,-305,qs),
(1364,-305,ls),
(1439,-305,o),
(1540,-256,o),
(1540,-188,o),
(1305,-135,o),
(1134,-48,o),
(1134,-13,qs),
(1134,9,o)
);
}
);
width = 1569;
},
{
layerId = "9BE5C8F1-5E5D-4A4F-AAC2-5BCBDB5A5B12";
shapes = (
{
closed = 1;
nodes = (
(752,703,qs),
(752,703,o),
(752,703,qs),
(752,703,o),
(751,703,o),
(751,703,qs),
(751,703,o),
(751,703,qs),
(751,703,o),
(751,703,qs),
(751,703,ls),
(751,703,o),
(751,703,qs),
(751,703,o),
(751,703,qs),
(752,703,o),
(752,703,o),
(752,703,qs),
(752,703,o),
(752,703,qs),
(752,703,ls),
(752,703,o)
);
},
{
closed = 1;
nodes = (
(1399,309,qs),
(1400,405,o),
(1399,479,qs),
(1398,595,o),
(1401,699,qs),
(1410,996,o),
(1227,1216,q),
(1137,1313,o),
(885,1422,o),
(757,1422,qs),
(727,1422,ls),
(591,1422,o),
(344,1319,o),
(255,1224,qs),
(74,1029,o),
(74,706,qs),
(74,542,o),
(218,224,o),
(477,30,o),
(1040,-211,qs),
(1112,-242,o),
(1207,-273,q),
(1281,-297,ls),
(1396,-334,o),
(1401,-155,o),
(1399,-106,o),
(1399,21,o),
(1398,80,o),
(1399,138,qs),
(1399,230,o)
);
}
);
width = 1569;
}
);
note = uni0051;
unicode = 81;
},
{
glyphname = R;
lastChange = "2024-03-17 01:38:14 +0000";
layers = (
{
layerId = m01;
shapes = (
{
closed = 1;
nodes = (
(502,1287,o),
(565,1287,qs),
(627,1287,ls),
(755,1287,o),
(914,1142,o),
(914,1018,qs),
(914,977,ls),
(914,856,o),
(752,707,o),
(603,707,qs),
(560,707,ls),
(506,707,o),
(473,736,o),
(473,809,qs),
(473,1144,ls),
(473,1246,o)
);
},
{
closed = 1;
nodes = (
(377,1386,ls),
(343,1386,o),
(308,1385,qs),
(274,1384,ls),
(114,1384,o),
(114,1344,qs),
(114,1321,o),
(215,1260,o),
(254,1122,o),
(254,715,qs),
(256,611,ls),
(256,576,o),
(256,541,qs),
(255,471,l),
(253,401,ls),
(253,212,o),
(230,170,qs),
(224,159,o),
(140,107,qs),
(107,87,o),
(107,7,o),
(342,7,qs),
(388,7,o),
(410,6,qs),
(443,4,l),
(477,3,ls),
(604,3,o),
(604,37,qs),
(604,44,o),
(524,129,o),
(485,223,o),
(485,511,o),
(519,594,o),
(565,594,qs),
(673,594,o),
(726,527,qs),
(741,508,o),
(975,90,o),
(1014,52,qs),
(1070,-3,o),
(1183,-3,qs),
(1338,-3,o),
(1338,68,qs),
(1338,92,o),
(1202,147,o),
(1111,261,o),
(913,596,o),
(913,610,qs),
(913,657,o),
(997,727,qs),
(1148,852,o),
(1148,1020,qs),
(1148,1110,o),
(1120,1170,qs),
(1016,1392,o),
(653,1392,qs),
(583,1392,l)
);
}
);
width = 1398;
},
{
layerId = "9BE5C8F1-5E5D-4A4F-AAC2-5BCBDB5A5B12";
shapes = (
{
closed = 1;
nodes = (
(694,997,o),
(694,997,qs),
(694,997,ls),
(693,997,o),
(693,997,o),
(693,997,qs),
(693,997,ls),
(693,997,o),
(693,997,o),
(694,997,qs),
(694,997,ls),
(694,997,o),
(694,997,o),
(694,997,qs),
(694,997,ls),
(694,997,o)
);
},
{
closed = 1;
nodes = (
(417,1386,ls),
(383,1386,o),
(348,1385,qs),
(316,1384,ls),
(247,1382,o),
(248,1231,qs),
(248,1115,o),
(248,1088,o),
(248,1042,o),
(248,685,qs),
(248,581,ls),
(248,546,o),
(248,511,qs),
(248,441,l),
(248,371,ls),
(249,278,o),
(249,226,qs),
(249,180,o),
(249,149,qs),
(249,99,o),
(259,-5,o),
(342,2,qs),
(388,2,o),
(410,2,qs),
(443,2,l),
(464,2,ls),
(479,2,o),
(495,2,qs),
(508,2,o),
(513,2,o),
(528,2,o),
(586,2,o),
(620,2,o),
(653,2,qs),
(721,2,o),
(839,2,qs),
(862,2,o),
(949,2,o),
(949,2,qs),
(949,2,o),
(1055,0,qs),
(1159,-5,o),
(1159,62,qs),
(1159,100,o),
(1159,134,o),
(1159,197,o),
(1159,242,o),
(1159,327,qs),
(1159,438,o),
(1159,524,qs),
(1159,608,o),
(1159,735,qs),
(1155,825,o),
(1159,936,qs),
(1174,1392,o),
(693,1392,qs),
(623,1392,l)
);
}
);
width = 1398;
}
);
note = uni0052;
unicode = 82;
},
{
glyphname = S;
lastChange = "2024-03-17 01:12:30 +0000";
layers = (
{
layerId = m01;
shapes = (
{
closed = 1;
nodes = (
(796,1211,o),
(908,1051,o),
(936,1051,qs),
(992,1051,o),
(992,1337,o),
(933,1361,qs),
(916,1368,o),
(874,1371,qs),
(844,1372,l),
(813,1374,l),
(808,1375,o),
(746,1387,qs),
(711,1394,ls),
(641,1407,o),
(603,1407,qs),
(566,1407,ls),
(474,1407,o),
(298,1346,o),
(239,1291,qs),
(132,1192,o),
(132,892,o),
(232,788,qs),
(305,712,o),
(683,537,o),
(730,503,qs),
(840,422,o),
(840,304,qs),
(840,218,o),
(704,101,o),
(482,101,o),
(325,197,o),
(205,387,o),
(170,387,qs),
(119,387,o),
(119,239,qs),
(119,204,ls),
(119,79,o),
(189,51,qs),
(344,-11,o),
(550,-11,qs),
(587,-11,ls),
(678,-11,o),
(860,46,o),
(921,94,qs),
(1053,198,o),
(1053,364,qs),
(1053,400,ls),
(1053,534,o),
(919,658,qs),
(849,723,o),
(491,877,o),
(433,922,qs),
(336,996,o),
(336,1189,o),
(466,1296,o),
(671,1296,o),
(753,1240,qs)
);
}
);
width = 1148;
},
{
layerId = "9BE5C8F1-5E5D-4A4F-AAC2-5BCBDB5A5B12";
shapes = (
{
closed = 1;
nodes = (
(968,952,o),
(969,991,o),
(969,1013,qs),
(969,1030,o),
(969,909,o),
(969,1074,q),
(969,1091,o),
(969,1113,qs),
(969,1172,l),
(969,1247,ls),
(969,1354,o),
(806,1384,qs),
(702,1403,ls),
(660,1407,o),
(593,1407,qs),
(556,1407,ls),
(464,1407,o),
(330,1367,o),
(263,1316,qs),
(159,1236,o),
(138,1029,o),
(138,997,qs),
(138,956,o),
(138,922,o),
(138,865,qs),
(138,827,o),
(138,805,qs),
(138,717,o),
(138,716,o),
(138,657,o),
(138,598,o),
(138,545,o),
(138,475,qs),
(138,453,o),
(138,429,qs),
(138,302,ls),
(138,102,o),
(189,51,qs),
(252,-11,o),
(550,-11,qs),
(587,-11,ls),
(678,-11,o),
(855,43,o),
(903,86,qs),
(969,131,o),
(969,339,qs),
(969,515,ls),
(969,538,o),
(969,612,qs),
(969,645,o),
(969,675,o),
(969,726,qs),
(969,886,o),
(969,848,o),
(969,872,o),
(969,739,o),
(969,923,qs)
);
}
);
width = 1148;
}
);
note = uni0053;
unicode = 83;
},
{
glyphname = T;
lastChange = "2024-03-08 19:13:31 +0000";
layers = (
{
layerId = m01;
shapes = (
{
closed = 1;
nodes = (
(1228,1392,o),
(1153,1392,qs),
(677,1390,ls),
(100,1390,o),
(86,1380,qs),
(49,1354,o),
(49,1139,qs),
(49,1109,ls),
(49,1054,o),
(79,1054,qs),
(119,1054,o),
(215,1198,o),
(319,1259,o),
(510,1259,o),
(526,1203,qs),
(538,1160,o),
(538,284,o),
(505,149,o),
(376,67,o),
(376,50,qs),
(376,16,o),
(445,3,o),
(572,3,qs),
(669,2,ls),
(701,2,o),
(735,1,qs),
(801,0,l),
(835,-1,ls),
(929,-1,o),
(929,56,o),
(805,144,o),
(776,270,o),
(776,1114,o),
(795,1224,o),
(840,1260,o),
(1003,1260,o),
(1106,1202,o),
(1207,1065,o),
(1221,1065,qs),
(1270,1065,o),
(1270,1147,qs),
(1270,1178,ls),
(1270,1314,o)
);
}
);
width = 1315;
},
{
layerId = "9BE5C8F1-5E5D-4A4F-AAC2-5BCBDB5A5B12";
shapes = (
{
closed = 1;
nodes = (
(1171,1397,o),
(1098,1396,qs),
(677,1390,ls),
(352,1385,o),
(147,1385,qs),
(51,1385,o),
(51,1139,qs),
(51,1109,ls),
(51,854,o),
(51,707,qs),
(51,610,o),
(64,0,o),
(227,0,o),
(250,0,o),
(289,0,qs),
(289,0,o),
(414,0,o),
(460,0,o),
(473,0,o),
(521,0,qs),
(542,0,o),
(560,3,o),
(572,3,qs),
(669,2,ls),
(701,2,o),
(735,1,qs),
(779,0,l),
(813,-1,ls),
(833,-2,o),
(855,-1,o),
(883,0,o),
(931,0,o),
(974,0,o),
(1025,0,o),
(1083,0,o),
(1125,1,o),
(1281,0,o),
(1270,907,o),
(1270,981,qs),
(1270,1019,o),
(1270,1147,qs),
(1270,1178,ls),
(1270,1330,o)
);
}
);
width = 1315;
}
);
note = uni0054;
unicode = 84;
},
{
glyphname = U;
lastChange = "2024-03-08 17:36:29 +0000";
layers = (
{
layerId = m01;
shapes = (
{
closed = 1;
nodes = (
(252,257,o),
(318,171,qs),
(457,-12,o),
(1059,-12,o),
(1193,148,qs),
(1262,230,o),
(1284,332,qs),
(1306,433,o),
(1307,629,qs),
(1305,870,ls),
(1305,1147,o),
(1333,1230,o),
(1453,1300,o),
(1453,1323,qs),
(1453,1369,o),
(1351,1389,o),
(1057,1389,o),
(1057,1351,qs),
(1057,1348,o),
(1130,1236,o),
(1167,1087,o),
(1167,781,o),
(1167,720,qs),
(1165,638,ls),
(1165,361,o),
(1092,249,qs),
(1005,113,o),
(811,113,qs),
(515,114,o),
(473,418,qs),
(459,520,o),
(459,1076,o),
(485,1251,o),
(560,1344,o),
(560,1346,qs),
(560,1391,o),
(449,1391,qs),
(297,1391,ls),
(152,1391,o),
(81,1367,o),
(81,1311,o),
(164,1261,qs),
(204,1237,o),
(226,1117,o),
(226,446,o),
(235,381,qs)
);
}
);
width = 1520;
},
{
layerId = "9BE5C8F1-5E5D-4A4F-AAC2-5BCBDB5A5B12";
shapes = (
{
closed = 1;
nodes = (
(252,257,o),
(318,171,qs),
(457,-12,o),
(1059,-12,o),
(1193,148,qs),
(1258,230,o),
(1284,332,qs),
(1310,433,o),
(1306,629,qs),
(1306,870,ls),
(1306,1097,o),
(1303,1200,o),
(1303,1300,o),
(1303,1323,qs),
(1303,1369,o),
(1293,1389,o),
(1226,1389,o),
(1197,1389,qs),
(1194,1389,o),
(1148,1389,o),
(1100,1389,o),
(1080,1389,o),
(1060,1389,qs),
(1018,1389,ls),
(997,1389,o),
(971,1389,qs),
(929,1389,o),
(811,1389,qs),
(761,1389,o),
(728,1389,qs),
(663,1389,o),
(594,1389,o),
(565,1389,o),
(531,1389,o),
(487,1389,qs),
(483,1389,o),
(407,1389,qs),
(307,1389,ls),
(283,1389,o),
(219,1387,o),
(222,1272,o),
(222,1215,qs),
(222,1168,o),
(226,1117,o),
(226,446,o),
(235,381,qs)
);
}
);
width = 1520;
}
);
note = uni0055;
unicode = 85;
},
{
glyphname = V;
lastChange = "2024-03-08 19:24:25 +0000";
layers = (
{
layerId = m01;
shapes = (
{
closed = 1;
nodes = (
(114,1269,qs),
(151,1246,o),
(197,1171,o),
(597,112,o),
(599,109,q),
(655,-10,o),
(792,-10,o),
(895,222,o),
(1249,1157,o),
(1290,1233,o),
(1418,1315,o),
(1418,1350,qs),
(1418,1391,o),
(1263,1391,qs),
(1194,1391,ls),
(1030,1391,o),
(1030,1348,qs),
(1030,1337,o),
(1064,1285,o),
(1090,1234,o),
(1090,1153,o),
(1057,1034,qs),
(976,741,o),
(837,410,qs),
(792,303,o),
(773,303,qs),
(764,303,o),
(643,603,o),
(494,1066,qs),
(458,1178,o),
(458,1263,o),
(498,1328,o),
(498,1344,qs),
(498,1388,o),
(116,1388,o),
(30,1373,o),
(30,1335,qs),
(30,1320,o)
);
}
);
width = 1438;
},
{
layerId = "9BE5C8F1-5E5D-4A4F-AAC2-5BCBDB5A5B12";
shapes = (
{
closed = 1;
nodes = (
(146,1254,qs),
(167,1206,o),
(207,1112,o),
(597,112,o),
(599,109,q),
(655,-10,o),
(792,-10,o),
(895,222,o),
(1252,1157,o),
(1285,1233,o),
(1313,1315,o),
(1314,1350,qs),
(1315,1392,o),
(1263,1391,qs),
(1164,1390,ls),
(1130,1390,o),
(1100,1390,qs),
(1071,1390,o),
(1038,1390,o),
(1007,1390,o),
(957,1390,o),
(886,1390,qs),
(833,1390,o),
(765,1390,qs),
(692,1390,o),
(643,1390,qs),
(603,1390,o),
(563,1390,o),
(520,1390,qs),
(442,1390,o),
(390,1390,o),
(320,1390,o),
(307,1390,qs),
(256,1390,o),
(224,1390,o),
(88,1381,o),
(116,1318,qs),
(129,1290,o)
);
}
);
width = 1438;
}
);
note = uni0056;
unicode = 86;
},
{
glyphname = W;
lastChange = "2024-03-17 01:20:26 +0000";
layers = (
{
layerId = m01;
shapes = (
{
closed = 1;
nodes = (
(97,1327,o),
(97,1279,o),
(214,1079,o),
(275,911,o),
(488,209,o),
(512,160,qs),
(566,52,o),
(714,52,o),
(775,185,qs),
(814,270,o),
(1019,885,o),
(1042,885,q),
(1061,844,ls),
(1080,796,o),
(1249,255,o),
(1278,188,qs),
(1336,55,o),
(1413,55,qs),
(1481,55,o),
(1539,160,qs),
(1575,226,o),
(1691,590,qs),
(1725,701,ls),
(1744,765,o),
(1760,813,qs),
(1814,979,ls),
(1846,1073,o),
(1968,1265,o),
(1968,1332,o),
(1914,1379,o),
(1848,1379,qs),
(1716,1379,o),
(1691,1298,qs),
(1688,1288,o),
(1667,1002,o),
(1534,528,o),
(1494,463,o),
(1419,463,o),
(1389,545,qs),
(1230,975,o),
(1230,1127,q),
(1237,1166,l),
(1242,1205,l),
(1242,1264,o),
(1121,1357,o),
(964,1357,o),
(851,1280,o),
(851,1207,q),
(861,1168,l),
(873,1127,ls),
(884,1081,o),
(884,1029,qs),
(884,867,o),
(761,459,o),
(661,459,o),
(588,668,o),
(483,1114,o),
(473,1187,qs),
(452,1330,o),
(362,1362,qs),
(314,1380,o),
(153,1380,o),
(116,1345,qs)
);
}
);
width = 2059;
},
{
layerId = "9BE5C8F1-5E5D-4A4F-AAC2-5BCBDB5A5B12";
shapes = (
{
closed = 1;
nodes = (
(198,1357,o),
(156,1298,o),
(214,1099,o),
(275,911,o),
(488,209,o),
(512,160,qs),
(566,52,o),
(664,53,o),
(696,53,qs),
(751,53,o),
(804,55,o),
(827,55,q),
(859,55,ls),
(911,55,o),
(940,55,o),
(996,55,qs),
(1141,55,o),
(1413,55,qs),
(1481,55,o),
(1539,160,qs),
(1579,225,o),
(1691,590,qs),
(1725,701,ls),
(1744,765,o),
(1760,813,qs),
(1814,979,ls),
(1845,1073,o),
(1880,1184,o),
(1919,1317,o),
(1894,1361,o),
(1820,1359,qs),
(1734,1359,o),
(1705,1359,qs),
(1656,1359,o),
(1605,1359,o),
(1559,1359,o),
(1474,1359,o),
(1429,1359,o),
(1351,1359,qs),
(1328,1359,o),
(1309,1359,q),
(1250,1359,l),
(1215,1359,l),
(1162,1359,o),
(1101,1357,o),
(1079,1357,o),
(1059,1357,o),
(1028,1357,q),
(967,1357,l),
(922,1357,ls),
(886,1357,o),
(858,1357,qs),
(822,1357,o),
(771,1357,o),
(681,1357,o),
(630,1357,o),
(571,1357,o),
(533,1357,qs),
(530,1357,o),
(434,1357,qs),
(392,1357,o),
(370,1357,o),
(316,1357,qs)
);
}
);
width = 2059;
}
);
note = uni0057;
unicode = 87;
},
{
glyphname = X;
lastChange = "2024-03-17 01:28:35 +0000";
layers = (
{
layerId = m01;
shapes = (
{
closed = 1;
nodes = (
(216,1244,o),
(309,1137,o),
(527,808,qs),
(584,722,o),
(584,698,qs),
(584,603,o),
(283,231,qs),
(220,153,o),
(158,122,qs),
(68,77,o),
(68,35,qs),
(68,3,o),
(238,3,qs),
(279,3,ls),
(472,3,o),
(472,41,qs),
(472,45,o),
(425,126,o),
(425,155,qs),
(425,227,o),
(569,426,qs),
(655,544,o),
(670,544,qs),
(695,544,o),
(766,434,qs),
(926,187,o),
(926,121,qs),
(926,113,o),
(890,52,o),
(890,35,qs),
(890,3,o),
(958,3,qs),
(1041,3,ls),
(1374,3,o),
(1374,48,qs),
(1374,72,o),
(1283,131,qs),
(1238,160,o),
(1121,312,o),
(900,652,qs),
(860,714,o),
(860,726,qs),
(860,829,o),
(1120,1154,qs),
(1184,1233,o),
(1246,1266,qs),
(1348,1319,o),
(1348,1350,qs),
(1348,1393,o),
(1144,1393,qs),
(1102,1393,ls),
(949,1393,o),
(949,1357,qs),
(949,1345,o),
(995,1265,o),
(995,1242,qs),
(995,1182,o),
(780,890,o),
(764,890,qs),
(743,890,o),
(533,1202,o),
(533,1270,o),
(549,1293,qs),
(577,1334,l),
(577,1388,o),
(501,1388,qs),
(461,1388,o),
(418,1387,qs),
(332,1385,ls),
(86,1385,o),
(86,1339,qs),
(86,1314,o)
);
}
);
width = 1440;
},
{
layerId = "9BE5C8F1-5E5D-4A4F-AAC2-5BCBDB5A5B12";
shapes = (
{
closed = 1;
nodes = (
(151,1125,o),
(151,1032,o),
(151,917,qs),
(151,822,o),
(151,764,qs),
(151,668,o),
(151,606,qs),
(151,517,o),
(151,462,qs),
(151,359,o),
(151,258,q),
(152,2,o),
(273,2,qs),
(299,2,ls),
(330,2,o),
(376,2,qs),
(394,2,o),
(456,2,o),
(468,2,qs),
(552,2,o),
(597,2,qs),
(626,2,o),
(676,2,qs),
(727,2,o),
(770,2,qs),
(804,2,o),
(817,2,qs),
(848,2,o),
(876,2,o),
(922,2,qs),
(946,2,o),
(978,2,qs),
(1061,2,ls),
(1263,2,o),
(1263,120,qs),
(1263,171,o),
(1263,211,qs),
(1263,278,o),
(1263,359,o),
(1263,525,qs),
(1263,600,o),
(1263,813,qs),
(1263,881,o),
(1263,925,qs),
(1263,1013,o),
(1263,1048,qs),
(1263,1146,o),
(1263,1191,qs),
(1268,1383,o),
(1144,1383,qs),
(1102,1383,ls),
(1058,1383,o),
(1018,1383,qs),
(947,1383,o),
(898,1383,o),
(875,1383,qs),
(841,1383,o),
(793,1383,o),
(777,1383,qs),
(756,1383,o),
(728,1383,o),
(711,1383,o),
(685,1383,qs),
(613,1383,l),
(565,1383,o),
(501,1383,qs),
(473,1383,o),
(418,1383,qs),
(332,1383,ls),
(157,1383,o),
(151,1286,qs),
(151,1174,o)
);
}
);
width = 1440;
}
);
note = uni0058;
unicode = 88;
},
{
glyphname = Y;
lastChange = "2024-03-08 17:41:02 +0000";
layers = (
{
layerId = m01;
shapes = (
{
closed = 1;
nodes = (
(598,-4,qs),
(850,-10,ls),
(940,-10,o),
(940,57,o),
(847,112,o),
(806,178,o),
(806,304,qs),
(806,552,o),
(877,694,qs),
(1049,1038,o),
(1143,1174,qs),
(1174,1218,o),
(1259,1274,qs),
(1315,1311,o),
(1315,1394,o),
(1197,1394,qs),
(1130,1394,ls),
(934,1394,o),
(934,1337,qs),
(934,1334,o),
(976,1248,o),
(976,1224,qs),
(976,1154,o),
(753,749,o),
(722,749,qs),
(708,749,o),
(655,843,qs),
(472,1165,o),
(472,1244,qs),
(472,1279,o),
(507,1333,o),
(507,1336,qs),
(507,1386,o),
(402,1386,qs),
(190,1386,o),
(57,1359,o),
(57,1319,qs),
(57,1289,o),
(182,1218,o),
(218,1168,qs),
(285,1074,o),
(488,708,qs),
(574,553,o),
(574,246,o),
(536,139,o),
(433,59,o),
(433,36,qs),
(433,-4,o)
);
}
);
width = 1359;
},
{
layerId = "9BE5C8F1-5E5D-4A4F-AAC2-5BCBDB5A5B12";
shapes = (
{
closed = 1;
nodes = (
(667,-4,qs),
(744,-2,ls),
(814,0,o),
(810,209,o),
(810,239,o),
(810,349,o),
(810,390,qs),
(816,594,o),
(877,694,qs),
(1055,1042,o),
(1146,1174,qs),
(1168,1209,o),
(1213,1274,qs),
(1252,1327,o),
(1219,1396,o),
(1156,1394,qs),
(1094,1392,ls),
(1021,1390,o),
(941,1392,qs),
(938,1392,o),
(900,1392,o),
(837,1392,qs),
(744,1392,o),
(680,1392,o),
(627,1392,qs),
(611,1392,o),
(589,1392,qs),
(550,1392,o),
(538,1392,qs),
(503,1392,o),
(488,1392,o),
(451,1392,qs),
(370,1392,o),
(315,1392,qs),
(192,1391,o),
(137,1359,o),
(137,1319,qs),
(137,1289,o),
(182,1218,o),
(218,1168,qs),
(285,1074,o),
(488,708,qs),
(574,553,o),
(574,246,o),
(570,152,o),
(570,110,o),
(570,87,q),
(570,-7,o)
);
}
);
width = 1359;
}
);
note = uni0059;
unicode = 89;
},
{
glyphname = Z;
lastChange = "2024-03-17 01:33:24 +0000";
layers = (
{
layerId = m01;
shapes = (
{
closed = 1;
nodes = (
(283,0,qs),
(711,-5,l),
(983,-5,ls),
(1115,-5,o),
(1145,32,qs),
(1194,92,o),
(1194,275,qs),
(1194,347,o),
(1170,347,qs),
(1129,347,o),
(1020,184,o),
(956,157,qs),
(850,112,o),
(553,112,qs),
(425,112,o),
(425,152,qs),
(425,179,o),
(1068,1144,o),
(1074,1153,qs),
(1154,1280,o),
(1154,1344,qs),
(1154,1379,o),
(1087,1387,qs),
(1061,1390,o),
(895,1390,qs),
(777,1391,ls),
(738,1391,o),
(698,1392,qs),
(658,1393,l),
(263,1393,ls),
(172,1393,o),
(119,1299,o),
(119,1138,qs),
(119,1059,o),
(171,1059,qs),
(180,1059,o),
(271,1163,qs),
(317,1216,o),
(377,1236,qs),
(489,1274,o),
(708,1274,qs),
(837,1274,o),
(837,1199,o),
(102,138,o),
(102,26,o),
(161,0,o)
);
}
);
width = 1278;
},
{
layerId = "9BE5C8F1-5E5D-4A4F-AAC2-5BCBDB5A5B12";
shapes = (
{
closed = 1;
nodes = (
(283,-2,qs),
(711,-2,l),
(983,-2,ls),
(1152,-2,o),
(1155,130,qs),
(1155,193,o),
(1155,275,qs),
(1155,432,o),
(1155,602,qs),
(1155,623,o),
(1155,690,o),
(1155,759,qs),
(1155,809,o),
(1155,853,qs),
(1155,871,o),
(1155,954,qs),
(1155,979,o),
(1155,1037,o),
(1155,1130,qs),
(1156,1150,o),
(1155,1231,qs),
(1153,1390,o),
(1004,1390,qs),
(950,1390,o),
(895,1390,qs),
(777,1390,ls),
(738,1390,o),
(698,1390,qs),
(658,1390,l),
(263,1390,ls),
(117,1390,o),
(111,1129,o),
(111,1055,qs),
(111,963,o),
(111,920,qs),
(111,853,o),
(111,790,qs),
(111,743,o),
(111,690,qs),
(111,639,o),
(111,543,qs),
(111,442,o),
(111,392,o),
(111,278,o),
(111,166,o),
(117,-2,o)
);
}
);
width = 1278;
}
);
note = uni005A;
unicode = 90;
},
{
glyphname = a;
lastChange = "2024-03-01 20:22:36 +0000";
layers = (
{
layerId = m01;
shapes = (
{
closed = 1;
nodes = (
(645,408,qs),
(645,384,l),
(644,360,ls),
(644,351,o),
(644,342,qs),
(644,227,o),
(615,190,qs),
(549,105,o),
(445,105,qs),
(415,105,l),
(403,107,l),
(353,107,o),
(290,188,o),
(290,239,qs),
(290,259,ls),
(290,346,o),
(465,463,o),
(596,463,qs),
(613,463,ls),
(645,463,o)
);
},
{
closed = 1;
nodes = (
(197,685,qs),
(256,685,o),
(399,864,o),
(553,864,o),
(645,772,o),
(645,600,o),
(601,572,qs),
(579,558,o),
(494,542,qs),
(260,498,o),
(80,340,o),
(80,236,qs),
(80,211,ls),
(80,114,o),
(220,-22,o),
(343,-22,qs),
(425,-22,o),
(643,79,o),
(651,79,o),
(712,22,qs),
(746,-10,o),
(885,-10,o),
(957,28,qs),
(993,47,o),
(993,83,qs),
(993,100,o),
(882,138,o),
(857,218,o),
(857,683,o),
(855,702,qs),
(834,890,o),
(688,948,qs),
(616,977,o),
(496,977,qs),
(492,977,o),
(488,977,qs),
(362,977,o),
(127,860,o),
(127,786,qs),
(127,685,o)
);
}
);
width = 1064;
},
{
background = {
shapes = (
{
closed = 1;
nodes = (
(645,408,qs),
(645,384,l),
(644,360,ls),
(644,351,o),
(644,342,qs),
(644,227,o),
(615,190,qs),
(549,105,o),
(445,105,qs),
(415,105,l),
(403,107,l),
(353,107,o),
(290,188,o),
(290,239,qs),
(290,259,ls),
(290,346,o),
(465,463,o),
(596,463,qs),
(613,463,ls),
(645,463,o)
);
},
{
closed = 1;
nodes = (
(197,685,qs),
(256,685,o),
(399,864,o),
(553,864,o),
(645,772,o),
(645,600,o),
(601,572,qs),
(579,558,o),
(494,542,qs),
(260,498,o),
(80,340,o),
(80,236,qs),
(80,211,ls),
(80,114,o),
(220,-22,o),
(343,-22,qs),
(425,-22,o),
(643,79,o),
(651,79,o),
(712,22,qs),
(746,-10,o),
(885,-10,o),
(957,28,qs),
(993,47,o),
(993,83,qs),
(993,100,o),
(882,138,o),
(857,218,o),
(857,683,o),
(855,702,qs),
(834,890,o),
(688,948,qs),
(616,977,o),
(496,977,qs),
(492,977,o),
(488,977,qs),
(362,977,o),
(127,860,o),
(127,786,qs),
(127,685,o)
);
}
);
};
layerId = "9BE5C8F1-5E5D-4A4F-AAC2-5BCBDB5A5B12";
shapes = (
{
closed = 1;
nodes = (
(493,284,qs),
(493,284,l),
(493,284,ls),
(493,284,o),
(493,284,qs),
(493,284,o),
(493,284,qs),
(493,284,o),
(492,284,qs),
(492,284,l),
(492,284,l),
(492,284,o),
(492,284,o),
(492,284,qs),
(492,284,ls),
(492,284,o),
(492,284,o),
(493,284,qs),
(493,284,ls),
(493,284,o)
);
},
{
closed = 1;
nodes = (
(123,778,qs),
(115,728,o),
(114,684,o),
(114,648,o),
(115,620,o),
(115,590,o),
(115,572,qs),
(116,533,o),
(116,440,qs),
(115,386,o),
(116,419,o),
(116,236,qs),
(116,211,ls),
(116,114,o),
(251,-22,o),
(371,-22,qs),
(452,-22,o),
(566,6,o),
(645,-2,o),
(665,-8,q),
(719,-17,o),
(803,-15,o),
(835,16,q),
(857,35,o),
(856,83,qs),
(857,100,o),
(857,138,o),
(858,218,o),
(858,683,o),
(856,702,qs),
(835,890,o),
(708,948,qs),
(636,979,o),
(520,977,qs),
(517,977,o),
(512,977,qs),
(388,977,o),
(211,920,o),
(162,864,qs),
(132,833,o)
);
}
);
width = 1064;
}
);
note = uni0061;
unicode = 97;
},
{
glyphname = b;
lastChange = "2024-03-01 23:10:32 +0000";
layers = (
{
layerId = m01;
shapes = (
{
closed = 1;
nodes = (
(838,654,o),
(838,507,qs),
(838,436,l),
(836,413,l),
(836,285,o),
(706,84,o),
(600,84,qs),
(579,84,ls),
(469,84,o),
(379,197,o),
(379,345,qs),
(379,504,ls),
(379,707,o),
(434,793,o),
(535,852,o),
(588,852,qs),
(617,852,ls),
(710,852,o)
);
},
{
closed = 1;
nodes = (
(235,18,q),
(317,25,l),
(396,25,o),
(556,-13,o),
(595,-13,qs),
(619,-13,ls),
(712,-13,o),
(800,26,qs),
(964,99,o),
(1033,279,qs),
(1068,371,o),
(1068,469,qs),
(1068,495,ls),
(1068,698,o),
(851,950,o),
(686,950,qs),
(600,950,o),
(442,886,o),
(419,886,qs),
(382,886,o),
(382,1350,o),
(372,1389,qs),
(355,1457,o),
(295,1457,qs),
(146,1457,o),
(74,1422,qs),
(45,1408,o),
(45,1387,qs),
(45,1359,o),
(172,1299,o),
(172,1180,qs),
(172,1122,o),
(173,1097,qs),
(174,1073,l),
(174,1024,l),
(175,975,l),
(175,775,l),
(174,726,l),
(174,438,ls),
(174,310,o),
(151,130,o),
(151,119,qs),
(151,18,o)
);
}
);
width = 1163;
},
{
background = {
shapes = (
{
closed = 1;
nodes = (
(838,654,o),
(838,507,qs),
(838,436,l),
(836,413,l),
(836,285,o),
(706,84,o),
(600,84,qs),
(579,84,ls),
(469,84,o),
(379,197,o),
(379,345,qs),
(379,504,ls),
(379,707,o),
(434,793,o),
(535,852,o),
(588,852,qs),
(617,852,ls),
(710,852,o)
);
},
{
closed = 1;
nodes = (
(235,18,q),
(317,25,l),
(396,25,o),
(556,-13,o),
(595,-13,qs),
(619,-13,ls),
(712,-13,o),
(800,26,qs),
(964,99,o),
(1033,279,qs),
(1068,371,o),
(1068,469,qs),
(1068,495,ls),
(1068,698,o),
(851,950,o),
(686,950,qs),
(600,950,o),
(442,886,o),
(419,886,qs),
(382,886,o),
(382,1350,o),
(372,1389,qs),
(355,1457,o),
(295,1457,qs),
(146,1457,o),
(74,1422,qs),
(45,1408,o),
(45,1387,qs),
(45,1359,o),
(172,1299,o),
(172,1180,qs),
(172,1122,o),
(173,1097,qs),
(174,1073,l),
(174,1024,l),
(175,975,l),
(175,775,l),
(174,726,l),
(174,438,ls),
(174,310,o),
(151,130,o),
(151,119,qs),
(151,18,o)
);
}
);
};
layerId = "9BE5C8F1-5E5D-4A4F-AAC2-5BCBDB5A5B12";
shapes = (
{
closed = 1;
nodes = (
(609,468,o),
(609,468,qs),
(609,468,l),
(609,468,l),
(609,468,o),
(609,468,o),
(609,468,qs),
(609,468,ls),
(609,468,o),
(609,468,o),
(609,468,qs),
(609,468,ls),
(609,468,o),
(609,468,o),
(609,468,o),
(609,468,qs),
(609,468,ls),
(609,468,o)
);
},
{
closed = 1;
nodes = (
(265,14,q),
(317,14,l),
(396,14,o),
(556,9,o),
(595,9,qs),
(619,9,ls),
(712,9,o),
(800,26,qs),
(969,62,o),
(1033,279,qs),
(1061,373,o),
(1068,469,qs),
(1068,495,ls),
(1068,698,o),
(1054,1452,o),
(876,1448,qs),
(790,1446,o),
(632,1448,o),
(609,1448,qs),
(572,1448,o),
(526,1448,o),
(457,1448,qs),
(383,1450,o),
(295,1457,qs),
(252,1458,o),
(204,1440,qs),
(176,1429,o),
(175,1387,qs),
(175,1359,o),
(172,1299,o),
(172,1180,qs),
(172,1122,o),
(173,1097,qs),
(174,1073,l),
(174,1024,l),
(175,975,l),
(175,775,l),
(174,726,l),
(174,438,ls),
(174,310,o),
(181,130,o),
(181,119,qs),
(181,18,o)
);
}
);
width = 1163;
}
);
note = uni0062;
unicode = 98;
},
{
glyphname = c;
lastChange = "2024-03-01 20:27:31 +0000";
layers = (
{
layerId = m01;
shapes = (
{
closed = 1;
nodes = (
(893,739,o),
(893,798,qs),
(893,887,o),
(817,925,qs),
(723,972,o),
(588,972,qs),
(565,972,ls),
(467,972,o),
(368,932,qs),
(197,862,o),
(120,680,qs),
(81,587,o),
(81,500,qs),
(81,498,o),
(81,496,qs),
(81,493,o),
(81,491,qs),
(81,442,ls),
(81,343,o),
(153,170,o),
(206,115,qs),
(336,-19,o),
(550,-19,qs),
(660,-19,o),
(894,95,o),
(894,153,qs),
(894,191,o),
(865,191,qs),
(848,191,o),
(765,150,o),
(668,114,o),
(596,114,qs),
(465,114,o),
(302,313,o),
(302,667,o),
(434,860,o),
(629,860,o),
(778,686,o),
(820,686,qs),
(846,686,o)
);
}
);
width = 979;
},
{
background = {
shapes = (
{
closed = 1;
nodes = (
(893,739,o),
(893,798,qs),
(893,887,o),
(817,925,qs),
(723,972,o),
(588,972,qs),
(565,972,ls),
(467,972,o),
(368,932,qs),
(197,862,o),
(120,680,qs),
(81,587,o),
(81,500,qs),
(81,498,o),
(81,496,qs),
(81,493,o),
(81,491,qs),
(81,442,ls),
(81,343,o),
(153,170,o),
(206,115,qs),
(336,-19,o),
(550,-19,qs),
(660,-19,o),
(894,95,o),
(894,153,qs),
(894,191,o),
(865,191,qs),
(848,191,o),
(765,150,o),
(668,114,o),
(596,114,qs),
(465,114,o),
(302,313,o),
(302,667,o),
(434,860,o),
(629,860,o),
(778,686,o),
(820,686,qs),
(846,686,o)
);
}
);
};
layerId = "9BE5C8F1-5E5D-4A4F-AAC2-5BCBDB5A5B12";
shapes = (
{
closed = 1;
nodes = (
(892,627,o),
(891,695,qs),
(890,729,o),
(890,774,qs),
(889,934,o),
(735,956,qs),
(666,966,ls),
(538,984,o),
(420,943,qs),
(217,879,o),
(131,680,qs),
(95,586,o),
(91,500,qs),
(91,498,o),
(91,496,qs),
(91,493,o),
(91,491,qs),
(91,442,ls),
(91,343,o),
(159,184,o),
(213,129,qs),
(366,-40,o),
(652,-8,qs),
(744,0,o),
(880,119,o),
(891,234,q),
(891,256,o),
(891,321,q),
(891,342,o),
(891,377,o),
(891,377,o),
(891,377,q),
(891,395,o),
(891,434,o),
(891,446,o),
(891,465,o),
(891,492,o),
(891,489,o),
(891,538,qs),
(891,577,o)
);
}
);
width = 979;
}
);
note = uni0063;
unicode = 99;
},
{
glyphname = d;
lastChange = "2024-03-01 23:15:48 +0000";
layers = (
{
layerId = m01;
shapes = (
{
closed = 1;
nodes = (
(752,654,qs),
(752,633,l),
(753,623,l),
(753,570,l),
(754,559,l),
(754,528,l),
(753,496,ls),
(753,448,o),
(753,400,qs),
(751,348,l),
(751,327,l),
(749,306,l),
(749,216,o),
(641,100,o),
(556,100,qs),
(527,100,ls),
(430,100,o),
(295,296,o),
(295,446,qs),
(295,505,ls),
(295,656,o),
(361,758,qs),
(394,809,o),
(496,863,o),
(541,863,qs),
(560,863,ls),
(646,863,o),
(750,766,o),
(750,685,qs),
(750,674,o)
);
},
{
closed = 1;
nodes = (
(706,946,q),
(575,958,l),
(347,958,o),
(88,674,o),
(88,448,qs),
(88,336,o),
(120,242,qs),
(174,85,o),
(307,17,qs),
(379,-20,o),
(549,-20,o),
(664,27,o),
(746,73,o),
(755,73,o),
(808,20,qs),
(835,-7,o),
(880,-7,qs),
(1009,-7,o),
(1066,24,qs),
(1094,39,o),
(1094,76,o),
(1029,125,o),
(1023,131,qs),
(993,161,o),
(977,268,o),
(977,1365,o),
(974,1388,qs),
(964,1463,o),
(894,1463,qs),
(870,1463,ls),
(730,1463,o),
(668,1427,qs),
(645,1414,o),
(645,1380,o),
(730,1313,o),
(764,1210,o),
(764,990,o),
(746,946,o)
);
}
);
width = 1187;
},
{
background = {
shapes = (
{
closed = 1;
nodes = (
(752,654,qs),
(752,633,l),
(753,623,l),
(753,570,l),
(754,559,l),
(754,528,l),
(753,496,ls),
(753,448,o),
(753,400,qs),
(751,348,l),
(751,327,l),
(749,306,l),
(749,216,o),
(641,100,o),
(556,100,qs),
(527,100,ls),
(430,100,o),
(295,296,o),
(295,446,qs),
(295,505,ls),
(295,656,o),
(361,758,qs),
(394,809,o),
(496,863,o),
(541,863,qs),
(560,863,ls),
(646,863,o),
(750,766,o),
(750,685,qs),
(750,674,o)
);
},
{
closed = 1;
nodes = (
(706,946,q),
(575,958,l),
(347,958,o),
(88,674,o),
(88,448,qs),
(88,336,o),
(120,242,qs),
(174,85,o),
(307,17,qs),
(379,-20,o),
(549,-20,o),
(664,27,o),
(746,73,o),
(755,73,o),
(808,20,qs),
(835,-7,o),
(880,-7,qs),
(1009,-7,o),
(1066,24,qs),
(1094,39,o),
(1094,76,o),
(1029,125,o),
(1023,131,qs),
(993,161,o),
(977,268,o),
(977,1365,o),
(974,1388,qs),
(964,1463,o),
(894,1463,qs),
(870,1463,ls),
(730,1463,o),
(668,1427,qs),
(645,1414,o),
(645,1380,o),
(730,1313,o),
(764,1210,o),
(764,990,o),
(746,946,o)
);
}
);
};
layerId = "9BE5C8F1-5E5D-4A4F-AAC2-5BCBDB5A5B12";
shapes = (
{
closed = 1;
nodes = (
(524,481,qs),
(524,481,l),
(524,481,l),
(524,481,l),
(524,481,l),
(524,481,l),
(524,481,ls),
(524,482,o),
(524,482,qs),
(524,482,l),
(524,482,l),
(524,482,l),
(524,483,o),
(524,483,o),
(525,483,qs),
(525,483,ls),
(525,483,o),
(526,482,o),
(526,482,qs),
(526,481,ls),
(526,481,o),
(526,480,qs),
(526,480,o),
(525,480,o),
(525,480,qs),
(525,480,ls),
(524,480,o),
(524,480,o),
(524,481,qs),
(524,481,o)
);
},
{
closed = 1;
nodes = (
(453,1461,q),
(332,1460,l),
(104,1450,o),
(88,674,o),
(88,448,qs),
(88,336,o),
(120,242,qs),
(174,85,o),
(307,17,qs),
(379,-20,o),
(549,-20,o),
(657,8,o),
(705,14,o),
(742,9,o),
(796,3,qs),
(833,-1,o),
(880,0,qs),
(929,1,o),
(959,35,qs),
(990,77,o),
(979,337,o),
(979,383,o),
(979,391,qs),
(979,509,o),
(979,638,o),
(977,1365,o),
(974,1388,qs),
(961,1461,o),
(891,1461,qs),
(867,1461,ls),
(796,1461,o),
(744,1461,qs),
(721,1461,o),
(698,1461,o),
(626,1461,o),
(566,1461,o),
(536,1461,o),
(493,1461,o)
);
}
);
width = 1187;
}
);
note = uni0064;
unicode = 100;
},
{
glyphname = e;
lastChange = "2024-03-01 20:27:55 +0000";
layers = (
{
layerId = m01;
shapes = (
{
closed = 1;
nodes = (
(622,580,qs),
(586,580,l),
(428,580,l),
(386,580,l),
(380,580,l),
(357,580,ls),
(356,580,o),
(341,580,qs),
(303,580,o),
(303,608,qs),
(303,621,ls),
(303,712,o),
(428,872,o),
(498,872,qs),
(503,872,o),
(517,874,q),
(536,874,ls),
(613,874,o),
(719,755,o),
(719,681,qs),
(719,650,ls),
(719,580,o)
);
},
{
closed = 1;
nodes = (
(371,471,qs),
(389,476,o),
(813,506,o),
(927,553,o),
(927,622,qs),
(927,642,ls),
(927,698,o),
(899,765,qs),
(809,977,o),
(537,977,qs),
(357,976,o),
(226,850,qs),
(164,790,o),
(119,697,qs),
(75,604,o),
(75,508,qs),
(75,485,l),
(74,462,ls),
(69,351,o),
(148,158,o),
(215,96,qs),
(339,-18,o),
(527,-18,qs),
(549,-18,ls),
(659,-18,o),
(755,25,qs),
(903,91,o),
(903,149,qs),
(903,192,o),
(863,192,qs),
(850,192,o),
(747,148,o),
(660,117,o),
(607,117,qs),
(475,117,o),
(303,271,o),
(303,385,qs),
(303,454,o)
);
}
);
width = 1022;
},
{
background = {
shapes = (
{
closed = 1;
nodes = (
(622,588,q),
(586,584,l),
(393,573,l),
(386,572,l),
(380,572,l),
(357,573,ls),
(356,573,o),
(341,576,q),
(303,576,o),
(303,608,qs),
(303,621,ls),
(303,712,o),
(428,872,o),
(498,872,qs),
(503,872,o),
(517,874,q),
(536,874,ls),
(613,874,o),
(719,755,o),
(719,681,qs),
(719,650,ls),
(719,588,o)
);
},
{
closed = 1;
nodes = (
(371,471,qs),
(389,476,o),
(813,506,o),
(927,553,o),
(927,622,qs),
(927,642,ls),
(927,698,o),
(899,765,qs),
(809,977,o),
(537,977,qs),
(357,976,o),
(226,850,qs),
(164,790,o),
(119,697,qs),
(75,604,o),
(75,508,qs),
(75,485,l),
(74,462,ls),
(74,351,o),
(148,158,o),
(215,96,qs),
(339,-18,o),
(527,-18,qs),
(549,-18,ls),
(659,-18,o),
(755,25,qs),
(903,91,o),
(903,149,qs),
(903,192,o),
(863,192,qs),
(850,192,o),
(747,148,o),
(660,117,o),
(607,117,qs),
(475,117,o),
(303,271,o),
(303,385,qs),
(303,454,o)
);
}
);
};
layerId = "9BE5C8F1-5E5D-4A4F-AAC2-5BCBDB5A5B12";
shapes = (
{
closed = 1;
nodes = (
(518,736,q),
(518,736,l),
(518,736,l),
(518,736,l),
(518,736,l),
(518,736,ls),
(518,736,o),
(518,736,qs),
(518,736,o),
(518,736,qs),
(518,736,ls),
(518,736,o),
(518,736,o),
(518,736,qs),
(518,736,o),
(518,736,q),
(518,736,ls),
(518,736,o),
(518,736,o),
(518,736,qs),
(518,736,ls),
(518,736,o)
);
},
{
closed = 1;
nodes = (
(911,544,qs),
(910,524,o),
(911,506,o),
(911,562,o),
(911,611,q),
(911,666,ls),
(911,736,o),
(881,792,qs),
(808,936,o),
(589,973,qs),
(410,1004,o),
(241,865,qs),
(167,809,o),
(121,709,qs),
(79,614,o),
(72,517,q),
(71,486,l),
(72,446,ls),
(75,333,o),
(155,161,o),
(229,98,q),
(368,-18,o),
(535,-18,q),
(586,-18,ls),
(712,-18,o),
(813,55,qs),
(859,97,o),
(881,142,qs),
(902,192,o),
(905,217,qs),
(910,265,o),
(910,306,o),
(911,327,o),
(911,351,qs),
(911,383,o),
(911,420,o),
(911,454,qs),
(911,587,o)
);
}
);
width = 1022;
}
);
note = uni0065;
unicode = 101;
},
{
glyphname = f;
lastChange = "2024-03-01 20:30:05 +0000";
layers = (
{
layerId = m01;
shapes = (
{
closed = 1;
nodes = (
(582,16,qs),
(582,37,o),
(474,115,o),
(437,219,o),
(437,732,o),
(469,779,qs),
(488,807,o),
(646,854,o),
(646,877,qs),
(646,907,o),
(492,986,o),
(480,999,qs),
(446,1037,o),
(446,1201,o),
(505,1338,o),
(560,1338,qs),
(594,1338,o),
(727,1266,o),
(786,1266,o),
(839,1314,o),
(839,1414,o),
(731,1477,o),
(641,1477,qs),
(455,1477,o),
(352,1364,qs),
(271,1276,o),
(225,1082,qs),
(207,1004,o),
(118,893,o),
(118,850,o),
(196,797,o),
(225,727,o),
(225,219,o),
(194,110,o),
(95,48,o),
(95,22,qs),
(95,-23,o),
(388,-23,qs),
(443,-23,ls),
(582,-23,o)
);
}
);
width = 749;
},
{
background = {
shapes = (
{
closed = 1;
nodes = (
(582,16,qs),
(582,37,o),
(474,115,o),
(437,219,o),
(437,732,o),
(469,779,qs),
(488,807,o),
(646,854,o),
(646,877,qs),
(646,907,o),
(492,986,o),
(480,999,qs),
(446,1037,o),
(446,1201,o),
(505,1338,o),
(560,1338,qs),
(594,1338,o),
(727,1266,o),
(786,1266,o),
(839,1314,o),
(839,1414,o),
(731,1477,o),
(641,1477,qs),
(455,1477,o),
(352,1364,qs),
(271,1276,o),
(225,1082,qs),
(207,1004,o),
(118,893,o),
(118,850,o),
(196,797,o),
(225,727,o),
(225,219,o),
(194,110,o),
(95,48,o),
(95,22,qs),
(95,-23,o),
(388,-23,qs),
(443,-23,ls),
(582,-23,o)
);
}
);
};
layerId = "9BE5C8F1-5E5D-4A4F-AAC2-5BCBDB5A5B12";
shapes = (
{
closed = 1;
nodes = (
(455,197,qs),
(456,262,o),
(455,434,o),
(455,463,o),
(455,449,o),
(455,537,qs),
(455,560,o),
(455,683,o),
(455,706,qs),
(455,720,o),
(455,773,o),
(455,786,qs),
(455,806,o),
(455,888,o),
(455,881,o),
(455,881,qs),
(455,904,o),
(455,955,o),
(455,1103,o),
(455,1159,o),
(505,1365,o),
(432,1456,o),
(393,1456,qs),
(231,1456,o),
(214,1334,qs),
(214,1217,o),
(214,1082,qs),
(214,1002,o),
(214,893,o),
(214,850,o),
(214,797,o),
(214,727,o),
(214,381,o),
(214,330,o),
(214,213,o),
(214,125,qs),
(214,-23,o),
(356,-23,qs),
(359,-23,ls),
(452,-23,o)
);
}
);
width = 749;
}
);
note = uni0066;
unicode = 102;
},
{
glyphname = g;
lastChange = "2024-03-08 20:14:38 +0000";
layers = (
{
layerId = m01;
shapes = (
{
closed = 1;
nodes = (
(674,773,o),
(674,678,qs),
(674,663,o),
(677,639,q),
(677,600,ls),
(677,511,o),
(579,403,o),
(510,403,qs),
(503,403,ls),
(414,403,o),
(324,531,o),
(324,635,q),
(323,643,l),
(323,669,l),
(324,694,l),
(326,710,l),
(326,791,o),
(426,913,o),
(479,913,qs),
(505,913,ls),
(569,913,o)
);
},
{
closed = 1;
nodes = (
(506,21,l),
(566,17,l),
(583,17,l),
(617,14,ls),
(635,14,o),
(675,9,q),
(739,9,o),
(833,-60,o),
(833,-117,q),
(834,-125,l),
(834,-211,o),
(664,-339,o),
(524,-339,qs),
(498,-339,ls),
(382,-339,o),
(248,-241,o),
(248,-156,qs),
(248,-148,ls),
(248,-74,o),
(346,24,o),
(416,24,qs),
(465,24,l)
);
},
{
closed = 1;
nodes = (
(926,970,q),
(820,963,l),
(793,963,o),
(767,964,qs),
(716,966,l),
(577,975,l),
(548,975,ls),
(262,975,o),
(157,784,qs),
(120,717,o),
(120,545,o),
(240,354,o),
(240,340,o),
(143,221,o),
(143,119,o),
(217,25,o),
(217,13,o),
(132,-81,qs),
(79,-140,o),
(79,-229,qs),
(79,-279,o),
(142,-372,o),
(193,-401,qs),
(304,-465,o),
(471,-465,qs),
(708,-465,o),
(1001,-259,o),
(1001,-95,qs),
(1001,30,o),
(868,96,qs),
(805,128,o),
(617,143,qs),
(429,159,o),
(418,162,qs),
(341,181,o),
(341,275,o),
(393,295,qs),
(417,304,o),
(504,310,qs),
(775,327,o),
(870,504,qs),
(904,568,o),
(904,688,o),
(899,721,qs),
(894,747,l),
(890,771,l),
(887,792,l),
(887,836,o),
(1031,867,o),
(1031,924,qs),
(1031,970,o)
);
}
);
width = 1097;
},
{
background = {
shapes = (
{
closed = 1;
nodes = (
(674,773,o),
(674,678,qs),
(674,663,o),
(677,639,q),
(677,600,ls),
(677,511,o),
(579,403,o),
(510,403,qs),
(503,403,ls),
(414,403,o),
(324,531,o),
(324,635,q),
(323,643,l),
(323,669,l),
(324,694,l),
(326,710,l),
(326,791,o),
(426,913,o),
(479,913,qs),
(505,913,ls),
(569,913,o)
);
},
{
closed = 1;
nodes = (
(506,21,l),
(566,17,l),
(583,17,l),
(617,14,ls),
(635,14,o),
(675,9,q),
(739,9,o),
(833,-60,o),
(833,-117,q),
(834,-125,l),
(834,-211,o),
(664,-339,o),
(524,-339,qs),
(498,-339,ls),
(382,-339,o),
(248,-241,o),
(248,-156,qs),
(248,-148,ls),
(248,-74,o),
(346,24,o),
(416,24,qs),
(465,24,l)
);
},
{
closed = 1;
nodes = (
(926,970,q),
(820,963,l),
(793,963,o),
(767,964,qs),
(716,966,l),
(577,975,l),
(548,975,ls),
(262,975,o),
(157,784,qs),
(120,717,o),
(120,545,o),
(240,354,o),
(240,340,o),
(143,221,o),
(143,119,o),
(217,25,o),
(217,13,o),
(132,-81,qs),
(79,-140,o),
(79,-229,qs),
(79,-279,o),
(142,-372,o),
(193,-401,qs),
(304,-465,o),
(471,-465,qs),
(708,-465,o),
(1001,-259,o),
(1001,-95,qs),
(1001,30,o),
(868,96,qs),
(805,128,o),
(617,143,qs),
(429,159,o),
(418,162,qs),
(341,181,o),
(341,275,o),
(393,295,qs),
(417,304,o),
(504,310,qs),
(775,327,o),
(870,504,qs),
(904,568,o),
(904,688,o),
(899,721,qs),
(894,747,l),
(890,771,l),
(887,792,l),
(887,836,o),
(1031,867,o),
(1031,924,qs),
(1031,970,o)
);
}
);
};
layerId = "9BE5C8F1-5E5D-4A4F-AAC2-5BCBDB5A5B12";
shapes = (
{
closed = 1;
nodes = (
(496,658,o),
(496,658,qs),
(496,658,o),
(496,658,q),
(496,658,ls),
(496,658,o),
(496,658,o),
(496,658,qs),
(496,658,ls),
(496,658,o),
(496,658,o),
(496,658,q),
(496,658,l),
(496,658,l),
(496,658,l),
(496,658,l),
(496,658,o),
(496,658,o),
(496,658,qs),
(496,658,ls),
(496,658,o)
);
},
{
closed = 1;
nodes = (
(537,-107,l),
(537,-107,l),
(537,-107,l),
(537,-107,ls),
(537,-107,o),
(537,-107,q),
(537,-107,o),
(537,-107,o),
(537,-107,q),
(537,-107,l),
(537,-108,o),
(537,-108,o),
(537,-108,qs),
(537,-108,ls),
(537,-108,o),
(537,-108,o),
(537,-107,qs),
(537,-107,ls),
(537,-107,o),
(537,-107,o),
(537,-107,qs),
(537,-107,l)
);
},
{
closed = 1;
nodes = (
(829,966,qs),
(808,966,ls),
(765,966,o),
(727,968,q),
(672,969,l),
(579,973,l),
(524,973,ls),
(261,973,o),
(154,784,qs),
(115,715,o),
(115,545,o),
(115,383,o),
(115,353,o),
(115,325,o),
(114,161,o),
(114,114,o),
(114,-24,o),
(114,-72,q),
(114,-130,o),
(114,-189,qs),
(112,-241,o),
(151,-339,o),
(192,-376,qs),
(276,-455,o),
(443,-462,qs),
(672,-472,o),
(874,-350,o),
(884,-266,q),
(894,-185,o),
(895,-48,qs),
(895,-9,o),
(893,72,q),
(893,102,o),
(893,193,qs),
(893,211,o),
(893,237,o),
(893,270,qs),
(893,292,o),
(893,343,qs),
(893,372,o),
(893,435,qs),
(893,518,o),
(893,597,o),
(893,629,qs),
(893,698,l),
(893,734,l),
(893,792,ls),
(893,837,o),
(893,868,o),
(890,909,qs),
(886,966,o)
);
}
);
width = 1097;
}
);
note = uni0067;
unicode = 103;
},
{
glyphname = h;
lastChange = "2024-03-01 20:52:41 +0000";
layers = (
{
layerId = m01;
shapes = (
{
closed = 1;
nodes = (
(507,3,o),
(507,39,qs),
(507,50,o),
(440,145,o),
(420,262,o),
(420,689,o),
(471,749,qs),
(540,831,o),
(655,831,q),
(739,811,o),
(808,721,q),
(828,665,o),
(828,233,o),
(812,131,o),
(760,50,o),
(760,40,qs),
(760,-4,o),
(869,-4,qs),
(904,-4,ls),
(1070,-4,o),
(1151,18,o),
(1151,49,qs),
(1151,59,o),
(1058,135,o),
(1037,206,o),
(1037,351,qs),
(1037,727,o),
(990,823,qs),
(919,964,o),
(743,964,qs),
(649,964,o),
(510,902,qs),
(464,882,o),
(459,881,q),
(413,881,o),
(413,1012,qs),
(413,1049,o),
(413,1086,qs),
(415,1160,ls),
(415,1197,o),
(416,1234,qs),
(417,1271,ls),
(417,1397,o),
(378,1471,o),
(332,1471,qs),
(299,1471,ls),
(200,1471,o),
(126,1442,qs),
(87,1427,o),
(87,1390,qs),
(87,1387,o),
(145,1346,qs),
(177,1324,o),
(187,1277,qs),
(208,1180,o),
(208,264,o),
(187,168,o),
(101,73,o),
(101,55,qs),
(101,3,o)
);
}
);
width = 1231;
},
{
background = {
shapes = (
{
closed = 1;
nodes = (
(507,3,o),
(507,39,qs),
(507,50,o),
(440,145,o),
(420,262,o),
(420,689,o),
(471,749,qs),
(540,831,o),
(655,831,q),
(739,811,o),
(808,721,q),
(828,665,o),
(828,233,o),
(812,131,o),
(760,50,o),
(760,40,qs),
(760,-4,o),
(869,-4,qs),
(904,-4,ls),
(1070,-4,o),
(1151,18,o),
(1151,49,qs),
(1151,59,o),
(1058,135,o),
(1037,206,o),
(1037,351,qs),
(1037,727,o),
(990,823,qs),
(919,964,o),
(743,964,qs),
(649,964,o),
(510,902,qs),
(464,882,o),
(459,881,q),
(413,881,o),
(413,1012,qs),
(413,1049,o),
(413,1086,qs),
(415,1160,ls),
(415,1197,o),
(416,1234,qs),
(417,1271,ls),
(417,1397,o),
(378,1471,o),
(332,1471,qs),
(299,1471,ls),
(200,1471,o),
(126,1442,qs),
(87,1427,o),
(87,1390,qs),
(87,1387,o),
(145,1346,qs),
(177,1324,o),
(187,1277,qs),
(208,1180,o),
(208,264,o),
(187,168,o),
(101,73,o),
(101,55,qs),
(101,3,o)
);
}
);
};
layerId = "9BE5C8F1-5E5D-4A4F-AAC2-5BCBDB5A5B12";
shapes = (
{
closed = 1;
nodes = (
(368,0,o),
(428,0,qs),
(455,0,o),
(499,0,o),
(541,1,o),
(555,0,o),
(584,0,qs),
(811,0,o),
(629,0,q),
(686,0,o),
(716,0,q),
(716,0,o),
(757,0,o),
(803,0,o),
(803,0,o),
(847,0,qs),
(868,0,o),
(890,0,qs),
(924,0,ls),
(995,0,o),
(1034,28,o),
(1034,59,qs),
(1034,89,o),
(1035,135,o),
(1034,206,o),
(1034,351,qs),
(1024,847,o),
(1020,953,qs),
(1011,1218,o),
(757,1218,qs),
(673,1218,o),
(591,1192,q),
(558,1175,o),
(526,1175,qs),
(492,1175,o),
(491,1200,qs),
(491,1212,o),
(491,1243,qs),
(491,1257,ls),
(491,1272,o),
(491,1294,qs),
(491,1331,ls),
(491,1415,o),
(384,1474,o),
(338,1471,qs),
(306,1469,ls),
(281,1467,o),
(233,1453,qs),
(201,1444,o),
(204,1397,qs),
(205,1368,o),
(205,1354,qs),
(205,1333,o),
(205,1285,qs),
(205,1090,o),
(203,264,o),
(203,168,o),
(205,77,o),
(205,59,qs),
(205,7,o)
);
}
);
width = 1231;
}
);
note = uni0068;
unicode = 104;
},
{
glyphname = i;
lastChange = "2024-03-01 23:05:49 +0000";
layers = (
{
layerId = m01;
shapes = (
{
closed = 1;
nodes = (
(455,1315,l),
(455,1349,o),
(388,1416,o),
(357,1416,q),
(323,1420,l),
(318,1420,ls),
(264,1420,o),
(181,1349,o),
(181,1297,qs),
(181,1279,ls),
(181,1227,o),
(260,1161,o),
(310,1161,q),
(332,1163,ls),
(337,1163,o),
(345,1165,q),
(382,1165,o),
(457,1240,o),
(457,1284,qs),
(457,1306,l)
);
},
{
closed = 1;
nodes = (
(222,734,o),
(222,497,qs),
(221,466,l),
(221,435,l),
(220,388,l),
(220,357,l),
(219,325,ls),
(219,189,o),
(200,152,qs),
(183,118,o),
(94,62,o),
(94,32,qs),
(94,-4,o),
(167,-4,qs),
(289,-4,l),
(319,-3,ls),
(567,-3,o),
(567,35,qs),
(567,62,o),
(461,115,o),
(433,214,o),
(433,887,o),
(429,914,qs),
(422,964,o),
(368,964,qs),
(339,964,ls),
(181,964,o),
(108,920,qs),
(87,907,o),
(87,863,o),
(191,813,o)
);
}
);
width = 642;
},
{
background = {
shapes = (
{
closed = 1;
nodes = (
(455,1315,l),
(455,1349,o),
(388,1416,o),
(357,1416,q),
(323,1420,l),
(318,1420,ls),
(264,1420,o),
(181,1349,o),
(181,1297,qs),
(181,1279,ls),
(181,1227,o),
(260,1161,o),
(310,1161,q),
(332,1163,ls),
(337,1163,o),
(345,1165,q),
(382,1165,o),
(457,1240,o),
(457,1284,qs),
(457,1306,l)
);
},
{
closed = 1;
nodes = (
(222,734,o),
(222,497,qs),
(221,466,l),
(221,435,l),
(220,388,l),
(220,357,l),
(219,325,ls),
(219,189,o),
(200,152,qs),
(183,118,o),
(94,62,o),
(94,32,qs),
(94,-4,o),
(167,-4,qs),
(289,-4,l),
(319,-3,ls),
(567,-3,o),
(567,35,qs),
(567,62,o),
(461,115,o),
(433,214,o),
(433,887,o),
(429,914,qs),
(422,964,o),
(368,964,qs),
(339,964,ls),
(181,964,o),
(108,920,qs),
(87,907,o),
(87,863,o),
(191,813,o)
);
}
);
};
layerId = "9BE5C8F1-5E5D-4A4F-AAC2-5BCBDB5A5B12";
shapes = (
{
closed = 1;
nodes = (
(442,1224,l),
(442,1405,o),
(403,1418,o),
(359,1418,q),
(331,1418,l),
(327,1418,ls),
(257,1418,o),
(212,1393,o),
(212,1190,qs),
(212,1156,ls),
(212,935,o),
(303,937,o),
(320,937,q),
(338,937,ls),
(342,937,o),
(350,937,q),
(374,937,o),
(442,941,o),
(442,1165,qs),
(442,1207,l)
);
},
{
closed = 1;
nodes = (
(222,676,o),
(222,497,qs),
(222,466,l),
(222,435,l),
(222,388,l),
(222,357,l),
(222,325,ls),
(222,208,o),
(216,152,qs),
(213,114,o),
(212,62,o),
(212,32,qs),
(212,-4,o),
(243,-4,qs),
(289,-4,l),
(319,-3,ls),
(434,1,o),
(434,34,qs),
(434,61,o),
(435,115,o),
(433,214,o),
(433,887,o),
(429,914,qs),
(422,964,o),
(368,964,qs),
(339,964,ls),
(251,964,o),
(243,955,qs),
(226,935,o),
(226,882,o),
(226,813,o)
);
}
);
width = 642;
}
);
note = uni0069;
unicode = 105;
},
{
glyphname = j;
lastChange = "2024-03-01 23:18:05 +0000";
layers = (
{
layerId = m01;
shapes = (
{
closed = 1;
nodes = (
(428,971,o),
(367,971,qs),
(196,971,o),
(130,930,qs),
(109,917,o),
(109,892,o),
(178,830,qs),
(210,801,o),
(237,672,o),
(237,-81,o),
(202,-170,qs),
(184,-216,o),
(143,-247,o),
(86,-254,qs),
(-29,-268,o),
(-29,-344,qs),
(-29,-411,o),
(51,-411,qs),
(67,-411,ls),
(161,-411,o),
(346,-298,o),
(390,-203,qs),
(449,-77,o),
(449,391,qs),
(449,724,ls),
(449,887,o)
);
},
{
closed = 1;
nodes = (
(455,1315,l),
(455,1349,o),
(388,1416,o),
(357,1416,q),
(323,1420,l),
(318,1420,ls),
(264,1420,o),
(181,1349,o),
(181,1297,qs),
(181,1279,ls),
(181,1227,o),
(260,1161,o),
(310,1161,q),
(332,1163,ls),
(337,1163,o),
(345,1165,q),
(382,1165,o),
(457,1240,o),
(457,1284,qs),
(457,1306,l)
);
}
);
width = 602;
},
{
background = {
shapes = (
{
closed = 1;
nodes = (
(259,1156,o),
(314,1156,q),
(340,1157,l),
(348,1159,l),
(357,1161,ls),
(392,1169,o),
(466,1234,o),
(466,1281,q),
(466,1300,l),
(466,1353,o),
(386,1420,o),
(346,1420,q),
(325,1420,l),
(266,1420,o),
(199,1326,o),
(199,1287,q),
(199,1278,l),
(199,1228,o)
);
},
{
closed = 1;
nodes = (
(428,971,o),
(367,971,q),
(196,971,o),
(130,930,q),
(109,917,o),
(109,892,o),
(178,830,q),
(210,801,o),
(237,672,o),
(237,-81,o),
(202,-170,q),
(184,-216,o),
(143,-247,o),
(86,-254,q),
(-29,-268,o),
(-29,-344,q),
(-29,-411,o),
(51,-411,q),
(67,-411,l),
(161,-411,o),
(346,-298,o),
(390,-203,q),
(449,-77,o),
(449,391,q),
(449,724,l),
(449,887,o)
);
}
);
};
layerId = "9BE5C8F1-5E5D-4A4F-AAC2-5BCBDB5A5B12";
shapes = (
{
closed = 1;
nodes = (
(428,976,o),
(367,971,qs),
(302,966,o),
(237,955,qs),
(199,949,o),
(108,924,o),
(108,854,qs),
(108,811,o),
(108,751,o),
(108,711,o),
(108,636,qs),
(108,589,o),
(108,492,o),
(108,456,qs),
(108,383,o),
(109,-302,q),
(97,-428,o),
(193,-393,qs),
(215,-385,ls),
(253,-371,o),
(308,-316,o),
(332,-285,qs),
(449,-135,o),
(449,391,qs),
(449,724,ls),
(449,887,o)
);
},
{
closed = 1;
nodes = (
(442,1224,l),
(442,1405,o),
(403,1418,o),
(359,1418,q),
(331,1418,l),
(327,1418,ls),
(257,1418,o),
(212,1393,o),
(212,1190,qs),
(212,1156,ls),
(212,935,o),
(303,937,o),
(320,937,q),
(338,937,ls),
(342,937,o),
(350,937,q),
(428,937,o),
(442,939,o),
(442,1165,qs),
(442,1207,l)
);
}
);
width = 602;
}
);
note = uni006A;
unicode = 106;
},
{
glyphname = k;
lastChange = "2024-03-08 14:38:08 +0000";
layers = (
{
layerId = m01;
shapes = (
{
closed = 1;
nodes = (
(629,299,qs),
(687,217,o),
(712,157,qs),
(752,60,l),
(794,5,o),
(890,5,qs),
(963,5,ls),
(1111,5,o),
(1111,54,qs),
(1111,69,o),
(984,159,o),
(931,221,qs),
(688,505,o),
(688,627,o),
(1042,911,o),
(1042,912,qs),
(1042,953,o),
(851,953,qs),
(767,953,o),
(714,925,o),
(714,891,qs),
(717,855,l),
(717,809,o),
(517,592,o),
(435,592,o),
(424,687,qs),
(423,696,o),
(423,833,qs),
(424,948,ls),
(424,1366,o),
(419,1396,qs),
(405,1477,o),
(348,1477,qs),
(314,1477,ls),
(172,1477,o),
(104,1438,qs),
(80,1424,o),
(80,1387,o),
(109,1366,qs),
(133,1351,l),
(155,1334,l),
(182,1307,o),
(203,1202,o),
(203,913,qs),
(203,758,l),
(202,681,l),
(200,605,ls),
(200,580,o),
(198,529,qs),
(197,491,ls),
(197,266,o),
(166,143,o),
(99,52,o),
(99,43,qs),
(99,9,o),
(501,9,o),
(501,45,qs),
(501,56,o),
(487,81,qs),
(460,127,l),
(431,186,o),
(431,248,qs),
(431,424,o),
(492,424,qs),
(540,424,o)
);
}
);
width = 1170;
},
{
background = {
shapes = (
{
closed = 1;
nodes = (
(629,299,qs),
(687,217,o),
(712,157,qs),
(752,60,l),
(794,5,o),
(890,5,qs),
(963,5,ls),
(1111,5,o),
(1111,54,qs),
(1111,69,o),
(984,159,o),
(931,221,qs),
(688,505,o),
(688,627,o),
(1042,911,o),
(1042,912,qs),
(1042,953,o),
(851,953,qs),
(767,953,o),
(714,925,o),
(714,891,qs),
(717,855,l),
(717,809,o),
(517,592,o),
(435,592,o),
(424,687,qs),
(423,696,o),
(423,833,qs),
(424,948,ls),
(424,1366,o),
(419,1396,qs),
(405,1477,o),
(348,1477,qs),
(314,1477,ls),
(172,1477,o),
(104,1438,qs),
(80,1424,o),
(80,1387,o),
(109,1366,qs),
(133,1351,l),
(155,1334,l),
(182,1307,o),
(203,1202,o),
(203,913,qs),
(203,758,l),
(202,681,l),
(200,605,ls),
(200,580,o),
(198,529,qs),
(197,491,ls),
(197,266,o),
(166,143,o),
(99,52,o),
(99,43,qs),
(99,9,o),
(501,9,o),
(501,45,qs),
(501,56,o),
(487,81,qs),
(460,127,l),
(431,186,o),
(431,248,qs),
(431,424,o),
(492,424,qs),
(540,424,o)
);
}
);
};
layerId = "9BE5C8F1-5E5D-4A4F-AAC2-5BCBDB5A5B12";
shapes = (
{
closed = 1;
nodes = (
(578,5,qs),
(454,5,o),
(719,5,qs),
(753,5,l),
(784,5,o),
(891,5,qs),
(989,5,ls),
(1028,5,o),
(1023,54,qs),
(1022,69,o),
(1021,361,o),
(1021,399,qs),
(1017,629,o),
(1017,668,o),
(1017,798,o),
(1017,872,qs),
(1028,1049,o),
(872,1048,qs),
(792,1048,o),
(738,1048,o),
(705,1048,qs),
(689,1048,ls),
(660,1048,o),
(436,1051,o),
(434,1188,o),
(434,1239,qs),
(434,1264,o),
(434,1319,qs),
(434,1341,ls),
(434,1370,o),
(434,1403,qs),
(436,1461,o),
(351,1469,qs),
(318,1472,ls),
(209,1482,o),
(209,1440,qs),
(209,1414,o),
(209,1403,o),
(209,1369,qs),
(209,1343,l),
(209,1326,l),
(209,1299,o),
(207,1194,o),
(207,913,qs),
(207,758,l),
(207,681,l),
(207,605,ls),
(207,580,o),
(207,529,qs),
(207,491,ls),
(207,266,o),
(205,185,o),
(203,52,o),
(203,43,qs),
(203,2,o),
(274,5,o),
(346,5,qs),
(394,5,o),
(395,5,qs),
(463,5,l),
(541,5,o),
(516,5,qs),
(489,5,o),
(552,5,qs),
(615,5,o)
);
}
);
width = 1170;
}
);
note = uni006B;
unicode = 107;
},
{
glyphname = l;
lastChange = "2024-02-29 23:02:00 +0000";
layers = (
{
layerId = m01;
shapes = (
{
closed = 1;
nodes = (
(169,-1,qs),
(190,-1,l),
(354,2,l),
(395,2,l),
(436,4,ls),
(560,4,o),
(560,39,qs),
(560,63,o),
(484,109,o),
(480,112,qs),
(445,144,o),
(426,285,o),
(426,581,qs),
(426,898,o),
(426,898,q),
(427,939,l),
(427,1002,l),
(428,1043,l),
(428,1258,ls),
(428,1400,o),
(427,1409,qs),
(419,1478,o),
(368,1478,qs),
(348,1478,ls),
(198,1478,o),
(108,1439,qs),
(79,1426,o),
(79,1409,qs),
(79,1397,ls),
(79,1387,o),
(145,1344,qs),
(186,1317,o),
(207,1193,o),
(207,263,o),
(175,122,o),
(84,56,o),
(84,35,qs),
(84,-1,o)
);
}
);
width = 629;
},
{
layerId = "9BE5C8F1-5E5D-4A4F-AAC2-5BCBDB5A5B12";
shapes = (
{
closed = 1;
nodes = (
(229,-1,qs),
(240,-1,l),
(304,-1,l),
(326,-1,l),
(370,-1,ls),
(404,-1,o),
(410,132,qs),
(410,185,o),
(410,288,o),
(410,303,q),
(410,349,o),
(413,446,o),
(413,548,qs),
(413,608,o),
(422,898,q),
(422,939,l),
(422,1002,l),
(422,1043,l),
(426,1258,ls),
(427,1333,o),
(428,1409,qs),
(429,1486,o),
(391,1478,qs),
(352,1470,ls),
(322,1464,o),
(261,1450,qs),
(216,1443,o),
(216,1412,qs),
(216,1366,ls),
(216,1332,o),
(216,1285,qs),
(215,1235,o),
(216,1166,o),
(207,263,o),
(205,122,o),
(204,56,o),
(204,35,qs),
(204,-1,o)
);
}
);
width = 629;
}
);
note = uni006C;
unicode = 108;
},
{
glyphname = m;
lastChange = "2024-03-01 23:04:04 +0000";
layers = (
{
layerId = m01;
shapes = (
{
closed = 1;
nodes = (
(744,90,qs),
(718,62,o),
(718,1,o),
(823,1,qs),
(963,1,ls),
(1138,1,o),
(1138,51,qs),
(1138,62,o),
(1061,130,o),
(1033,201,o),
(1033,659,o),
(1071,750,o),
(1165,824,o),
(1301,824,o),
(1368,761,o),
(1413,644,o),
(1413,184,o),
(1408,135,o),
(1381,55,o),
(1381,50,qs),
(1381,4,o),
(1475,4,qs),
(1671,4,o),
(1719,33,q),
(1738,51,l),
(1738,75,ls),
(1738,81,o),
(1650,153,o),
(1630,204,o),
(1630,362,qs),
(1630,730,o),
(1580,830,qs),
(1512,966,o),
(1348,966,qs),
(1262,966,o),
(1210,944,qs),
(1156,922,o),
(1109,894,qs),
(1072,872,l),
(1038,856,l),
(1016,856,o),
(842,973,o),
(650,973,o),
(557,924,q),
(481,879,l),
(451,865,l),
(434,865,o),
(354,950,o),
(195,950,o),
(120,903,o),
(120,868,o),
(146,835,qs),
(167,808,l),
(210,731,o),
(210,228,o),
(188,164,o),
(128,103,qs),
(108,83,o),
(108,55,q),
(126,36,l),
(172,5,o),
(478,5,o),
(478,42,qs),
(478,56,o),
(462,87,qs),
(449,112,ls),
(438,138,o),
(431,230,o),
(431,625,o),
(471,733,o),
(593,822,o),
(650,822,qs),
(745,822,o),
(815,682,o),
(815,226,o),
(800,149,o)
);
}
);
width = 1814;
},
{
background = {
shapes = (
{
closed = 1;
nodes = (
(744,90,q),
(718,62,o),
(718,1,o),
(823,1,q),
(963,1,l),
(1138,1,o),
(1138,51,q),
(1138,62,o),
(1061,130,o),
(1033,201,o),
(1033,659,o),
(1071,750,o),
(1165,824,o),
(1301,824,o),
(1368,761,o),
(1413,644,o),
(1413,184,o),
(1408,135,o),
(1381,55,o),
(1381,50,q),
(1381,4,o),
(1475,4,q),
(1678,-6,o),
(1719,33,qs),
(1738,51,l),
(1738,75,l),
(1738,81,o),
(1650,153,o),
(1630,204,o),
(1630,362,q),
(1630,730,o),
(1580,830,q),
(1512,966,o),
(1348,966,q),
(1262,966,o),
(1210,944,q),
(1156,922,o),
(1109,894,q),
(1072,872,l),
(1038,856,ls),
(1018,847,o),
(842,973,o),
(647,978,o),
(557,924,qs),
(481,879,l),
(451,865,ls),
(436,858,o),
(354,950,o),
(195,950,o),
(120,903,o),
(120,868,o),
(146,835,q),
(167,808,ls),
(221,738,o),
(210,228,o),
(188,164,o),
(128,103,q),
(89,75,o),
(108,55,qs),
(126,36,ls),
(164,-4,o),
(478,5,o),
(478,42,q),
(478,56,o),
(462,87,q),
(449,112,l),
(438,138,o),
(431,230,o),
(431,625,o),
(471,733,o),
(593,822,o),
(650,822,q),
(745,822,o),
(815,682,o),
(815,226,o),
(800,149,o)
);
}
);
};
layerId = "9BE5C8F1-5E5D-4A4F-AAC2-5BCBDB5A5B12";
shapes = (
{
closed = 1;
nodes = (
(694,3,qs),
(721,3,o),
(751,3,o),
(856,3,qs),
(946,3,ls),
(987,3,o),
(1014,3,qs),
(1024,3,o),
(1068,3,o),
(1119,3,o),
(1174,3,o),
(1210,3,o),
(1270,3,o),
(1317,3,o),
(1330,3,o),
(1354,3,o),
(1380,3,o),
(1395,3,o),
(1429,3,o),
(1466,3,qs),
(1480,3,o),
(1493,3,qs),
(1603,0,o),
(1606,71,q),
(1606,121,l),
(1606,213,ls),
(1606,219,o),
(1606,291,o),
(1605,342,o),
(1606,412,qs),
(1613,770,o),
(1579,830,qs),
(1509,958,o),
(1348,950,qs),
(1187,942,o),
(1096,938,qs),
(1073,938,o),
(1049,938,qs),
(1031,938,l),
(984,938,ls),
(962,938,o),
(825,941,o),
(751,941,o),
(653,941,qs),
(589,941,l),
(536,941,ls),
(503,941,o),
(330,947,o),
(241,947,o),
(202,900,o),
(215,801,o),
(215,765,qs),
(215,695,l),
(215,577,o),
(215,498,o),
(215,460,o),
(215,402,qs),
(215,366,o),
(215,344,q),
(213,166,ls),
(212,76,o),
(283,3,o),
(381,3,qs),
(434,3,o),
(440,3,qs),
(470,3,ls),
(497,3,o),
(503,3,o),
(521,3,o),
(541,3,o),
(564,3,o),
(598,3,qs),
(618,3,o),
(640,3,o),
(661,3,o),
(680,3,o)
);
}
);
width = 1814;
}
);
note = uni006D;
unicode = 109;
},
{
glyphname = n;
lastChange = "2024-03-01 20:59:30 +0000";
layers = (
{
layerId = m01;
shapes = (
{
closed = 1;
nodes = (
(351,6,ls),
(508,6,o),
(508,45,q),
(471,105,ls),
(454,133,o),
(430,224,o),
(430,659,o),
(487,774,o),
(614,837,o),
(682,837,qs),
(775,837,o),
(815,745,qs),
(844,678,o),
(844,209,o),
(828,125,o),
(784,56,o),
(784,47,qs),
(784,4,o),
(874,4,qs),
(904,4,ls),
(1188,4,o),
(1188,49,qs),
(1188,75,o),
(1081,129,o),
(1058,192,o),
(1058,729,o),
(987,889,o),
(857,969,o),
(776,969,qs),
(744,969,l),
(742,969,ls),
(630,969,o),
(492,876,qs),
(452,850,o),
(433,849,qs),
(428,849,o),
(399,916,o),
(391,926,qs),
(368,954,o),
(327,954,qs),
(190,954,o),
(127,917,qs),
(100,901,o),
(100,865,o),
(182,807,o),
(213,718,o),
(213,201,o),
(191,140,o),
(124,102,qs),
(87,81,o),
(87,48,qs),
(87,8,o),
(228,8,qs),
(290,8,l)
);
}
);
width = 1246;
},
{
background = {
shapes = (
{
closed = 1;
nodes = (
(351,6,ls),
(508,6,o),
(508,45,q),
(471,105,ls),
(454,133,o),
(430,224,o),
(430,659,o),
(487,774,o),
(614,837,o),
(682,837,qs),
(775,837,o),
(815,745,qs),
(844,678,o),
(844,209,o),
(828,125,o),
(784,56,o),
(784,47,qs),
(784,4,o),
(874,4,qs),
(904,4,ls),
(1188,4,o),
(1188,49,qs),
(1188,75,o),
(1081,129,o),
(1058,192,o),
(1058,729,o),
(987,889,o),
(857,969,o),
(776,969,qs),
(744,969,l),
(742,969,ls),
(630,969,o),
(492,876,qs),
(452,850,o),
(433,849,qs),
(428,849,o),
(399,916,o),
(391,926,qs),
(368,954,o),
(327,954,qs),
(190,954,o),
(127,917,qs),
(100,901,o),
(100,865,o),
(182,807,o),
(213,718,o),
(213,201,o),
(191,140,o),
(124,102,qs),
(87,81,o),
(87,48,qs),
(87,8,o),
(228,8,qs),
(290,8,l)
);
}
);
};
layerId = "9BE5C8F1-5E5D-4A4F-AAC2-5BCBDB5A5B12";
shapes = (
{
closed = 1;
nodes = (
(409,6,ls),
(781,3,o),
(684,12,q),
(684,65,ls),
(684,93,o),
(684,128,o),
(684,134,o),
(684,114,o),
(686,120,o),
(691,121,qs),
(597,224,o),
(597,115,qs),
(597,93,o),
(597,155,o),
(574,124,o),
(562,46,o),
(562,5,q),
(571,4,o),
(874,4,qs),
(913,4,ls),
(1057,4,o),
(1053,49,qs),
(1053,95,o),
(1053,129,o),
(1053,192,o),
(1049,729,o),
(997,889,o),
(874,960,o),
(805,965,qs),
(767,968,l),
(732,969,ls),
(680,970,o),
(632,967,qs),
(600,966,o),
(511,946,qs),
(487,941,o),
(452,937,o),
(452,937,q),
(388,948,o),
(329,953,qs),
(205,966,o),
(209,916,qs),
(209,895,o),
(209,865,o),
(209,807,o),
(209,718,o),
(209,543,o),
(209,447,o),
(209,317,qs),
(203,231,o),
(204,137,qs),
(206,12,o),
(265,8,qs),
(280,7,l)
);
}
);
width = 1246;
}
);
note = uni006E;
unicode = 110;
},
{
glyphname = o;
lastChange = "2024-03-01 20:33:45 +0000";
layers = (
{
layerId = m01;
shapes = (
{
closed = 1;
nodes = (
(433,878,o),
(525,878,qs),
(556,878,ls),
(658,878,o),
(791,653,o),
(791,492,qs),
(791,421,ls),
(791,258,o),
(658,81,o),
(567,81,qs),
(547,81,ls),
(498,81,o),
(402,143,o),
(371,196,qs),
(305,308,o),
(305,478,qs),
(305,515,ls),
(305,680,o)
);
},
{
closed = 1;
nodes = (
(995,696,qs),
(931,862,o),
(768,938,qs),
(682,978,o),
(593,978,qs),
(543,978,ls),
(463,978,o),
(376,944,qs),
(183,869,o),
(117,676,qs),
(83,577,o),
(83,480,qs),
(83,463,ls),
(83,356,o),
(155,166,o),
(213,108,qs),
(341,-20,o),
(532,-20,qs),
(565,-20,ls),
(646,-20,o),
(733,14,qs),
(933,92,o),
(1000,288,qs),
(1032,382,o),
(1032,461,qs),
(1032,511,ls),
(1032,598,o)
);
}
);
width = 1122;
},
{
background = {
shapes = (
{
closed = 1;
nodes = (
(433,878,o),
(525,878,qs),
(556,878,ls),
(658,878,o),
(791,653,o),
(791,492,qs),
(791,421,ls),
(791,258,o),
(658,81,o),
(567,81,qs),
(547,81,ls),
(498,81,o),
(402,143,o),
(371,196,qs),
(305,308,o),
(305,478,qs),
(305,515,ls),
(305,680,o)
);
},
{
closed = 1;
nodes = (
(995,696,qs),
(931,862,o),
(768,938,qs),
(682,978,o),
(593,978,qs),
(543,978,ls),
(463,978,o),
(376,944,qs),
(183,869,o),
(117,676,qs),
(83,577,o),
(83,480,qs),
(83,463,ls),
(83,356,o),
(155,166,o),
(213,108,qs),
(341,-20,o),
(532,-20,qs),
(565,-20,ls),
(646,-20,o),
(733,14,qs),
(933,92,o),
(1000,288,qs),
(1032,382,o),
(1032,461,qs),
(1032,511,ls),
(1032,598,o)
);
}
);
};
layerId = "9BE5C8F1-5E5D-4A4F-AAC2-5BCBDB5A5B12";
shapes = (
{
closed = 1;
nodes = (
(560,481,o),
(560,481,qs),
(560,481,ls),
(560,481,o),
(560,481,o),
(559,482,qs),
(559,482,ls),
(559,482,o),
(559,482,o),
(559,482,qs),
(559,482,ls),
(559,482,o),
(559,482,o),
(559,482,qs),
(559,482,o),
(560,481,qs),
(560,481,ls),
(560,481,o)
);
},
{
closed = 1;
nodes = (
(995,695,qs),
(936,861,o),
(774,938,qs),
(688,980,o),
(598,979,qs),
(547,979,ls),
(471,980,o),
(383,947,qs),
(188,873,o),
(121,680,qs),
(85,581,o),
(85,485,qs),
(84,468,ls),
(83,361,o),
(154,170,o),
(209,112,qs),
(336,-16,o),
(526,-18,qs),
(560,-17,ls),
(639,-19,o),
(727,15,qs),
(927,91,o),
(996,287,qs),
(1031,380,o),
(1031,459,qs),
(1031,509,ls),
(1032,597,o)
);
}
);
width = 1122;
}
);
note = uni006F;
unicode = 111;
},
{
glyphname = p;
lastChange = "2024-03-01 20:34:32 +0000";
layers = (
{
layerId = m01;
shapes = (
{
closed = 1;
nodes = (
(733,92,o),
(623,92,qs),
(613,92,ls),
(521,92,o),
(412,187,o),
(412,272,qs),
(412,282,o),
(410,304,qs),
(410,325,l),
(409,335,l),
(409,377,l),
(408,388,l),
(408,473,ls),
(408,703,o),
(463,797,o),
(567,858,o),
(622,858,qs),
(632,858,ls),
(732,858,o),
(864,666,o),
(864,505,qs),
(864,446,ls),
(864,294,o)
);
},
{
closed = 1;
nodes = (
(624,4,l),
(725,4,o),
(801,34,qs),
(980,104,o),
(1055,298,qs),
(1093,396,o),
(1093,489,qs),
(1093,545,ls),
(1093,635,o),
(1058,730,qs),
(999,892,o),
(863,951,qs),
(792,982,o),
(736,982,qs),
(684,982,ls),
(621,982,o),
(535,942,q),
(532,940,o),
(435,885,o),
(419,885,qs),
(415,885,o),
(346,965,o),
(313,965,qs),
(185,965,o),
(107,927,qs),
(83,915,o),
(83,873,o),
(167,814,o),
(177,797,qs),
(203,752,o),
(203,654,qs),
(205,547,l),
(205,132,ls),
(205,-123,o),
(169,-306,o),
(138,-336,qs),
(80,-392,o),
(80,-406,qs),
(80,-452,o),
(308,-452,qs),
(408,-452,ls),
(538,-452,o),
(538,-407,qs),
(538,-386,o),
(451,-326,o),
(412,-253,o),
(412,16,o),
(464,16,q)
);
}
);
width = 1195;
},
{
background = {
shapes = (
{
closed = 1;
nodes = (
(733,92,o),
(623,92,qs),
(613,92,ls),
(521,92,o),
(412,187,o),
(412,272,qs),
(412,282,o),
(410,304,qs),
(410,325,l),
(409,335,l),
(409,377,l),
(408,388,l),
(408,473,ls),
(408,703,o),
(463,797,o),
(567,858,o),
(622,858,qs),
(632,858,ls),
(732,858,o),
(864,666,o),
(864,505,qs),
(864,446,ls),
(864,294,o)
);
},
{
closed = 1;
nodes = (
(624,4,l),
(725,4,o),
(801,34,qs),
(980,104,o),
(1055,298,qs),
(1093,396,o),
(1093,489,qs),
(1093,545,ls),
(1093,635,o),
(1058,730,qs),
(999,892,o),
(863,951,qs),
(792,982,o),
(736,982,qs),
(684,982,ls),
(621,982,o),
(535,942,q),
(532,940,o),
(435,885,o),
(419,885,qs),
(415,885,o),
(346,965,o),
(313,965,qs),
(185,965,o),
(107,927,qs),
(83,915,o),
(83,873,o),
(167,814,o),
(177,797,qs),
(203,752,o),
(203,654,qs),
(205,547,l),
(205,132,ls),
(205,-123,o),
(169,-306,o),
(138,-336,qs),
(80,-392,o),
(80,-406,qs),
(80,-452,o),
(308,-452,qs),
(408,-452,ls),
(538,-452,o),
(538,-407,qs),
(538,-386,o),
(451,-326,o),
(412,-253,o),
(412,16,o),
(464,16,q)
);
}
);
};
layerId = "9BE5C8F1-5E5D-4A4F-AAC2-5BCBDB5A5B12";
shapes = (
{
closed = 1;
nodes = (
(668,475,o),
(669,475,qs),
(669,475,ls),
(669,475,o),
(669,475,o),
(669,475,qs),
(669,475,o),
(669,475,qs),
(669,475,l),
(669,475,l),
(669,475,l),
(669,475,l),
(669,475,ls),
(669,475,o),
(669,475,o),
(669,475,o),
(669,475,qs),
(669,475,ls),
(668,475,o),
(668,475,o),
(668,475,qs),
(668,475,ls),
(668,475,o)
);
},
{
closed = 1;
nodes = (
(1024,-165,ls),
(1024,-132,o),
(1024,68,q),
(1024,101,o),
(1024,330,q),
(1024,429,o),
(1024,489,qs),
(1024,545,ls),
(1024,695,o),
(1024,710,qs),
(1024,830,o),
(967,878,qs),
(919,926,o),
(773,948,q),
(712,948,ls),
(678,948,o),
(574,930,q),
(519,915,o),
(472,910,o),
(436,922,qs),
(431,924,o),
(365,940,o),
(331,938,qs),
(290,935,o),
(248,912,qs),
(222,898,o),
(213,853,o),
(212,794,o),
(212,777,qs),
(212,739,o),
(212,634,qs),
(212,547,l),
(211,132,ls),
(210,-123,o),
(205,-218,o),
(205,-256,qs),
(205,-282,o),
(206,-406,qs),
(206,-449,o),
(323,-449,qs),
(419,-449,ls),
(493,-449,o),
(660,-449,qs),
(672,-449,o),
(797,-449,o),
(907,-449,o),
(1024,-426,o),
(1024,-357,qs)
);
}
);
width = 1195;
}
);
note = uni0070;
unicode = 112;
},
{
glyphname = q;
lastChange = "2024-03-17 01:57:28 +0000";
layers = (
{
layerId = m01;
shapes = (
{
closed = 1;
nodes = (
(444,881,o),
(551,881,q),
(561,882,l),
(685,882,o),
(727,802,qs),
(756,747,o),
(756,500,qs),
(757,468,ls),
(757,457,o),
(757,446,qs),
(758,436,l),
(758,351,l),
(757,310,l),
(755,290,l),
(755,213,o),
(711,172,qs),
(641,107,o),
(561,107,qs),
(532,107,ls),
(437,107,o),
(304,312,o),
(304,451,qs),
(304,512,ls),
(304,677,o)
);
},
{
closed = 1;
nodes = (
(1020,-327,o),
(989,-261,o),
(989,-164,qs),
(986,-10,l),
(986,274,l),
(987,325,l),
(987,453,l),
(988,479,l),
(988,578,ls),
(988,639,o),
(1019,817,o),
(1019,835,qs),
(1019,953,o),
(948,953,qs),
(926,953,o),
(837,929,o),
(788,929,o),
(612,972,o),
(554,972,qs),
(530,972,ls),
(429,972,o),
(339,927,qs),
(178,846,o),
(118,670,qs),
(87,580,o),
(87,494,qs),
(87,467,ls),
(87,371,o),
(113,288,qs),
(171,104,o),
(322,36,qs),
(400,0,o),
(559,0,o),
(715,58,o),
(728,58,qs),
(767,58,o),
(767,-205,o),
(734,-314,o),
(643,-402,o),
(643,-416,qs),
(643,-457,o),
(753,-457,qs),
(903,-457,ls),
(1102,-457,o),
(1102,-414,qs),
(1102,-386,o)
);
}
);
width = 1171;
},
{
background = {
shapes = (
{
closed = 1;
nodes = (
(444,881,o),
(551,881,q),
(561,882,l),
(685,882,o),
(727,802,qs),
(756,747,o),
(756,500,qs),
(757,468,ls),
(757,457,o),
(757,446,qs),
(758,436,l),
(758,351,l),
(757,310,l),
(755,290,l),
(755,213,o),
(711,172,qs),
(641,107,o),
(561,107,qs),
(532,107,ls),
(437,107,o),
(304,312,o),
(304,451,qs),
(304,512,ls),
(304,677,o)
);
},
{
closed = 1;
nodes = (
(1020,-327,o),
(989,-261,o),
(989,-164,qs),
(986,-10,l),
(986,274,l),
(987,325,l),
(987,453,l),
(988,479,l),
(988,578,ls),
(988,639,o),
(1019,817,o),
(1019,835,qs),
(1019,953,o),
(948,953,qs),
(926,953,o),
(837,929,o),
(788,929,o),
(612,972,o),
(554,972,qs),
(530,972,ls),
(429,972,o),
(339,927,qs),
(178,846,o),
(118,670,qs),
(87,580,o),
(87,494,qs),
(87,467,ls),
(87,371,o),
(113,288,qs),
(171,104,o),
(322,36,qs),
(400,0,o),
(559,0,o),
(715,58,o),
(728,58,qs),
(767,58,o),
(767,-205,o),
(734,-314,o),
(643,-402,o),
(643,-416,qs),
(643,-457,o),
(753,-457,qs),
(903,-457,ls),
(1102,-457,o),
(1102,-414,qs),
(1102,-386,o)
);
}
);
};
layerId = "9BE5C8F1-5E5D-4A4F-AAC2-5BCBDB5A5B12";
shapes = (
{
closed = 1;
nodes = (
(557,487,o),
(557,487,q),
(557,487,l),
(557,487,o),
(557,487,qs),
(557,487,o),
(557,487,qs),
(557,488,ls),
(557,488,o),
(557,488,qs),
(557,488,l),
(557,488,l),
(557,488,l),
(557,488,l),
(557,488,o),
(557,488,qs),
(557,488,o),
(557,488,qs),
(557,488,ls),
(557,488,o),
(557,488,o),
(557,488,qs),
(557,487,ls),
(557,487,o)
);
},
{
closed = 1;
nodes = (
(993,-222,o),
(993,-193,o),
(993,-97,qs),
(993,56,l),
(993,338,l),
(993,389,l),
(993,516,l),
(993,542,l),
(993,640,ls),
(993,700,o),
(993,810,o),
(991,825,qs),
(973,947,o),
(770,966,qs),
(731,966,o),
(678,966,o),
(627,966,o),
(598,966,o),
(537,966,qs),
(494,966,ls),
(384,964,o),
(298,900,qs),
(163,804,o),
(142,644,qs),
(142,573,o),
(142,477,qs),
(142,450,ls),
(142,259,o),
(142,156,qs),
(142,-37,o),
(142,-69,qs),
(142,-115,o),
(142,-164,o),
(142,-193,o),
(142,-242,qs),
(142,-276,o),
(144,-440,o),
(278,-448,o),
(509,-448,o),
(607,-448,q),
(667,-448,o),
(797,-448,qs),
(848,-448,ls),
(986,-448,o),
(993,-305,qs),
(996,-267,o)
);
}
);
width = 1171;
}
);
note = uni0071;
unicode = 113;
},
{
glyphname = r;
lastChange = "2024-03-08 19:27:22 +0000";
layers = (
{
layerId = m01;
shapes = (
{
closed = 1;
nodes = (
(487,147,o),
(439,246,o),
(439,587,o),
(494,728,o),
(572,783,o),
(638,783,o),
(736,734,o),
(796,734,o),
(848,786,o),
(849,838,qs),
(849,889,o),
(782,954,o),
(656,954,o),
(553,898,o),
(480,842,o),
(450,842,o),
(402,957,o),
(345,957,qs),
(326,957,ls),
(178,957,o),
(116,915,qs),
(95,901,o),
(95,865,o),
(154,826,qs),
(187,804,o),
(218,702,o),
(218,226,o),
(185,129,o),
(90,68,o),
(90,41,qs),
(90,3,o),
(196,3,qs),
(259,2,l),
(301,0,l),
(407,0,ls),
(588,0,o),
(588,39,qs),
(588,65,o)
);
}
);
width = 893;
},
{
background = {
shapes = (
{
closed = 1;
nodes = (
(487,147,o),
(439,246,o),
(439,587,o),
(494,728,o),
(572,783,o),
(638,783,o),
(736,734,o),
(796,734,o),
(848,786,o),
(849,838,qs),
(849,889,o),
(782,954,o),
(656,954,o),
(553,898,o),
(480,842,o),
(450,842,o),
(402,957,o),
(345,957,qs),
(326,957,ls),
(178,957,o),
(116,915,qs),
(95,901,o),
(95,865,o),
(154,826,qs),
(187,804,o),
(218,702,o),
(218,226,o),
(185,129,o),
(90,68,o),
(90,41,qs),
(90,3,o),
(196,3,qs),
(259,2,l),
(301,0,l),
(407,0,ls),
(588,0,o),
(588,39,qs),
(588,65,o)
);
}
);
};
layerId = "9BE5C8F1-5E5D-4A4F-AAC2-5BCBDB5A5B12";
shapes = (
{
closed = 1;
nodes = (
(438,188,o),
(438,246,o),
(437,334,o),
(437,393,o),
(437,501,o),
(437,570,o),
(437,603,o),
(437,642,o),
(437,645,o),
(437,701,qs),
(437,725,o),
(437,771,o),
(437,815,o),
(438,893,o),
(389,957,o),
(327,959,o),
(327,959,o),
(306,959,qs),
(286,959,ls),
(211,959,o),
(213,906,qs),
(213,894,o),
(213,866,o),
(213,826,qs),
(213,777,o),
(216,702,o),
(216,265,o),
(216,196,o),
(216,135,o),
(216,108,qs),
(216,0,o),
(271,0,qs),
(326,0,l),
(350,0,l),
(380,0,ls),
(439,0,o),
(439,105,qs),
(439,130,o)
);
}
);
width = 893;
}
);
note = uni0072;
unicode = 114;
},
{
glyphname = s;
lastChange = "2024-03-01 21:00:15 +0000";
layers = (
{
layerId = m01;
shapes = (
{
closed = 1;
nodes = (
(684,501,o),
(390,629,o),
(371,642,qs),
(296,690,o),
(296,811,o),
(378,875,o),
(519,875,o),
(599,822,o),
(696,697,o),
(724,697,qs),
(774,697,o),
(774,907,o),
(735,930,qs),
(660,974,o),
(474,974,qs),
(447,974,ls),
(305,974,o),
(111,829,o),
(111,597,o),
(245,470,o),
(516,354,o),
(553,327,qs),
(623,276,o),
(623,156,o),
(541,83,o),
(368,83,o),
(304,127,qs),
(271,150,o),
(173,285,o),
(137,285,qs),
(94,285,o),
(94,170,qs),
(94,145,ls),
(94,55,o),
(149,29,qs),
(248,-18,o),
(437,-18,qs),
(464,-18,ls),
(630,-18,o),
(818,145,o),
(818,374,o),
(739,449,qs)
);
}
);
width = 900;
},
{
background = {
shapes = (
{
closed = 1;
nodes = (
(684,501,o),
(390,629,o),
(371,642,qs),
(296,690,o),
(296,811,o),
(378,875,o),
(519,875,o),
(599,822,o),
(696,697,o),
(724,697,qs),
(774,697,o),
(774,907,o),
(735,930,qs),
(660,974,o),
(474,974,qs),
(447,974,ls),
(305,974,o),
(111,829,o),
(111,597,o),
(245,470,o),
(516,354,o),
(553,327,qs),
(623,276,o),
(623,156,o),
(541,83,o),
(368,83,o),
(304,127,qs),
(271,150,o),
(173,285,o),
(137,285,qs),
(94,285,o),
(94,170,qs),
(94,145,ls),
(94,55,o),
(149,29,qs),
(248,-18,o),
(437,-18,qs),
(464,-18,ls),
(630,-18,o),
(818,145,o),
(818,374,o),
(739,449,qs)
);
}
);
};
layerId = "9BE5C8F1-5E5D-4A4F-AAC2-5BCBDB5A5B12";
shapes = (
{
closed = 1;
nodes = (
(787,353,o),
(788,414,o),
(788,482,qs),
(788,519,o),
(788,558,o),
(788,591,o),
(788,614,o),
(788,652,o),
(789,701,o),
(790,741,qs),
(791,789,o),
(780,896,o),
(724,930,qs),
(650,974,o),
(501,974,qs),
(473,974,ls),
(328,974,o),
(127,853,o),
(121,713,o),
(121,685,o),
(121,659,o),
(121,616,qs),
(121,559,o),
(121,528,o),
(121,501,o),
(121,467,o),
(121,467,qs),
(121,467,o),
(121,418,o),
(121,361,qs),
(121,396,o),
(121,361,qs),
(121,291,ls),
(121,247,o),
(121,154,qs),
(121,-37,o),
(466,-19,qs),
(505,-17,ls),
(639,-10,o),
(761,90,o),
(779,209,o),
(782,294,qs)
);
}
);
width = 900;
}
);
note = uni0073;
unicode = 115;
},
{
glyphname = t;
lastChange = "2024-03-17 02:17:16 +0000";
layers = (
{
layerId = m01;
shapes = (
{
closed = 1;
nodes = (
(427,211,qs),
(405,273,o),
(405,747,o),
(440,798,qs),
(460,828,o),
(650,866,o),
(650,942,o),
(478,983,o),
(428,1028,o),
(401,1186,o),
(397,1194,qs),
(382,1226,o),
(293,1226,o),
(258,1148,qs),
(188,991,o),
(175,978,o),
(106,932,qs),
(79,914,o),
(79,888,qs),
(79,884,o),
(131,842,qs),
(159,819,o),
(194,695,o),
(194,198,o),
(237,109,qs),
(262,58,o),
(370,-12,o),
(437,-12,qs),
(457,-12,ls),
(542,-12,o),
(696,74,o),
(696,155,o),
(670,155,q),
(518,132,l),
(455,132,o)
);
}
);
width = 756;
},
{
background = {
shapes = (
{
closed = 1;
nodes = (
(427,211,qs),
(405,273,o),
(405,747,o),
(440,798,qs),
(460,828,o),
(650,866,o),
(650,942,o),
(478,983,o),
(428,1028,o),
(401,1186,o),
(397,1194,qs),
(382,1226,o),
(293,1226,o),
(258,1148,qs),
(188,991,o),
(175,978,o),
(106,932,qs),
(79,914,o),
(79,888,qs),
(79,884,o),
(131,842,qs),
(159,819,o),
(194,695,o),
(194,198,o),
(237,109,qs),
(262,58,o),
(370,-12,o),
(437,-12,qs),
(457,-12,ls),
(542,-12,o),
(696,74,o),
(696,155,o),
(670,155,q),
(518,132,l),
(455,132,o)
);
}
);
};
layerId = "9BE5C8F1-5E5D-4A4F-AAC2-5BCBDB5A5B12";
shapes = (
{
closed = 1;
nodes = (
(424,286,qs),
(419,402,o),
(411,727,o),
(411,788,qs),
(411,860,o),
(411,905,o),
(411,948,o),
(411,992,o),
(411,1052,o),
(409,1152,o),
(397,1184,qs),
(385,1215,o),
(287,1223,o),
(258,1211,qs),
(197,1186,o),
(196,998,o),
(197,952,qs),
(198,919,o),
(198,888,qs),
(198,884,o),
(198,842,qs),
(198,806,o),
(194,695,o),
(194,198,o),
(237,109,qs),
(262,58,o),
(369,-12,o),
(436,-12,qs),
(456,-12,ls),
(541,-12,o),
(593,72,o),
(559,157,o),
(522,154,qs),
(483,151,ls),
(430,147,o)
);
}
);
width = 756;
}
);
note = uni0074;
unicode = 116;
},
{
glyphname = u;
lastChange = "2024-03-08 14:59:16 +0000";
layers = (
{
background = {
shapes = (
{
closed = 1;
nodes = (
(1021,273,o),
(1021,533,qs),
(1026,799,l),
(1029,858,ls),
(1029,915,o),
(999,958,o),
(950,958,qs),
(715,958,o),
(715,914,qs),
(715,895,o),
(775,830,o),
(804,716,o),
(804,275,o),
(742,177,o),
(631,119,o),
(575,119,qs),
(467,119,o),
(426,220,qs),
(402,279,o),
(402,830,o),
(377,903,qs),
(358,960,o),
(288,960,qs),
(167,960,o),
(89,935,qs),
(54,924,o),
(54,887,qs),
(54,873,o),
(163,822,o),
(181,765,o),
(182,196,o),
(220,123,qs),
(294,-17,o),
(459,-17,qs),
(489,-17,ls),
(491,-17,o),
(492,-17,qs),
(607,-17,o),
(733,74,qs),
(778,106,o),
(791,107,qs),
(804,107,o),
(843,25,o),
(894,-6,o),
(940,-6,qs),
(1081,-6,o),
(1124,33,qs),
(1139,46,o),
(1139,75,o),
(1051,144,o)
);
}
);
};
layerId = m01;
shapes = (
{
closed = 1;
nodes = (
(1021,273,o),
(1021,533,qs),
(1026,799,l),
(1029,858,ls),
(1029,915,o),
(999,958,o),
(950,958,qs),
(715,958,o),
(715,914,qs),
(715,895,o),
(775,830,o),
(804,716,o),
(804,275,o),
(742,177,o),
(631,119,o),
(575,119,qs),
(467,119,o),
(426,220,qs),
(402,279,o),
(402,830,o),
(377,903,qs),
(358,960,o),
(288,960,qs),
(167,960,o),
(89,935,qs),
(54,924,o),
(54,887,qs),
(54,873,o),
(163,822,o),
(181,765,o),
(182,196,o),
(220,123,qs),
(294,-17,o),
(459,-17,qs),
(489,-17,ls),
(491,-17,o),
(492,-17,qs),
(607,-17,o),
(733,74,qs),
(778,106,o),
(791,107,qs),
(804,107,o),
(843,25,o),
(894,-6,o),
(940,-6,qs),
(1081,-6,o),
(1124,33,qs),
(1139,46,o),
(1139,75,o),
(1051,144,o)
);
}
);
width = 1214;
},
{
background = {
shapes = (
{
closed = 1;
nodes = (
(1021,273,o),
(1021,533,qs),
(1026,799,l),
(1029,858,ls),
(1029,915,o),
(999,958,o),
(950,958,qs),
(715,958,o),
(715,914,qs),
(715,895,o),
(775,830,o),
(804,716,o),
(804,275,o),
(742,177,o),
(631,119,o),
(575,119,qs),
(467,119,o),
(426,220,qs),
(402,279,o),
(402,830,o),
(377,903,qs),
(358,960,o),
(288,960,qs),
(167,960,o),
(89,935,qs),
(54,924,o),
(54,887,qs),
(54,873,o),
(163,822,o),
(181,765,o),
(182,196,o),
(220,123,qs),
(294,-17,o),
(459,-17,qs),
(489,-17,ls),
(491,-17,o),
(492,-17,qs),
(607,-17,o),
(733,74,qs),
(778,106,o),
(791,107,qs),
(804,107,o),
(843,25,o),
(894,-6,o),
(940,-6,qs),
(1081,-6,o),
(1124,33,qs),
(1139,46,o),
(1139,75,o),
(1051,144,o)
);
}
);
};
layerId = "9BE5C8F1-5E5D-4A4F-AAC2-5BCBDB5A5B12";
shapes = (
{
closed = 1;
nodes = (
(1025,292,o),
(1025,535,qs),
(1025,780,l),
(1025,838,ls),
(1025,897,o),
(956,945,o),
(908,946,qs),
(829,950,o),
(800,950,qs),
(777,950,o),
(803,910,o),
(678,825,o),
(725,749,o),
(837,945,o),
(795,951,o),
(762,950,qs),
(705,948,o),
(615,948,qs),
(542,948,o),
(453,947,o),
(401,947,qs),
(377,947,o),
(318,947,qs),
(309,947,o),
(260,945,qs),
(217,945,o),
(204,897,qs),
(200,883,o),
(198,844,o),
(196,765,o),
(193,276,o),
(210,200,qs),
(222,-12,o),
(440,-16,qs),
(491,-17,ls),
(503,-17,o),
(516,-17,qs),
(623,-17,o),
(721,-17,qs),
(823,-14,o),
(855,-4,qs),
(871,1,o),
(907,-6,o),
(935,-12,o),
(949,-12,qs),
(1024,-12,o),
(1025,47,q),
(1025,109,o),
(1025,124,o),
(1025,165,o)
);
}
);
width = 1214;
}
);
note = uni0075;
unicode = 117;
},
{
glyphname = v;
lastChange = "2024-03-01 23:18:57 +0000";
layers = (
{
layerId = m01;
shapes = (
{
closed = 1;
nodes = (
(697,140,o),
(937,735,o),
(950,758,qs),
(978,809,o),
(1084,878,o),
(1084,914,qs),
(1084,956,o),
(962,956,qs),
(938,956,ls),
(752,956,o),
(752,913,qs),
(752,912,o),
(804,836,o),
(804,802,qs),
(804,664,o),
(643,308,qs),
(616,248,o),
(592,248,o),
(563,314,qs),
(407,675,o),
(407,812,qs),
(407,847,o),
(429,906,o),
(429,909,qs),
(429,954,o),
(115,954,o),
(27,936,o),
(27,905,qs),
(27,886,o),
(137,813,o),
(189,720,o),
(425,118,o),
(448,74,qs),
(494,-13,o),
(541,-13,qs),
(564,-13,ls),
(613,-13,o)
);
}
);
width = 1109;
},
{
background = {
shapes = (
{
closed = 1;
nodes = (
(697,140,o),
(937,735,o),
(950,758,qs),
(978,809,o),
(1084,878,o),
(1084,914,qs),
(1084,956,o),
(962,956,qs),
(938,956,ls),
(752,956,o),
(752,913,qs),
(752,912,o),
(804,836,o),
(804,802,qs),
(804,664,o),
(643,308,qs),
(616,248,o),
(592,248,o),
(563,314,qs),
(407,675,o),
(407,812,qs),
(407,847,o),
(429,906,o),
(429,909,qs),
(429,954,o),
(115,954,o),
(27,936,o),
(27,905,qs),
(27,886,o),
(137,813,o),
(189,720,o),
(425,118,o),
(448,74,qs),
(494,-13,o),
(541,-13,qs),
(564,-13,ls),
(613,-13,o)
);
}
);
};
layerId = "9BE5C8F1-5E5D-4A4F-AAC2-5BCBDB5A5B12";
shapes = (
{
closed = 1;
nodes = (
(722,203,o),
(914,660,o),
(941,728,qs),
(961,782,o),
(994,878,o),
(994,914,qs),
(994,949,o),
(941,951,qs),
(916,952,ls),
(896,953,o),
(843,952,qs),
(833,952,o),
(814,952,o),
(794,952,qs),
(775,952,o),
(744,952,qs),
(718,952,o),
(689,952,o),
(671,952,qs),
(648,952,o),
(603,952,qs),
(559,952,o),
(502,952,o),
(454,952,qs),
(386,952,o),
(216,952,o),
(130,946,o),
(130,915,qs),
(130,896,o),
(157,812,o),
(200,709,o),
(419,118,o),
(443,74,qs),
(499,-13,o),
(546,-13,q),
(564,-13,ls),
(617,-13,o)
);
}
);
width = 1109;
}
);
note = uni0076;
unicode = 118;
},
{
glyphname = w;
lastChange = "2024-03-01 19:24:48 +0000";
layers = (
{
layerId = m01;
shapes = (
{
closed = 1;
nodes = (
(1297,881,q),
(1305,780,l),
(1305,662,o),
(1192,332,o),
(1149,332,qs),
(1128,332,o),
(1089,411,o),
(1001,702,o),
(1001,730,qs),
(1002,762,l),
(1004,791,ls),
(1004,847,o),
(979,877,qs),
(931,934,o),
(786,934,o),
(750,918,qs),
(676,885,o),
(676,825,qs),
(676,809,o),
(697,723,o),
(697,697,qs),
(697,588,o),
(603,328,o),
(570,328,qs),
(528,328,o),
(434,624,o),
(413,745,o),
(400,882,o),
(389,902,qs),
(360,954,o),
(239,954,qs),
(201,954,ls),
(115,954,o),
(81,924,qs),
(65,910,o),
(65,878,o),
(121,800,qs),
(213,672,o),
(320,328,qs),
(345,250,ls),
(423,18,o),
(560,18,o),
(608,109,qs),
(625,141,o),
(803,578,o),
(806,578,qs),
(828,578,o),
(991,161,o),
(1067,15,o),
(1104,15,qs),
(1185,15,o),
(1231,102,qs),
(1245,129,o),
(1429,661,o),
(1497,803,o),
(1548,884,o),
(1548,895,qs),
(1548,949,o),
(1451,949,qs),
(1297,949,o)
);
}
);
width = 1622;
},
{
layerId = "9BE5C8F1-5E5D-4A4F-AAC2-5BCBDB5A5B12";
shapes = (
{
closed = 1;
nodes = (
(1208,949,q),
(1152,949,l),
(1121,949,o),
(1092,949,o),
(1079,949,qs),
(1066,949,o),
(1052,949,o),
(1035,949,o),
(1020,949,qs),
(999,949,l),
(974,949,ls),
(969,949,o),
(941,949,qs),
(922,949,o),
(905,949,o),
(876,949,qs),
(828,949,o),
(795,949,qs),
(782,949,o),
(745,949,o),
(730,949,qs),
(718,949,o),
(694,949,o),
(666,949,qs),
(655,949,o),
(593,949,o),
(564,949,o),
(512,949,o),
(487,949,qs),
(436,950,o),
(393,950,qs),
(364,950,ls),
(336,950,o),
(322,929,qs),
(311,914,o),
(306,878,o),
(325,800,qs),
(364,666,o),
(448,328,qs),
(469,244,ls),
(527,11,o),
(792,16,o),
(758,16,qs),
(724,16,o),
(826,16,o),
(828,16,qs),
(866,16,o),
(948,16,o),
(988,16,o),
(1035,16,qs),
(1102,16,o),
(1158,102,qs),
(1202,173,o),
(1312,661,o),
(1345,803,o),
(1364,878,o),
(1364,895,qs),
(1364,950,o),
(1311,949,qs),
(1220,949,o)
);
}
);
width = 1622;
}
);
note = uni0077;
unicode = 119;
},
{
glyphname = x;
lastChange = "2024-03-01 21:05:21 +0000";
layers = (
{
layerId = m01;
shapes = (
{
closed = 1;
nodes = (
(657,41,q),
(657,1,o),
(739,1,qs),
(802,1,l),
(865,3,ls),
(1068,3,o),
(1068,41,qs),
(1068,73,o),
(956,134,o),
(917,179,qs),
(690,440,o),
(690,507,qs),
(690,558,o),
(863,756,qs),
(910,810,o),
(1047,880,o),
(1047,909,qs),
(1047,953,o),
(718,953,o),
(718,921,qs),
(718,909,o),
(747,853,o),
(747,793,o),
(619,634,o),
(592,634,qs),
(582,634,o),
(457,808,o),
(457,864,qs),
(457,870,o),
(472,915,q),
(472,956,o),
(387,956,qs),
(357,956,ls),
(67,956,o),
(67,910,qs),
(67,892,o),
(198,798,o),
(237,750,qs),
(425,519,o),
(425,467,qs),
(425,429,o),
(248,217,qs),
(186,143,o),
(48,64,o),
(48,35,qs),
(48,-2,o),
(194,-2,qs),
(225,-2,l),
(256,-3,ls),
(390,-3,o),
(390,31,qs),
(390,35,o),
(360,98,o),
(360,118,qs),
(360,169,o),
(450,283,qs),
(496,342,o),
(524,342,qs),
(534,342,o),
(578,281,qs),
(675,146,o),
(675,89,qs),
(675,80,o)
);
}
);
width = 1118;
},
{
background = {
shapes = (
{
closed = 1;
nodes = (
(657,41,q),
(657,1,o),
(739,1,qs),
(802,1,l),
(865,3,ls),
(1068,3,o),
(1068,41,qs),
(1068,73,o),
(956,134,o),
(917,179,qs),
(690,440,o),
(690,507,qs),
(690,558,o),
(863,756,qs),
(910,810,o),
(1047,880,o),
(1047,909,qs),
(1047,953,o),
(718,953,o),
(718,921,qs),
(718,909,o),
(747,853,o),
(747,793,o),
(619,634,o),
(592,634,qs),
(582,634,o),
(457,808,o),
(457,864,qs),
(457,870,o),
(472,915,q),
(472,956,o),
(387,956,qs),
(357,956,ls),
(67,956,o),
(67,910,qs),
(67,892,o),
(198,798,o),
(237,750,qs),
(425,519,o),
(425,467,qs),
(425,429,o),
(248,217,qs),
(186,143,o),
(48,64,o),
(48,35,qs),
(48,-2,o),
(194,-2,qs),
(225,-2,l),
(256,-3,ls),
(390,-3,o),
(390,31,qs),
(390,35,o),
(360,98,o),
(360,118,qs),
(360,169,o),
(450,283,qs),
(496,342,o),
(524,342,qs),
(534,342,o),
(578,281,qs),
(675,146,o),
(675,89,qs),
(675,80,o)
);
}
);
};
layerId = "9BE5C8F1-5E5D-4A4F-AAC2-5BCBDB5A5B12";
shapes = (
{
closed = 1;
nodes = (
(705,-1,q),
(687,-1,o),
(792,-1,qs),
(884,-1,l),
(975,-1,ls),
(1049,-1,o),
(1044,62,qs),
(1044,94,o),
(1044,117,o),
(1044,179,qs),
(1044,431,o),
(1044,507,qs),
(1044,589,o),
(1044,707,qs),
(1044,775,o),
(1043,843,o),
(1043,899,qs),
(1043,944,o),
(876,954,o),
(817,954,qs),
(771,954,o),
(736,954,o),
(705,954,o),
(643,954,o),
(604,954,qs),
(590,954,o),
(573,954,o),
(491,954,qs),
(438,954,o),
(403,954,q),
(311,954,o),
(280,954,qs),
(217,954,ls),
(70,954,o),
(70,898,qs),
(70,880,o),
(72,811,o),
(72,750,qs),
(72,519,o),
(72,467,qs),
(72,429,o),
(72,217,qs),
(72,120,o),
(74,89,o),
(74,78,qs),
(74,84,o),
(74,83,qs),
(74,72,l),
(74,53,ls),
(74,-4,o),
(188,-1,qs),
(256,1,o),
(358,-1,o),
(434,-1,qs),
(454,-1,o),
(508,-1,qs),
(539,-1,o),
(592,-1,qs),
(608,-1,o),
(642,-1,qs),
(664,-1,o),
(673,-1,qs),
(693,-1,o)
);
}
);
width = 1118;
}
);
note = uni0078;
unicode = 120;
},
{
glyphname = y;
lastChange = "2024-03-01 23:00:00 +0000";
layers = (
{
layerId = m01;
shapes = (
{
closed = 1;
nodes = (
(417,896,q),
(417,947,o),
(182,947,o),
(76,916,o),
(76,878,qs),
(76,855,o),
(177,737,o),
(203,682,qs),
(488,79,o),
(488,-105,o),
(370,-285,o),
(300,-285,qs),
(269,-285,o),
(254,-284,qs),
(231,-282,l),
(189,-282,o),
(138,-321,o),
(138,-384,o),
(211,-443,o),
(263,-443,qs),
(289,-443,ls),
(358,-443,o),
(489,-325,o),
(641,-56,o),
(918,679,o),
(962,779,o),
(1061,886,o),
(1061,912,qs),
(1061,958,o),
(940,958,qs),
(876,958,ls),
(749,958,o),
(749,919,qs),
(749,906,o),
(773,874,q),
(784,856,ls),
(798,829,o),
(798,786,qs),
(798,637,o),
(660,345,qs),
(622,264,o),
(594,264,o),
(571,320,qs),
(405,721,o),
(405,828,qs),
(405,844,o)
);
}
);
width = 1116;
},
{
layerId = "9BE5C8F1-5E5D-4A4F-AAC2-5BCBDB5A5B12";
shapes = (
{
closed = 1;
nodes = (
(309,951,q),
(258,951,o),
(168,944,o),
(131,916,o),
(131,878,qs),
(131,855,o),
(131,737,o),
(131,682,qs),
(131,433,o),
(131,242,o),
(131,173,o),
(131,104,qs),
(131,-13,o),
(131,-54,qs),
(131,-142,l),
(131,-222,o),
(131,-321,o),
(154,-409,o),
(251,-443,o),
(283,-443,qs),
(309,-443,ls),
(370,-443,o),
(489,-325,o),
(607,-56,o),
(918,679,o),
(962,779,o),
(1011,886,o),
(1011,912,qs),
(1011,951,o),
(940,951,qs),
(876,951,ls),
(860,951,o),
(835,951,qs),
(809,951,o),
(780,951,q),
(722,951,ls),
(709,951,o),
(701,951,qs),
(651,951,o),
(622,951,qs),
(581,951,o),
(546,951,o),
(510,951,qs),
(484,951,o),
(426,951,qs),
(363,951,o)
);
}
);
width = 1116;
}
);
note = uni0079;
unicode = 121;
},
{
glyphname = z;
lastChange = "2024-03-01 16:21:13 +0000";
layers = (
{
layerId = m01;
shapes = (
{
closed = 1;
nodes = (
(136,3,qs),
(141,2,o),
(191,2,qs),
(247,3,l),
(470,3,l),
(553,2,l),
(720,-1,l),
(748,-2,l),
(802,-2,ls),
(867,-2,o),
(907,76,o),
(907,210,qs),
(907,236,ls),
(907,281,o),
(878,281,qs),
(842,281,o),
(757,159,o),
(657,104,o),
(361,104,o),
(361,129,qs),
(361,139,o),
(876,857,o),
(876,898,qs),
(876,954,o),
(803,954,qs),
(635,951,l),
(327,954,ls),
(299,954,o),
(244,956,qs),
(191,958,l),
(167,958,ls),
(104,958,o),
(104,784,qs),
(104,692,o),
(132,692,qs),
(171,692,o),
(253,810,o),
(353,852,o),
(605,852,o),
(605,813,o),
(91,97,o),
(91,62,qs),
(91,41,ls),
(91,11,o)
);
}
);
width = 987;
},
{
layerId = "9BE5C8F1-5E5D-4A4F-AAC2-5BCBDB5A5B12";
shapes = (
{
closed = 1;
nodes = (
(212,4,qs),
(263,0,o),
(276,0,qs),
(323,0,l),
(366,0,l),
(420,0,l),
(465,0,l),
(510,0,l),
(537,0,ls),
(566,0,o),
(718,1,o),
(745,183,qs),
(752,230,ls),
(756,259,o),
(759,280,qs),
(765,330,o),
(769,361,o),
(774,394,o),
(783,449,o),
(790,500,qs),
(818,706,o),
(829,857,o),
(829,898,qs),
(829,934,o),
(791,934,qs),
(656,934,l),
(446,934,ls),
(442,934,o),
(399,934,qs),
(360,934,l),
(335,934,ls),
(295,934,o),
(274,809,qs),
(268,774,o),
(257,702,qs),
(255,692,o),
(252,664,o),
(246,620,o),
(244,601,o),
(235,543,o),
(174,117,o),
(171,82,qs),
(169,61,ls),
(164,11,o)
);
}
);
width = 987;
}
);
note = uni007A;
unicode = 122;
},
{
glyphname = zero;
lastChange = "2024-03-01 23:23:56 +0000";
layers = (
{
layerId = m01;
shapes = (
{
closed = 1;
nodes = (
(462,1193,o),
(582,1193,qs),
(642,1193,o),
(691,1157,qs),
(739,1121,o),
(767,1062,qs),
(846,897,o),
(846,670,qs),
(846,577,l),
(844,547,l),
(844,369,o),
(772,218,qs),
(745,162,o),
(653,89,o),
(599,89,qs),
(574,89,ls),
(521,89,o),
(423,172,o),
(393,234,qs),
(317,393,o),
(317,612,qs),
(317,691,ls),
(317,914,o)
);
},
{
closed = 1;
nodes = (
(795,30,qs),
(978,126,o),
(1054,368,qs),
(1093,492,o),
(1093,614,qs),
(1093,675,ls),
(1093,800,o),
(1014,1057,o),
(941,1143,qs),
(805,1301,o),
(379,1301,o),
(247,1136,qs),
(93,942,o),
(93,647,qs),
(93,626,ls),
(93,478,o),
(135,344,qs),
(206,116,o),
(384,24,qs),
(470,-20,o),
(561,-20,qs),
(600,-20,ls),
(701,-20,o)
);
}
);
width = 1202;
},
{
layerId = "9BE5C8F1-5E5D-4A4F-AAC2-5BCBDB5A5B12";
shapes = (
{
closed = 1;
nodes = (
(582,641,o),
(582,641,qs),
(582,641,o),
(582,641,qs),
(582,641,o),
(582,641,qs),
(582,641,o),
(582,641,qs),
(582,641,l),
(582,641,l),
(582,641,o),
(582,641,qs),
(582,641,o),
(582,641,o),
(582,641,qs),
(582,641,ls),
(582,641,o),
(582,641,o),
(582,641,qs),
(582,641,o),
(582,641,qs),
(582,641,ls),
(582,641,o)
);
},
{
closed = 1;
nodes = (
(795,30,qs),
(978,126,o),
(1054,368,qs),
(1093,492,o),
(1093,614,qs),
(1093,675,ls),
(1093,800,o),
(1014,1057,o),
(941,1143,qs),
(805,1301,o),
(379,1301,o),
(247,1136,qs),
(93,942,o),
(93,647,qs),
(93,626,ls),
(93,478,o),
(135,344,qs),
(206,116,o),
(384,24,qs),
(470,-20,o),
(561,-20,qs),
(600,-20,ls),
(701,-20,o)
);
}
);
width = 1202;
}
);
note = uni0030;
unicode = 48;
},
{
glyphname = one;
lastChange = "2024-03-17 01:43:16 +0000";
layers = (
{
layerId = m01;
shapes = (
{
closed = 1;
nodes = (
(584,850,l),
(584,891,l),
(586,933,l),
(600,1174,l),
(600,1238,o),
(571,1289,o),
(502,1289,o),
(390,1245,o),
(217,1184,o),
(194,1172,qs),
(145,1146,o),
(145,1120,qs),
(145,1080,o),
(308,1070,o),
(353,965,o),
(353,275,o),
(310,157,o),
(173,77,o),
(173,51,qs),
(173,0,o),
(329,0,qs),
(645,0,ls),
(748,0,o),
(748,44,qs),
(748,75,o),
(615,168,o),
(582,271,o),
(582,597,qs),
(582,766,l)
);
}
);
width = 877;
},
{
layerId = "9BE5C8F1-5E5D-4A4F-AAC2-5BCBDB5A5B12";
shapes = (
{
closed = 1;
nodes = (
(602,850,l),
(602,891,l),
(602,933,l),
(602,1174,l),
(601,1243,o),
(571,1289,o),
(502,1289,o),
(390,1255,o),
(356,1203,o),
(356,1172,qs),
(356,1133,o),
(356,1120,qs),
(356,1080,o),
(356,1070,o),
(356,965,o),
(350,275,o),
(350,157,o),
(350,110,o),
(350,101,qs),
(349,0,o),
(388,0,qs),
(551,0,ls),
(595,0,o),
(602,44,qs),
(602,75,o),
(602,168,o),
(602,271,o),
(602,597,qs),
(602,766,l)
);
}
);
width = 877;
}
);
note = uni0031;
unicode = 49;
},
{
glyphname = two;
lastChange = "2024-03-01 23:32:20 +0000";
layers = (
{
layerId = m01;
shapes = (
{
closed = 1;
nodes = (
(942,31,qs),
(994,79,o),
(994,218,qs),
(994,288,o),
(936,288,o),
(836,210,o),
(711,170,o),
(379,170,o),
(379,200,qs),
(379,239,o),
(775,588,o),
(945,816,o),
(945,939,qs),
(945,1099,o),
(745,1289,o),
(389,1289,o),
(259,1203,qs),
(201,1165,o),
(136,1071,o),
(136,916,o),
(205,916,qs),
(248,916,o),
(300,1017,qs),
(373,1160,o),
(516,1160,qs),
(598,1160,o),
(712,1034,o),
(712,812,o),
(622,677,qs),
(569,597,o),
(209,230,o),
(207,227,qs),
(133,137,o),
(133,33,o),
(178,16,qs),
(207,5,o),
(355,5,qs),
(518,4,l),
(550,3,l),
(713,1,l),
(746,0,l),
(778,0,ls),
(908,0,o)
);
}
);
width = 1107;
},
{
layerId = "9BE5C8F1-5E5D-4A4F-AAC2-5BCBDB5A5B12";
shapes = (
{
closed = 1;
nodes = (
(912,31,qs),
(957,79,o),
(950,218,qs),
(950,288,o),
(950,335,o),
(950,384,o),
(950,445,o),
(950,480,o),
(950,510,qs),
(950,555,o),
(950,636,o),
(950,784,o),
(950,905,qs),
(950,1095,o),
(745,1289,o),
(389,1289,o),
(259,1203,qs),
(201,1165,o),
(148,1073,o),
(148,860,o),
(148,796,qs),
(148,764,o),
(148,729,qs),
(148,704,o),
(148,671,qs),
(148,621,o),
(148,575,o),
(148,514,o),
(148,468,qs),
(148,384,o),
(148,321,o),
(148,227,qs),
(148,136,o),
(146,24,o),
(178,12,qs),
(207,3,o),
(355,3,qs),
(518,3,l),
(550,3,l),
(713,3,l),
(746,3,l),
(778,3,ls),
(897,3,o)
);
}
);
width = 1107;
}
);
note = uni0032;
unicode = 50;
},
{
glyphname = three;
lastChange = "2024-03-08 13:55:07 +0000";
layers = (
{
layerId = m01;
shapes = (
{
closed = 1;
nodes = (
(672,-82,o),
(966,146,o),
(966,330,qs),
(966,543,o),
(726,660,qs),
(690,678,o),
(690,680,qs),
(690,690,o),
(825,829,o),
(889,946,o),
(889,1020,qs),
(889,1145,o),
(824,1205,qs),
(791,1236,o),
(639,1292,o),
(531,1292,qs),
(498,1292,ls),
(368,1292,o),
(150,1172,o),
(150,1004,o),
(225,1004,qs),
(230,1004,o),
(350,1099,qs),
(418,1153,o),
(571,1153,o),
(665,1061,o),
(665,975,qs),
(665,814,o),
(471,714,qs),
(383,668,o),
(383,650,qs),
(383,616,o),
(408,602,qs),
(416,597,o),
(529,571,o),
(603,546,o),
(646,508,qs),
(731,433,o),
(731,201,o),
(602,47,o),
(407,47,o),
(235,180,o),
(185,180,qs),
(115,180,o),
(115,21,o),
(314,-82,o),
(431,-82,qs),
(464,-82,ls)
);
}
);
width = 1086;
},
{
layerId = "9BE5C8F1-5E5D-4A4F-AAC2-5BCBDB5A5B12";
shapes = (
{
closed = 1;
nodes = (
(672,-82,o),
(903,141,o),
(903,323,qs),
(903,507,o),
(903,634,qs),
(903,682,o),
(903,739,qs),
(903,831,o),
(903,894,o),
(903,946,o),
(903,1020,qs),
(903,1148,o),
(824,1205,qs),
(791,1236,o),
(639,1292,o),
(531,1292,qs),
(498,1292,ls),
(368,1292,o),
(182,1192,o),
(118,1107,o),
(118,1037,qs),
(118,1006,o),
(118,1037,qs),
(118,1008,o),
(118,976,o),
(118,866,o),
(118,786,qs),
(118,706,o),
(118,656,qs),
(118,626,o),
(118,595,qs),
(118,527,o),
(118,506,qs),
(118,423,o),
(118,390,o),
(118,353,o),
(118,336,q),
(118,310,o),
(118,287,o),
(118,263,o),
(118,203,o),
(118,186,o),
(118,168,qs),
(118,168,o),
(118,13,o),
(314,-82,o),
(431,-82,qs),
(464,-82,ls)
);
}
);
width = 1086;
}
);
note = uni0033;
unicode = 51;
},
{
glyphname = four;
lastChange = "2024-03-08 13:58:23 +0000";
layers = (
{
layerId = m01;
shapes = (
{
closed = 1;
nodes = (
(620,1006,l),
(620,968,l),
(617,890,ls),
(617,882,o),
(617,874,qs),
(616,866,l),
(616,849,l),
(611,772,l),
(611,480,o),
(596,455,qs),
(589,443,o),
(397,443,qs),
(249,440,l),
(241,439,l),
(217,439,ls),
(207,439,o),
(207,442,qs),
(207,446,ls),
(207,454,o),
(255,512,o),
(275,539,qs),
(295,568,l),
(301,575,l),
(346,637,ls),
(351,644,o),
(425,738,o),
(614,1011,o),
(615,1011,qs),
(618,1011,l)
);
},
{
closed = 1;
nodes = (
(566,-62,o),
(631,-62,qs),
(673,-62,ls),
(768,-62,o),
(918,-6,o),
(918,34,qs),
(918,69,o),
(877,148,o),
(877,163,qs),
(877,231,o),
(928,327,o),
(999,369,o),
(999,387,qs),
(999,436,o),
(866,505,o),
(853,551,qs),
(830,634,o),
(830,1193,o),
(821,1227,qs),
(808,1277,o),
(760,1277,qs),
(685,1277,o),
(607,1180,qs),
(74,515,o),
(74,398,qs),
(74,381,ls),
(74,310,o),
(328,310,qs),
(461,310,o),
(576,263,o),
(576,188,qs),
(576,148,o),
(512,28,o),
(512,23,qs),
(512,-11,o)
);
}
);
width = 1132;
},
{
layerId = "9BE5C8F1-5E5D-4A4F-AAC2-5BCBDB5A5B12";
shapes = (
{
closed = 1;
nodes = (
(414,726,l),
(414,726,l),
(414,726,ls),
(414,726,o),
(414,726,qs),
(414,725,l),
(414,725,l),
(414,725,l),
(414,724,o),
(414,724,qs),
(414,724,o),
(413,724,qs),
(413,724,l),
(413,724,l),
(413,724,ls),
(413,724,o),
(413,724,qs),
(413,724,ls),
(413,724,o),
(413,724,o),
(413,724,qs),
(413,724,l),
(413,724,l),
(413,725,ls),
(413,725,o),
(414,725,o),
(414,726,o),
(414,726,qs),
(414,726,l)
);
},
{
closed = 1;
nodes = (
(78,-65,o),
(425,-62,qs),
(673,-60,ls),
(768,-59,o),
(836,-6,o),
(836,34,qs),
(836,68,o),
(836,148,o),
(836,163,qs),
(836,204,o),
(836,297,o),
(836,403,o),
(836,421,qs),
(836,466,o),
(836,505,o),
(836,551,qs),
(836,637,o),
(830,1193,o),
(821,1227,qs),
(808,1277,o),
(760,1277,qs),
(685,1277,o),
(607,1180,qs),
(78,515,o),
(78,398,qs),
(78,381,ls),
(78,341,o),
(78,297,qs),
(78,297,o),
(78,244,o),
(78,176,qs),
(78,135,o),
(78,106,o),
(78,77,qs),
(78,41,o)
);
}
);
width = 1132;
}
);
note = uni0034;
unicode = 52;
},
{
glyphname = five;
lastChange = "2024-03-08 14:04:14 +0000";
layers = (
{
layerId = m01;
shapes = (
{
closed = 1;
nodes = (
(599,1100,qs),
(663,1097,ls),
(706,1095,o),
(764,1095,qs),
(921,1095,o),
(921,1225,qs),
(921,1299,o),
(850,1299,qs),
(834,1299,o),
(797,1291,qs),
(768,1285,ls),
(701,1273,o),
(548,1273,qs),
(298,1273,o),
(260,1226,qs),
(237,1198,o),
(183,937,o),
(183,719,o),
(225,648,o),
(320,648,o),
(339,649,qs),
(369,651,l),
(537,651,o),
(622,583,qs),
(669,545,o),
(725,425,o),
(725,369,qs),
(725,234,o),
(674,162,qs),
(601,59,o),
(485,59,qs),
(396,59,o),
(231,182,o),
(197,182,qs),
(115,182,o),
(115,111,qs),
(115,85,ls),
(115,17,o),
(314,-75,o),
(428,-75,qs),
(460,-75,ls),
(674,-75,o),
(954,176,o),
(954,361,qs),
(954,394,ls),
(954,468,o),
(879,629,o),
(804,690,qs),
(678,792,o),
(462,792,qs),
(366,792,o),
(350,803,qs),
(319,826,o),
(319,912,qs),
(319,1103,o),
(470,1103,qs),
(472,1103,o),
(472,1103,q),
(503,1103,o)
);
}
);
width = 1085;
},
{
layerId = "9BE5C8F1-5E5D-4A4F-AAC2-5BCBDB5A5B12";
shapes = (
{
closed = 1;
nodes = (
(872,1129,qs),
(872,1152,ls),
(872,1158,o),
(872,1189,qs),
(872,1203,o),
(872,1225,qs),
(872,1276,o),
(850,1275,qs),
(832,1274,o),
(797,1274,qs),
(768,1274,ls),
(700,1274,o),
(548,1274,qs),
(310,1274,o),
(260,1226,q),
(200,1166,o),
(186,937,o),
(186,719,o),
(186,691,o),
(186,650,o),
(186,616,qs),
(186,582,l),
(186,564,o),
(186,535,qs),
(186,496,o),
(186,473,o),
(186,416,qs),
(186,375,o),
(186,317,qs),
(186,281,o),
(186,227,qs),
(186,212,o),
(186,180,o),
(186,180,qs),
(186,199,o),
(186,144,qs),
(186,117,ls),
(186,49,o),
(314,-75,o),
(428,-75,qs),
(460,-75,ls),
(674,-75,o),
(872,154,o),
(872,351,q),
(872,432,ls),
(872,506,o),
(872,616,o),
(872,680,qs),
(872,744,o),
(872,775,qs),
(872,797,o),
(872,820,qs),
(872,890,o),
(872,985,qs),
(872,997,o),
(872,1022,qs),
(872,1043,o),
(872,1070,q),
(872,1115,o)
);
}
);
width = 1085;
}
);
note = uni0035;
unicode = 53;
},
{
glyphname = six;
lastChange = "2024-03-08 14:08:45 +0000";
layers = (
{
layerId = m01;
shapes = (
{
closed = 1;
nodes = (
(445,733,o),
(548,733,qs),
(576,733,ls),
(668,733,o),
(805,571,o),
(805,425,qs),
(805,384,ls),
(805,249,o),
(676,85,o),
(580,85,qs),
(571,85,ls),
(455,85,o),
(326,301,o),
(326,443,qs),
(326,501,ls),
(326,604,o)
);
},
{
closed = 1;
nodes = (
(431,816,o),
(382,865,o),
(382,928,o),
(458,1066,o),
(608,1184,o),
(755,1184,qs),
(846,1184,o),
(924,1212,o),
(924,1257,qs),
(924,1327,o),
(740,1327,qs),
(737,1327,ls),
(632,1327,o),
(501,1268,qs),
(367,1208,o),
(185,998,o),
(94,712,o),
(94,571,qs),
(94,517,ls),
(94,403,o),
(170,188,o),
(229,122,qs),
(359,-23,o),
(560,-23,qs),
(586,-23,ls),
(676,-23,o),
(758,11,qs),
(930,83,o),
(992,242,qs),
(1024,323,o),
(1024,392,qs),
(1024,418,ls),
(1024,598,o),
(908,710,qs),
(852,764,o),
(776,794,qs),
(701,822,o),
(588,822,o),
(480,816,q)
);
}
);
width = 1140;
},
{
layerId = "9BE5C8F1-5E5D-4A4F-AAC2-5BCBDB5A5B12";
shapes = (
{
closed = 1;
nodes = (
(566,409,o),
(566,409,qs),
(566,409,ls),
(566,409,o),
(566,409,o),
(566,409,qs),
(566,409,ls),
(566,409,o),
(566,409,o),
(566,409,qs),
(566,409,ls),
(566,409,o),
(566,409,o),
(566,409,qs),
(566,409,ls),
(566,409,o)
);
},
{
closed = 1;
nodes = (
(1008,850,o),
(1008,883,o),
(1008,916,o),
(1008,1056,o),
(1008,970,o),
(1008,1119,qs),
(1008,1167,o),
(1008,1202,o),
(1008,1247,qs),
(1011,1327,o),
(740,1327,qs),
(737,1327,ls),
(632,1327,o),
(501,1268,qs),
(367,1208,o),
(185,998,o),
(94,712,o),
(94,571,qs),
(94,517,ls),
(94,403,o),
(170,188,o),
(229,122,qs),
(359,-23,o),
(560,-23,qs),
(586,-23,ls),
(697,-23,o),
(758,11,qs),
(1017,155,o),
(1008,379,qs),
(1008,449,o),
(1008,449,qs),
(1008,492,ls),
(1008,682,o),
(1008,673,qs),
(1008,708,o),
(1008,745,qs),
(1008,772,o),
(1008,754,o),
(1008,806,q)
);
}
);
width = 1140;
}
);
note = uni0036;
unicode = 54;
},
{
glyphname = seven;
lastChange = "2024-03-08 14:10:54 +0000";
layers = (
{
layerId = m01;
shapes = (
{
closed = 1;
nodes = (
(381,-84,qs),
(405,-84,ls),
(490,-84,o),
(524,-6,qs),
(529,4,o),
(633,374,o),
(967,1168,o),
(967,1250,o),
(920,1277,o),
(786,1277,o),
(760,1276,qs),
(684,1276,l),
(324,1280,l),
(275,1282,l),
(225,1283,l),
(201,1284,ls),
(137,1284,o),
(118,1241,qs),
(91,1180,o),
(91,1054,qs),
(91,1030,ls),
(91,965,o),
(134,965,qs),
(158,965,o),
(244,1064,o),
(278,1079,qs),
(349,1109,o),
(675,1109,o),
(763,1090,o),
(763,1024,o),
(300,77,o),
(300,-19,qs),
(300,-84,o)
);
}
);
width = 1053;
},
{
layerId = "9BE5C8F1-5E5D-4A4F-AAC2-5BCBDB5A5B12";
shapes = (
{
closed = 1;
nodes = (
(381,-84,qs),
(405,-84,ls),
(490,-84,o),
(524,-6,qs),
(528,4,o),
(662,366,o),
(967,1168,o),
(967,1250,o),
(920,1277,o),
(786,1280,o),
(760,1280,qs),
(684,1280,l),
(324,1280,l),
(275,1280,l),
(225,1280,l),
(201,1280,ls),
(136,1280,o),
(118,1241,qs),
(96,1196,o),
(96,1079,qs),
(96,1030,ls),
(96,1014,o),
(96,945,qs),
(96,922,o),
(96,748,o),
(96,733,qs),
(96,672,o),
(96,585,o),
(96,463,o),
(96,349,o),
(96,255,o),
(96,95,qs),
(98,-84,o)
);
}
);
width = 1053;
}
);
note = uni0037;
unicode = 55;
},
{
glyphname = eight;
lastChange = "2024-03-08 14:14:37 +0000";
layers = (
{
layerId = m01;
shapes = (
{
closed = 1;
nodes = (
(770,1008,l),
(770,949,o),
(673,796,o),
(619,796,qs),
(527,796,o),
(358,984,o),
(358,1069,qs),
(358,1093,ls),
(358,1180,o),
(465,1287,o),
(527,1287,qs),
(563,1287,ls),
(659,1287,o),
(772,1149,o),
(772,1062,qs),
(772,1023,l)
);
},
{
closed = 1;
nodes = (
(336,545,qs),
(409,659,o),
(474,659,qs),
(482,659,ls),
(576,659,o),
(719,527,qs),
(807,446,o),
(807,339,qs),
(807,312,ls),
(807,218,o),
(668,90,o),
(583,90,qs),
(557,90,ls),
(445,90,o),
(291,258,o),
(291,371,qs),
(291,398,ls),
(291,475,o)
);
},
{
closed = 1;
nodes = (
(337,-22,o),
(736,-22,o),
(863,74,qs),
(926,122,o),
(1004,262,o),
(1004,344,qs),
(1004,366,ls),
(1004,531,o),
(852,652,qs),
(759,726,l),
(759,739,o),
(825,801,qs),
(950,919,o),
(950,1035,qs),
(950,1186,o),
(743,1366,o),
(567,1366,qs),
(544,1366,ls),
(378,1366,o),
(142,1172,o),
(142,890,o),
(252,775,qs),
(326,698,l),
(326,696,o),
(226,611,qs),
(180,572,o),
(90,435,o),
(90,338,qs),
(90,178,o)
);
}
);
width = 1131;
},
{
layerId = "9BE5C8F1-5E5D-4A4F-AAC2-5BCBDB5A5B12";
shapes = (
{
closed = 1;
nodes = (
(565,1041,l),
(565,1041,o),
(565,1041,o),
(565,1041,qs),
(565,1041,o),
(565,1041,o),
(565,1042,qs),
(565,1042,ls),
(565,1042,o),
(565,1042,o),
(565,1042,qs),
(565,1042,ls),
(565,1042,o),
(565,1042,o),
(565,1042,qs),
(565,1041,l)
);
},
{
closed = 1;
nodes = (
(549,374,qs),
(549,374,o),
(549,374,qs),
(549,374,ls),
(549,374,o),
(549,374,qs),
(549,374,o),
(549,375,qs),
(549,375,ls),
(549,375,o),
(549,375,o),
(549,375,qs),
(549,375,ls),
(549,375,o),
(549,375,o),
(549,375,qs),
(549,374,ls),
(549,374,o)
);
},
{
closed = 1;
nodes = (
(337,-22,o),
(736,-22,o),
(863,74,qs),
(926,122,o),
(1001,292,o),
(1001,374,qs),
(1001,396,ls),
(1001,628,o),
(1001,662,qs),
(1001,739,l),
(1001,851,o),
(1001,892,qs),
(1001,958,o),
(1001,1048,qs),
(993,1196,o),
(743,1366,o),
(567,1366,qs),
(544,1366,ls),
(378,1366,o),
(142,1172,o),
(91,955,o),
(91,796,qs),
(91,660,l),
(91,614,o),
(91,553,qs),
(91,491,o),
(91,455,o),
(91,358,qs),
(91,198,o)
);
}
);
width = 1131;
}
);
note = uni0038;
unicode = 56;
},
{
glyphname = nine;
lastChange = "2024-03-08 14:18:22 +0000";
layers = (
{
layerId = m01;
shapes = (
{
closed = 1;
nodes = (
(700,1120,qs),
(781,1017,o),
(781,892,qs),
(783,853,l),
(784,824,l),
(785,814,l),
(785,685,o),
(744,637,qs),
(672,552,o),
(564,552,qs),
(536,552,ls),
(445,552,o),
(306,717,o),
(306,860,qs),
(306,901,ls),
(306,1037,o),
(435,1201,o),
(530,1201,qs),
(540,1201,ls),
(636,1201,o)
);
},
{
closed = 1;
nodes = (
(598,176,qs),
(508,100,o),
(369,100,qs),
(274,100,o),
(244,92,qs),
(192,78,o),
(192,2,o),
(285,-39,o),
(357,-39,qs),
(491,-39,o),
(748,81,o),
(826,169,qs),
(1017,383,o),
(1017,724,qs),
(1017,989,o),
(910,1134,qs),
(781,1310,o),
(546,1310,qs),
(342,1310,o),
(88,1064,o),
(88,864,qs),
(88,702,o),
(186,595,qs),
(242,533,o),
(399,464,o),
(513,464,o),
(529,465,qs),
(552,467,ls),
(574,467,o),
(621,468,qs),
(623,468,o),
(625,468,qs),
(669,468,o),
(698,446,qs),
(728,424,o),
(728,388,qs),
(728,286,o)
);
}
);
width = 1139;
},
{
layerId = "9BE5C8F1-5E5D-4A4F-AAC2-5BCBDB5A5B12";
shapes = (
{
closed = 1;
nodes = (
(545,876,qs),
(545,876,o),
(545,876,qs),
(545,877,l),
(545,877,l),
(545,877,l),
(545,877,o),
(545,877,qs),
(545,877,o),
(545,877,qs),
(546,877,ls),
(546,877,o),
(546,877,o),
(546,877,qs),
(546,876,ls),
(546,876,o),
(546,876,o),
(546,876,qs),
(546,876,ls),
(545,876,o)
);
},
{
closed = 1;
nodes = (
(103,189,qs),
(103,160,o),
(103,125,qs),
(103,116,o),
(105,100,qs),
(110,62,o),
(192,0,o),
(285,-39,o),
(357,-39,qs),
(491,-39,o),
(748,81,o),
(826,169,qs),
(1017,383,o),
(1017,724,qs),
(1017,989,o),
(910,1134,qs),
(781,1310,o),
(546,1310,qs),
(342,1310,o),
(97,1077,o),
(103,904,qs),
(105,853,o),
(103,811,qs),
(103,719,o),
(103,656,o),
(103,595,o),
(103,578,qs),
(103,513,ls),
(103,481,o),
(103,449,qs),
(103,413,o),
(103,396,qs),
(103,362,o),
(103,326,qs),
(103,289,o),
(103,261,qs),
(103,206,o)
);
}
);
width = 1139;
}
);
note = uni0039;
unicode = 57;
},
{
glyphname = period;
lastChange = "2024-03-08 14:21:28 +0000";
layers = (
{
layerId = m01;
shapes = (
{
closed = 1;
nodes = (
(282,-21,l),
(329,-21,o),
(402,64,o),
(402,110,qs),
(402,124,ls),
(402,174,o),
(326,250,o),
(291,250,qs),
(284,250,o),
(269,253,q),
(251,253,ls),
(205,253,o),
(116,177,o),
(116,119,qs),
(116,110,ls),
(116,50,o),
(202,-24,o),
(254,-24,qs),
(259,-24,l)
);
}
);
width = 518;
},
{
layerId = "9BE5C8F1-5E5D-4A4F-AAC2-5BCBDB5A5B12";
shapes = (
{
closed = 1;
nodes = (
(282,-22,l),
(329,-22,o),
(400,-20,o),
(400,110,qs),
(400,193,ls),
(400,248,o),
(326,252,o),
(291,252,qs),
(284,252,o),
(269,252,q),
(251,252,ls),
(205,252,o),
(116,243,o),
(116,177,qs),
(116,110,ls),
(116,-20,o),
(202,-22,o),
(254,-22,qs),
(259,-22,l)
);
}
);
width = 518;
}
);
note = uni002E;
unicode = 46;
},
{
glyphname = comma;
lastChange = "2024-03-08 14:22:15 +0000";
layers = (
{
layerId = m01;
shapes = (
{
closed = 1;
nodes = (
(336,251,o),
(273,251,qs),
(248,251,ls),
(193,251,o),
(124,175,o),
(124,71,o),
(234,-39,o),
(234,-56,qs),
(234,-116,o),
(192,-171,qs),
(119,-266,l),
(119,-272,ls),
(119,-305,o),
(154,-305,qs),
(160,-305,ls),
(238,-305,o),
(339,-159,qs),
(413,-52,o),
(413,58,qs),
(413,91,ls),
(413,166,o)
);
}
);
width = 528;
},
{
layerId = "9BE5C8F1-5E5D-4A4F-AAC2-5BCBDB5A5B12";
shapes = (
{
closed = 1;
nodes = (
(336,251,o),
(273,251,qs),
(248,251,ls),
(193,251,o),
(124,175,o),
(120,71,o),
(120,15,o),
(120,0,qs),
(120,-41,o),
(120,-152,qs),
(120,-197,l),
(119,-272,ls),
(119,-305,o),
(154,-305,qs),
(160,-305,ls),
(238,-305,o),
(339,-159,qs),
(413,-52,o),
(413,58,qs),
(413,91,ls),
(413,166,o)
);
}
);
width = 528;
}
);
note = uni002C;
unicode = 44;
},
{
glyphname = colon;
lastChange = "2024-03-08 14:27:40 +0000";
layers = (
{
layerId = m01;
shapes = (
{
closed = 1;
nodes = (
(302,-1,l),
(349,-1,o),
(422,84,o),
(422,130,qs),
(422,144,ls),
(422,194,o),
(346,270,o),
(311,270,qs),
(304,270,o),
(289,273,q),
(271,273,ls),
(225,273,o),
(136,197,o),
(136,139,qs),
(136,130,ls),
(136,70,o),
(222,-4,o),
(274,-4,qs),
(279,-4,l)
);
},
{
closed = 1;
nodes = (
(302,676,l),
(349,676,o),
(422,761,o),
(422,807,qs),
(422,821,ls),
(422,871,o),
(346,947,o),
(311,947,qs),
(304,947,o),
(289,950,q),
(271,950,ls),
(225,950,o),
(136,874,o),
(136,816,qs),
(136,807,ls),
(136,747,o),
(222,673,o),
(274,673,qs),
(279,673,l)
);
}
);
width = 551;
},
{
background = {
shapes = (
{
closed = 1;
nodes = (
(305,681,l),
(352,681,o),
(425,766,o),
(425,812,qs),
(425,826,ls),
(425,876,o),
(349,952,o),
(314,952,qs),
(307,952,o),
(292,955,q),
(274,955,ls),
(228,955,o),
(139,879,o),
(139,821,qs),
(139,812,ls),
(139,752,o),
(225,678,o),
(277,678,qs),
(282,678,l)
);
},
{
closed = 1;
nodes = (
(305,681,l),
(352,681,o),
(425,766,o),
(425,812,qs),
(425,826,ls),
(425,876,o),
(349,952,o),
(314,952,qs),
(307,952,o),
(292,955,q),
(274,955,ls),
(228,955,o),
(139,879,o),
(139,821,qs),
(139,812,ls),
(139,752,o),
(225,678,o),
(277,678,qs),
(282,678,l)
);
}
);
};
layerId = "9BE5C8F1-5E5D-4A4F-AAC2-5BCBDB5A5B12";
shapes = (
{
closed = 1;
nodes = (
(307,-2,l),
(354,-2,o),
(425,0,o),
(425,130,qs),
(425,213,ls),
(425,268,o),
(351,272,o),
(316,272,qs),
(309,272,o),
(294,272,q),
(276,272,ls),
(230,272,o),
(141,263,o),
(141,197,qs),
(141,130,ls),
(141,0,o),
(227,-2,o),
(279,-2,qs),
(284,-2,l)
);
},
{
closed = 1;
nodes = (
(307,678,l),
(354,678,o),
(425,680,o),
(425,810,qs),
(425,893,ls),
(425,948,o),
(351,952,o),
(316,952,qs),
(309,952,o),
(294,952,q),
(276,952,ls),
(230,952,o),
(141,943,o),
(141,877,qs),
(141,810,ls),
(141,680,o),
(227,678,o),
(279,678,qs),
(284,678,l)
);
}
);
width = 551;
}
);
note = uni003A;
unicode = 58;
},
{
glyphname = semicolon;
lastChange = "2024-03-08 14:30:06 +0000";
layers = (
{
layerId = m01;
shapes = (
{
closed = 1;
nodes = (
(302,626,l),
(349,626,o),
(422,711,o),
(422,757,qs),
(422,771,ls),
(422,821,o),
(346,897,o),
(311,897,qs),
(304,897,o),
(289,900,q),
(271,900,ls),
(225,900,o),
(136,824,o),
(136,766,qs),
(136,757,ls),
(136,697,o),
(222,623,o),
(274,623,qs),
(279,623,l)
);
},
{
closed = 1;
nodes = (
(360,268,o),
(297,268,qs),
(272,268,ls),
(217,268,o),
(148,192,o),
(148,88,o),
(258,-22,o),
(258,-39,qs),
(258,-99,o),
(216,-154,qs),
(143,-249,l),
(143,-255,ls),
(143,-288,o),
(178,-288,qs),
(184,-288,ls),
(262,-288,o),
(363,-142,qs),
(437,-35,o),
(437,75,qs),
(437,108,ls),
(437,183,o)
);
}
);
width = 563;
},
{
background = {
shapes = (
{
closed = 1;
nodes = (
(360,268,o),
(297,268,qs),
(272,268,ls),
(217,268,o),
(148,192,o),
(148,88,o),
(258,-22,o),
(258,-39,qs),
(258,-99,o),
(216,-154,qs),
(143,-249,l),
(143,-255,ls),
(143,-288,o),
(178,-288,qs),
(184,-288,ls),
(262,-288,o),
(363,-142,qs),
(437,-35,o),
(437,75,qs),
(437,108,ls),
(437,183,o)
);
}
);
};
layerId = "9BE5C8F1-5E5D-4A4F-AAC2-5BCBDB5A5B12";
shapes = (
{
closed = 1;
nodes = (
(303,627,l),
(350,627,o),
(421,629,o),
(421,759,qs),
(421,842,ls),
(421,897,o),
(347,901,o),
(312,901,qs),
(305,901,o),
(290,901,q),
(272,901,ls),
(226,901,o),
(137,892,o),
(137,826,qs),
(137,759,ls),
(137,629,o),
(223,627,o),
(275,627,qs),
(280,627,l)
);
},
{
closed = 1;
nodes = (
(363,272,o),
(300,272,qs),
(275,272,ls),
(220,272,o),
(151,196,o),
(147,92,o),
(147,36,o),
(147,21,qs),
(147,-20,o),
(147,-131,qs),
(147,-176,l),
(146,-251,ls),
(146,-284,o),
(181,-284,qs),
(187,-284,ls),
(265,-284,o),
(366,-138,qs),
(440,-31,o),
(440,79,qs),
(440,112,ls),
(440,187,o)
);
}
);
width = 563;
}
);
note = uni003B;
unicode = 59;
},
{
glyphname = ellipsis;
lastChange = "2024-03-08 14:33:10 +0000";
layers = (
{
background = {
shapes = (
{
closed = 1;
nodes = (
(392,80,o),
(392,109,qs),
(392,113,o),
(395,127,q),
(395,136,l),
(396,140,l),
(396,145,l),
(393,168,l),
(393,203,o),
(321,275,o),
(275,275,o),
(260,278,q),
(233,275,l),
(193,275,o),
(117,199,o),
(117,170,qs),
(117,165,o),
(114,153,q),
(114,126,ls),
(114,80,o),
(189,5,o),
(223,5,qs),
(226,5,o),
(236,3,q),
(245,3,l),
(250,2,l),
(259,2,ls),
(314,2,o)
);
},
{
closed = 1;
nodes = (
(944,77,o),
(944,131,qs),
(944,154,ls),
(944,213,o),
(854,277,o),
(809,277,q),
(805,278,l),
(744,278,o),
(662,196,o),
(662,145,qs),
(662,135,l),
(665,113,l),
(665,78,o),
(737,6,o),
(766,6,q),
(784,3,l),
(793,3,l),
(798,2,l),
(807,2,ls),
(856,2,o)
);
},
{
closed = 1;
nodes = (
(1490,74,o),
(1490,113,qs),
(1490,121,o),
(1493,136,q),
(1493,150,ls),
(1493,200,o),
(1419,274,o),
(1388,274,qs),
(1385,274,o),
(1371,277,q),
(1362,277,l),
(1358,278,l),
(1348,278,ls),
(1299,278,o),
(1211,203,o),
(1211,149,qs),
(1211,126,ls),
(1211,68,o),
(1303,2,o),
(1346,2,qs),
(1355,2,ls),
(1404,2,o)
);
}
);
};
layerId = m01;
shapes = (
{
closed = 1;
nodes = (
(282,4,l),
(329,4,o),
(402,89,o),
(402,135,qs),
(402,149,ls),
(402,199,o),
(326,275,o),
(291,275,qs),
(284,275,o),
(269,278,q),
(251,278,ls),
(205,278,o),
(116,202,o),
(116,144,qs),
(116,135,ls),
(116,75,o),
(202,1,o),
(254,1,qs),
(259,1,l)
);
},
{
closed = 1;
nodes = (
(829,4,l),
(876,4,o),
(949,89,o),
(949,135,qs),
(949,149,ls),
(949,199,o),
(873,275,o),
(838,275,qs),
(831,275,o),
(816,278,q),
(798,278,ls),
(752,278,o),
(663,202,o),
(663,144,qs),
(663,135,ls),
(663,75,o),
(749,1,o),
(801,1,qs),
(806,1,l)
);
},
{
closed = 1;
nodes = (
(1374,4,l),
(1421,4,o),
(1494,89,o),
(1494,135,qs),
(1494,149,ls),
(1494,199,o),
(1418,275,o),
(1383,275,qs),
(1376,275,o),
(1361,278,q),
(1343,278,ls),
(1297,278,o),
(1208,202,o),
(1208,144,qs),
(1208,135,ls),
(1208,75,o),
(1294,1,o),
(1346,1,qs),
(1351,1,l)
);
}
);
width = 1612;
},
{
background = {
shapes = (
{
closed = 1;
nodes = (
(392,80,o),
(392,109,qs),
(392,113,o),
(395,127,q),
(395,136,l),
(396,140,l),
(396,145,l),
(393,168,l),
(393,203,o),
(321,275,o),
(275,275,o),
(260,278,q),
(233,275,l),
(193,275,o),
(117,199,o),
(117,170,qs),
(117,165,o),
(114,153,q),
(114,126,ls),
(114,80,o),
(189,5,o),
(223,5,qs),
(226,5,o),
(236,3,q),
(245,3,l),
(250,2,l),
(259,2,ls),
(314,2,o)
);
},
{
closed = 1;
nodes = (
(944,77,o),
(944,131,qs),
(944,154,ls),
(944,213,o),
(854,277,o),
(809,277,q),
(805,278,l),
(744,278,o),
(662,196,o),
(662,145,qs),
(662,135,l),
(665,113,l),
(665,78,o),
(737,6,o),
(766,6,q),
(784,3,l),
(793,3,l),
(798,2,l),
(807,2,ls),
(856,2,o)
);
},
{
closed = 1;
nodes = (
(1490,74,o),
(1490,113,qs),
(1490,121,o),
(1493,136,q),
(1493,150,ls),
(1493,200,o),
(1419,274,o),
(1388,274,qs),
(1385,274,o),
(1371,277,q),
(1362,277,l),
(1358,278,l),
(1348,278,ls),
(1299,278,o),
(1211,203,o),
(1211,149,qs),
(1211,126,ls),
(1211,68,o),
(1303,2,o),
(1346,2,qs),
(1355,2,ls),
(1404,2,o)
);
}
);
};
layerId = "9BE5C8F1-5E5D-4A4F-AAC2-5BCBDB5A5B12";
shapes = (
{
closed = 1;
nodes = (
(282,1,l),
(329,1,o),
(400,3,o),
(400,133,qs),
(400,216,ls),
(400,271,o),
(326,275,o),
(291,275,qs),
(284,275,o),
(269,275,q),
(251,275,ls),
(205,275,o),
(116,266,o),
(116,200,qs),
(116,133,ls),
(116,3,o),
(202,1,o),
(254,1,qs),
(259,1,l)
);
},
{
closed = 1;
nodes = (
(829,1,l),
(876,1,o),
(947,3,o),
(947,133,qs),
(947,216,ls),
(947,271,o),
(873,275,o),
(838,275,qs),
(831,275,o),
(816,275,q),
(798,275,ls),
(752,275,o),
(663,266,o),
(663,200,qs),
(663,133,ls),
(663,3,o),
(749,1,o),
(801,1,qs),
(806,1,l)
);
},
{
closed = 1;
nodes = (
(1376,1,l),
(1423,1,o),
(1494,3,o),
(1494,133,qs),
(1494,216,ls),
(1494,271,o),
(1420,275,o),
(1385,275,qs),
(1378,275,o),
(1363,275,q),
(1345,275,ls),
(1299,275,o),
(1210,266,o),
(1210,200,qs),
(1210,133,ls),
(1210,3,o),
(1296,1,o),
(1348,1,qs),
(1353,1,l)
);
}
);
width = 1612;
}
);
note = uni2026;
unicode = 8230;
},
{
glyphname = exclam;
lastChange = "2024-03-08 14:42:56 +0000";
layers = (
{
background = {
shapes = (
{
closed = 1;
nodes = (
(328,-21,l),
(381,-21,o),
(445,69,o),
(445,106,qs),
(445,119,ls),
(445,169,o),
(362,239,o),
(317,239,qs),
(294,239,ls),
(255,239,o),
(163,173,o),
(163,114,qs),
(163,97,ls),
(163,47,o),
(245,-24,o),
(296,-24,qs),
(305,-24,l)
);
}
);
};
layerId = m01;
shapes = (
{
closed = 1;
nodes = (
(341,1429,qs),
(317,1429,ls),
(243,1429,o),
(184,1366,o),
(184,1301,qs),
(184,1269,l),
(185,1225,l),
(187,1202,ls),
(188,1190,o),
(189,1155,o),
(192,1092,o),
(198,1026,qs),
(202,978,l),
(202,797,o),
(243,483,qs),
(254,398,o),
(289,398,qs),
(312,398,ls),
(356,398,o),
(364,463,qs),
(429,961,o),
(429,1144,qs),
(429,1155,o),
(430,1167,qs),
(432,1190,ls),
(433,1201,o),
(433,1213,qs),
(434,1237,l),
(435,1248,l),
(435,1304,ls),
(435,1429,o)
);
},
{
closed = 1;
nodes = (
(326,-29,ls),
(373,-23,o),
(446,56,o),
(446,102,qs),
(446,116,ls),
(446,166,o),
(370,235,o),
(335,242,qs),
(328,243,o),
(313,245,q),
(295,245,ls),
(249,245,o),
(160,169,o),
(160,111,qs),
(160,102,ls),
(160,42,o),
(246,-32,o),
(298,-32,qs),
(303,-32,l)
);
}
);
width = 601;
},
{
layerId = "9BE5C8F1-5E5D-4A4F-AAC2-5BCBDB5A5B12";
shapes = (
{
closed = 1;
nodes = (
(340,1429,qs),
(317,1429,ls),
(317,1429,o),
(185,1421,o),
(185,1301,qs),
(185,1269,l),
(185,1225,l),
(185,1202,ls),
(185,1190,o),
(185,1112,o),
(185,1037,o),
(185,971,qs),
(185,862,l),
(185,664,o),
(185,510,qs),
(185,398,o),
(289,398,qs),
(333,398,ls),
(433,398,o),
(432,538,qs),
(431,614,o),
(432,1144,qs),
(432,1145,o),
(432,1167,qs),
(432,1190,ls),
(432,1201,o),
(432,1213,qs),
(432,1237,l),
(432,1248,l),
(432,1304,ls),
(432,1429,o)
);
},
{
closed = 1;
nodes = (
(331,-22,l),
(378,-22,o),
(449,-20,o),
(449,110,qs),
(449,193,ls),
(449,248,o),
(375,252,o),
(340,252,qs),
(333,252,o),
(318,252,q),
(300,252,ls),
(254,252,o),
(165,243,o),
(165,177,qs),
(165,110,ls),
(165,-20,o),
(251,-22,o),
(303,-22,qs),
(308,-22,l)
);
}
);
width = 601;
}
);
note = uni0021;
unicode = 33;
},
{
glyphname = question;
lastChange = "2024-03-08 16:42:25 +0000";
layers = (
{
background = {
shapes = (
{
closed = 1;
nodes = (
(549,43,o),
(549,99,qs),
(549,113,ls),
(549,154,o),
(479,238,o),
(426,238,qs),
(399,238,ls),
(358,238,o),
(272,166,o),
(272,114,qs),
(272,96,ls),
(272,40,o),
(356,-30,o),
(404,-30,qs),
(413,-30,ls),
(461,-30,o)
);
}
);
};
layerId = m01;
shapes = (
{
closed = 1;
nodes = (
(777,1287,o),
(726,1328,qs),
(606,1423,o),
(437,1423,qs),
(417,1423,ls),
(284,1423,o),
(181,1360,qs),
(99,1310,o),
(99,1212,qs),
(99,1194,ls),
(99,1110,o),
(172,1110,qs),
(210,1110,o),
(292,1196,qs),
(350,1257,o),
(509,1257,o),
(608,1175,o),
(608,1032,o),
(559,930,o),
(382,732,o),
(372,715,qs),
(328,646,o),
(328,484,o),
(376,387,o),
(455,387,o),
(468,414,qs),
(474,426,o),
(479,511,o),
(487,573,o),
(532,632,o),
(734,806,o),
(840,961,o),
(840,1062,qs),
(840,1101,ls),
(840,1158,o)
);
},
{
closed = 1;
nodes = (
(432,-31,l),
(479,-31,o),
(552,54,o),
(552,100,qs),
(552,114,ls),
(552,164,o),
(476,240,o),
(441,240,qs),
(434,240,o),
(419,243,q),
(401,243,ls),
(355,243,o),
(266,167,o),
(266,109,qs),
(266,100,ls),
(266,40,o),
(352,-34,o),
(404,-34,qs),
(409,-34,l)
);
}
);
width = 938;
},
{
layerId = "9BE5C8F1-5E5D-4A4F-AAC2-5BCBDB5A5B12";
shapes = (
{
closed = 1;
nodes = (
(777,1287,o),
(726,1328,qs),
(606,1423,o),
(437,1423,qs),
(417,1423,ls),
(284,1423,o),
(181,1360,qs),
(99,1310,o),
(99,1212,qs),
(99,1194,ls),
(99,1152,o),
(98,1056,qs),
(98,976,o),
(98,970,qs),
(98,907,o),
(96,781,o),
(96,740,o),
(96,666,o),
(96,612,o),
(96,542,o),
(96,500,qs),
(96,387,o),
(245,387,o),
(376,387,o),
(648,387,o),
(678,387,qs),
(800,387,o),
(812,505,o),
(812,612,o),
(812,740,o),
(812,843,o),
(812,961,o),
(812,1062,qs),
(812,1101,ls),
(812,1158,o)
);
},
{
closed = 1;
nodes = (
(514,-22,l),
(658,-22,o),
(809,-21,o),
(809,110,qs),
(809,193,ls),
(809,248,o),
(624,252,o),
(535,252,qs),
(519,252,o),
(481,252,q),
(436,252,ls),
(321,252,o),
(99,252,o),
(99,177,qs),
(99,110,ls),
(99,-20,o),
(290,-22,o),
(443,-22,qs),
(456,-22,l)
);
}
);
width = 938;
}
);
note = uni003F;
unicode = 63;
},
{
glyphname = asterisk;
lastChange = "2024-03-08 16:57:25 +0000";
layers = (
{
layerId = m01;
shapes = (
{
closed = 1;
nodes = (
(411,1379,o),
(411,1328,q),
(420,1186,ls),
(420,1167,o),
(414,1167,qs),
(391,1167,o),
(264,1257,o),
(200,1257,o),
(151,1216,o),
(151,1166,o),
(223,1088,o),
(289,1048,o),
(289,1044,o),
(204,951,o),
(204,915,qs),
(204,842,o),
(243,842,qs),
(251,842,o),
(294,850,qs),
(323,856,ls),
(348,861,o),
(353,861,qs),
(375,861,o),
(396,741,o),
(424,741,qs),
(438,741,ls),
(476,741,o),
(512,765,qs),
(524,773,o),
(552,856,o),
(567,856,qs),
(572,856,o),
(617,831,o),
(698,803,o),
(717,803,qs),
(763,803,o),
(763,910,o),
(681,973,qs),
(637,1007,o),
(637,1033,qs),
(637,1036,o),
(720,1067,qs),
(835,1110,o),
(835,1167,qs),
(835,1200,o),
(790,1247,o),
(725,1247,o),
(556,1141,o),
(542,1141,o),
(542,1159,o),
(568,1314,o),
(568,1354,qs),
(568,1432,o),
(486,1433,qs),
(444,1433,o)
);
}
);
width = 946;
},
{
layerId = "9BE5C8F1-5E5D-4A4F-AAC2-5BCBDB5A5B12";
shapes = (
{
closed = 1;
nodes = (
(410,1410,o),
(375,1386,qs),
(346,1366,ls),
(316,1345,o),
(288,1326,qs),
(263,1306,o),
(243,1289,o),
(200,1257,o),
(151,1216,o),
(151,1175,o),
(165,1111,o),
(175,1064,o),
(186,1007,o),
(195,948,o),
(202,909,qs),
(203,860,o),
(228,845,qs),
(250,833,o),
(288,809,qs),
(304,799,ls),
(317,791,o),
(344,772,qs),
(367,756,o),
(391,740,o),
(419,741,qs),
(457,743,ls),
(489,746,o),
(507,751,qs),
(537,756,o),
(562,761,o),
(582,765,qs),
(616,772,o),
(655,781,o),
(688,790,o),
(733,803,qs),
(759,811,o),
(778,909,o),
(787,945,qs),
(797,984,o),
(800,1002,qs),
(806,1028,o),
(813,1057,qs),
(828,1108,o),
(835,1157,qs),
(841,1190,o),
(790,1247,o),
(767,1264,o),
(739,1285,o),
(727,1295,o),
(702,1312,o),
(601,1380,o),
(583,1394,qs),
(532,1434,o),
(486,1433,qs),
(444,1432,o)
);
}
);
width = 946;
}
);
note = uni002A;
unicode = 42;
},
{
glyphname = numbersign;
lastChange = "2024-03-08 16:47:20 +0000";
layers = (
{
layerId = m01;
shapes = (
{
closed = 1;
nodes = (
(766,810,qs),
(766,805,l),
(761,780,l),
(719,582,l),
(719,537,o),
(674,522,o),
(582,522,qs),
(571,522,l),
(565,521,l),
(500,521,ls),
(450,521,o),
(450,531,qs),
(450,540,l),
(453,555,l),
(453,570,o),
(491,709,o),
(491,800,o),
(532,825,o),
(640,825,q),
(645,826,l),
(699,826,ls),
(766,826,o)
);
},
{
closed = 1;
nodes = (
(545,999,q),
(586,1238,l),
(586,1313,o),
(533,1313,qs),
(488,1313,o),
(453,1247,o),
(408,1024,o),
(351,957,o),
(194,934,o),
(183,929,qs),
(146,911,o),
(146,864,qs),
(146,825,o),
(352,809,o),
(352,770,qs),
(352,607,o),
(299,550,qs),
(279,528,o),
(138,522,o),
(120,512,qs),
(84,493,o),
(84,409,o),
(225,388,o),
(260,350,o),
(260,269,o),
(229,104,o),
(229,70,qs),
(229,29,o),
(334,29,o),
(360,99,qs),
(369,123,o),
(415,354,o),
(423,367,qs),
(443,401,o),
(672,401,o),
(672,339,o),
(632,124,o),
(632,100,qs),
(632,30,o),
(732,30,o),
(752,69,qs),
(755,75,o),
(814,320,o),
(864,392,o),
(1020,408,o),
(1036,415,qs),
(1072,430,o),
(1072,524,o),
(863,533,o),
(863,568,qs),
(863,725,o),
(912,790,qs),
(931,815,o),
(1079,826,o),
(1090,831,qs),
(1133,848,o),
(1133,886,qs),
(1133,932,o),
(1000,960,o),
(961,990,o),
(961,1094,o),
(985,1230,o),
(985,1261,qs),
(985,1309,o),
(884,1309,o),
(860,1253,qs),
(848,1225,o),
(802,996,o),
(796,984,qs),
(778,945,o),
(576,945,o),
(545,964,o)
);
}
);
width = 1235;
},
{
layerId = "9BE5C8F1-5E5D-4A4F-AAC2-5BCBDB5A5B12";
shapes = (
{
closed = 1;
nodes = (
(608,673,qs),
(608,673,l),
(608,673,l),
(608,674,l),
(608,674,o),
(608,674,o),
(608,674,qs),
(608,674,l),
(608,674,l),
(608,674,ls),
(608,674,o),
(608,674,qs),
(608,674,l),
(608,674,l),
(608,674,o),
(608,673,o),
(608,673,o),
(608,673,o),
(608,673,q),
(608,673,l),
(608,673,ls),
(608,673,o)
);
},
{
closed = 1;
nodes = (
(647,1313,q),
(586,1313,l),
(565,1313,o),
(533,1313,qs),
(487,1313,o),
(453,1247,o),
(408,1024,o),
(351,957,o),
(194,934,o),
(183,929,qs),
(146,911,o),
(146,864,qs),
(146,825,o),
(141,760,o),
(139,725,qs),
(137,686,o),
(134,645,qs),
(132,612,o),
(130,563,o),
(128,538,qs),
(125,492,o),
(119,401,o),
(225,388,o),
(260,350,o),
(260,269,o),
(229,104,o),
(229,70,qs),
(229,29,o),
(331,30,o),
(360,30,qs),
(382,30,o),
(408,30,o),
(436,30,qs),
(470,30,o),
(505,30,o),
(565,30,o),
(600,30,o),
(612,30,qs),
(634,30,o),
(738,30,o),
(752,69,qs),
(754,74,o),
(814,320,o),
(864,392,o),
(1020,408,o),
(1036,415,qs),
(1072,430,o),
(1090,563,o),
(1104,662,o),
(1110,694,qs),
(1115,720,o),
(1119,760,qs),
(1122,782,o),
(1126,814,o),
(1128,831,qs),
(1131,856,o),
(1133,886,qs),
(1131,931,o),
(1000,960,o),
(961,990,o),
(961,1094,o),
(985,1230,o),
(985,1261,qs),
(985,1309,o),
(837,1313,o),
(814,1313,qs),
(789,1313,o),
(778,1313,o),
(772,1313,qs),
(745,1313,o),
(697,1313,o),
(678,1313,o)
);
}
);
width = 1235;
}
);
note = uni0023;
unicode = 35;
},
{
glyphname = slash;
lastChange = "2024-03-08 16:59:45 +0000";
layers = (
{
layerId = m01;
shapes = (
{
closed = 1;
nodes = (
(635,1351,qs),
(36,-47,o),
(36,-156,qs),
(36,-178,o),
(91,-178,qs),
(109,-178,ls),
(165,-178,o),
(212,-72,qs),
(300,127,o),
(775,1315,qs),
(818,1422,o),
(818,1472,o),
(763,1472,qs),
(745,1472,ls),
(687,1472,o)
);
}
);
width = 847;
},
{
layerId = "9BE5C8F1-5E5D-4A4F-AAC2-5BCBDB5A5B12";
shapes = (
{
closed = 1;
nodes = (
(618,1351,qs),
(13,-45,o),
(36,-156,qs),
(36,-178,o),
(91,-178,qs),
(109,-178,ls),
(186,-178,o),
(232,-82,qs),
(334,109,o),
(795,1305,qs),
(838,1411,o),
(818,1471,o),
(763,1471,qs),
(745,1471,ls),
(670,1471,o)
);
}
);
width = 847;
}
);
note = uni002F;
unicode = 47;
},
{
glyphname = hyphen;
lastChange = "2024-03-08 17:00:15 +0000";
layers = (
{
layerId = m01;
shapes = (
{
closed = 1;
nodes = (
(679,635,qs),
(628,635,l),
(434,631,ls),
(178,631,o),
(152,625,qs),
(111,616,o),
(111,553,qs),
(111,515,ls),
(111,479,o),
(146,479,qs),
(196,479,l),
(218,480,l),
(248,480,l),
(255,481,l),
(300,481,l),
(315,482,l),
(352,482,l),
(375,483,l),
(398,483,ls),
(647,483,o),
(721,500,o),
(721,563,qs),
(721,600,ls),
(721,635,o)
);
}
);
width = 828;
},
{
layerId = "9BE5C8F1-5E5D-4A4F-AAC2-5BCBDB5A5B12";
shapes = (
{
closed = 1;
nodes = (
(679,675,qs),
(628,675,l),
(434,671,ls),
(178,666,o),
(152,665,qs),
(111,656,o),
(111,553,qs),
(111,485,ls),
(111,449,o),
(146,449,qs),
(196,449,l),
(218,450,l),
(248,450,l),
(255,451,l),
(300,451,l),
(315,452,l),
(352,452,l),
(375,453,l),
(398,453,ls),
(647,453,o),
(721,470,o),
(721,563,qs),
(721,640,ls),
(721,675,o)
);
}
);
width = 828;
}
);
note = uni002D;
unicode = 45;
},
{
glyphname = endash;
lastChange = "2024-03-17 01:45:33 +0000";
layers = (
{
layerId = m01;
shapes = (
{
closed = 1;
nodes = (
(963,617,qs),
(786,617,l),
(576,616,ls),
(155,616,o),
(132,612,qs),
(98,606,o),
(98,546,q),
(97,535,ls),
(97,499,o),
(120,480,o),
(181,480,qs),
(222,481,l),
(264,481,l),
(285,482,l),
(536,482,ls),
(964,482,o),
(982,486,qs),
(1016,494,o),
(1016,542,qs),
(1016,583,ls),
(1016,617,o)
);
}
);
width = 1113;
},
{
layerId = "9BE5C8F1-5E5D-4A4F-AAC2-5BCBDB5A5B12";
shapes = (
{
closed = 1;
nodes = (
(702,647,qs),
(525,647,l),
(315,646,ls),
(-106,644,o),
(-129,642,qs),
(-163,636,o),
(-163,546,q),
(-164,535,ls),
(-167,499,o),
(-141,449,o),
(-80,450,qs),
(-39,451,l),
(3,451,l),
(24,452,l),
(275,452,ls),
(703,452,o),
(721,456,qs),
(755,464,o),
(755,542,qs),
(755,583,ls),
(755,647,o)
);
}
);
width = 600;
}
);
note = uni2013;
unicode = 8211;
},
{
glyphname = emdash;
lastChange = "2024-03-17 01:51:37 +0000";
layers = (
{
layerId = m01;
shapes = (
{
closed = 1;
nodes = (
(1242,616,l),
(1225,617,l),
(1173,617,l),
(895,616,ls),
(176,616,o),
(144,613,qs),
(84,607,o),
(84,546,qs),
(84,529,ls),
(84,481,o),
(160,481,qs),
(382,481,l),
(434,482,l),
(864,482,ls),
(1587,482,o),
(1619,485,qs),
(1680,491,o),
(1680,552,qs),
(1680,569,ls),
(1680,617,o),
(1604,617,qs),
(1294,617,l)
);
}
);
width = 1763;
},
{
layerId = "9BE5C8F1-5E5D-4A4F-AAC2-5BCBDB5A5B12";
shapes = (
{
closed = 1;
nodes = (
(662,657,l),
(645,658,l),
(593,658,l),
(315,657,ls),
(-404,654,o),
(-436,654,qs),
(-496,648,o),
(-496,546,qs),
(-496,529,ls),
(-496,448,o),
(-420,448,qs),
(-198,448,l),
(-146,449,l),
(284,449,ls),
(1007,449,o),
(1039,452,qs),
(1100,458,o),
(1100,552,qs),
(1100,569,ls),
(1100,658,o),
(1024,658,qs),
(714,658,l)
);
}
);
width = 600;
}
);
note = uni2014;
unicode = 8212;
},
{
glyphname = parenleft;
lastChange = "2024-03-08 19:39:20 +0000";
layers = (
{
layerId = m01;
shapes = (
{
closed = 1;
nodes = (
(568,1393,qs),
(615,1454,o),
(615,1469,qs),
(615,1485,ls),
(615,1517,o),
(577,1517,qs),
(559,1517,ls),
(509,1517,o),
(388,1374,qs),
(213,1169,o),
(152,885,qs),
(122,746,o),
(122,625,qs),
(122,603,l),
(121,581,ls),
(121,438,o),
(150,303,qs),
(216,-1,o),
(412,-218,qs),
(510,-326,o),
(558,-326,qs),
(607,-326,o),
(607,-285,qs),
(607,-261,o),
(555,-189,qs),
(450,-48,o),
(407,84,qs),
(327,324,o),
(327,594,qs),
(327,1080,o)
);
}
);
width = 684;
},
{
layerId = "9BE5C8F1-5E5D-4A4F-AAC2-5BCBDB5A5B12";
shapes = (
{
closed = 1;
nodes = (
(609,1160,qs),
(609,1288,o),
(615,1469,qs),
(615,1485,ls),
(615,1517,o),
(577,1517,qs),
(559,1517,ls),
(509,1517,o),
(388,1374,qs),
(213,1169,o),
(152,885,qs),
(122,746,o),
(122,625,qs),
(122,603,l),
(121,581,ls),
(115,438,o),
(150,303,qs),
(216,-1,o),
(412,-218,qs),
(510,-326,o),
(558,-326,qs),
(607,-326,o),
(607,-285,qs),
(609,-88,o),
(609,0,qs),
(609,132,o),
(609,243,qs),
(609,391,o),
(609,594,qs),
(609,1013,o)
);
}
);
width = 684;
}
);
note = uni0028;
unicode = 40;
},
{
glyphname = parenright;
lastChange = "2024-03-08 19:40:15 +0000";
layers = (
{
layerId = m01;
shapes = (
{
closed = 1;
nodes = (
(70,-261,o),
(70,-280,qs),
(70,-296,ls),
(70,-326,o),
(109,-326,qs),
(128,-326,ls),
(173,-326,o),
(272,-213,qs),
(568,123,o),
(568,591,qs),
(568,613,ls),
(568,756,o),
(539,891,qs),
(471,1203,o),
(276,1412,qs),
(178,1516,o),
(130,1517,qs),
(81,1517,o),
(81,1475,qs),
(81,1470,o),
(190,1297,qs),
(359,1029,o),
(359,189,o),
(197,-82,qs),
(167,-132,o)
);
}
);
width = 683;
},
{
layerId = "9BE5C8F1-5E5D-4A4F-AAC2-5BCBDB5A5B12";
shapes = (
{
closed = 1;
nodes = (
(70,-261,o),
(70,-280,qs),
(70,-296,ls),
(70,-326,o),
(109,-326,qs),
(128,-326,ls),
(173,-326,o),
(272,-213,qs),
(568,123,o),
(568,591,qs),
(568,613,ls),
(568,756,o),
(539,891,qs),
(471,1203,o),
(276,1412,qs),
(178,1516,o),
(130,1517,qs),
(81,1517,o),
(81,1475,qs),
(85,1003,o),
(82,800,qs),
(79,570,o),
(74,283,o),
(74,106,qs),
(74,49,o)
);
}
);
width = 683;
}
);
note = uni0029;
unicode = 41;
},
{
glyphname = braceleft;
lastChange = "2024-03-17 02:13:22 +0000";
layers = (
{
layerId = m01;
shapes = (
{
closed = 1;
nodes = (
(338,1515,o),
(286,1318,qs),
(268,1250,o),
(268,1145,qs),
(272,967,ls),
(272,802,o),
(225,702,o),
(80,630,o),
(80,616,qs),
(80,571,o),
(212,516,o),
(271,427,o),
(271,317,qs),
(265,90,ls),
(265,-132,o),
(327,-212,qs),
(363,-259,o),
(495,-311,o),
(654,-311,o),
(654,-282,qs),
(654,-244,o),
(524,-177,o),
(463,-90,o),
(463,83,o),
(465,133,qs),
(469,233,l),
(469,403,o),
(400,543,o),
(320,587,qs),
(296,600,o),
(297,608,qs),
(297,611,o),
(358,646,o),
(382,666,qs),
(471,740,o),
(471,941,qs),
(471,991,o),
(469,1041,qs),
(465,1141,ls),
(465,1278,o),
(513,1372,o),
(663,1449,o),
(663,1515,o),
(596,1515,qs),
(593,1515,ls)
);
}
);
width = 752;
},
{
layerId = "9BE5C8F1-5E5D-4A4F-AAC2-5BCBDB5A5B12";
shapes = (
{
closed = 1;
nodes = (
(268,1515,o),
(216,1318,qs),
(196,1250,o),
(198,1145,qs),
(202,967,ls),
(206,802,o),
(204,722,o),
(201,617,o),
(201,603,qs),
(201,558,o),
(202,508,o),
(204,427,o),
(201,317,qs),
(195,90,ls),
(189,-132,o),
(257,-212,qs),
(293,-259,o),
(425,-311,o),
(592,-317,o),
(593,-236,qs),
(594,-135,o),
(595,-88,o),
(595,-39,o),
(595,83,o),
(595,133,qs),
(595,233,l),
(595,403,o),
(595,484,o),
(595,573,qs),
(595,592,o),
(595,636,qs),
(595,639,o),
(595,730,o),
(595,750,qs),
(595,853,o),
(595,941,qs),
(595,991,o),
(595,1041,qs),
(595,1141,ls),
(595,1278,o),
(595,1360,o),
(595,1449,o),
(593,1515,o),
(526,1515,qs),
(523,1515,ls)
);
}
);
width = 600;
}
);
note = uni007B;
unicode = 123;
},
{
glyphname = braceright;
lastChange = "2024-03-17 02:15:36 +0000";
layers = (
{
layerId = m01;
shapes = (
{
closed = 1;
nodes = (
(236,1380,o),
(293,1296,o),
(293,1172,q),
(285,971,l),
(285,802,o),
(344,680,o),
(455,599,o),
(455,597,o),
(419,576,qs),
(356,539,o),
(284,409,o),
(284,263,qs),
(288,88,ls),
(288,-71,o),
(239,-167,o),
(91,-243,o),
(91,-280,qs),
(91,-310,o),
(246,-310,o),
(321,-281,qs),
(480,-220,o),
(480,59,qs),
(477,237,ls),
(477,414,o),
(539,517,o),
(669,569,o),
(669,612,qs),
(669,633,o),
(538,692,o),
(476,779,o),
(476,886,qs),
(483,1138,ls),
(483,1350,o),
(333,1515,o),
(168,1515,qs),
(143,1515,ls),
(100,1515,o),
(100,1486,qs),
(100,1449,o)
);
}
);
width = 759;
},
{
layerId = "9BE5C8F1-5E5D-4A4F-AAC2-5BCBDB5A5B12";
shapes = (
{
closed = 1;
nodes = (
(11,1380,o),
(11,1296,o),
(11,1172,q),
(11,971,l),
(11,802,o),
(11,740,o),
(11,683,o),
(11,615,o),
(11,581,qs),
(11,492,o),
(11,409,o),
(11,263,qs),
(11,88,ls),
(11,-71,o),
(11,-125,o),
(11,-166,o),
(11,-249,qs),
(11,-310,o),
(166,-310,o),
(241,-281,qs),
(405,-220,o),
(400,59,qs),
(397,237,ls),
(394,414,o),
(396,517,o),
(393,569,o),
(393,612,qs),
(393,633,o),
(396,707,o),
(393,779,o),
(396,886,qs),
(403,1138,ls),
(409,1350,o),
(253,1515,o),
(88,1515,qs),
(63,1515,ls),
(13,1515,o),
(11,1469,qs),
(9,1414,o)
);
}
);
width = 600;
}
);
note = uni007D;
unicode = 125;
},
{
glyphname = quotedblleft;
lastChange = "2024-03-17 02:05:02 +0000";
layers = (
{
layerId = m01;
shapes = (
{
closed = 1;
nodes = (
(386,986,o),
(386,1034,qs),
(386,1048,ls),
(386,1092,o),
(267,1199,o),
(267,1228,qs),
(267,1279,o),
(307,1332,qs),
(369,1415,l),
(369,1458,o),
(338,1458,qs),
(326,1458,ls),
(260,1458,o),
(100,1245,o),
(100,1128,qs),
(100,1120,l),
(99,1112,l),
(99,1019,o),
(178,922,o),
(238,922,qs),
(269,922,ls),
(307,922,o)
);
},
{
closed = 1;
nodes = (
(571,923,o),
(630,923,qs),
(661,923,ls),
(700,923,o),
(779,987,o),
(779,1034,qs),
(779,1048,ls),
(779,1093,o),
(660,1200,o),
(660,1222,qs),
(660,1279,o),
(761,1413,o),
(761,1420,qs),
(761,1458,o),
(724,1458,qs),
(653,1458,o),
(492,1243,o),
(492,1120,qs),
(492,1105,ls),
(492,1019,o)
);
}
);
width = 898;
},
{
layerId = "9BE5C8F1-5E5D-4A4F-AAC2-5BCBDB5A5B12";
shapes = (
{
closed = 1;
nodes = (
(236,986,o),
(236,1034,qs),
(236,1048,ls),
(236,1093,o),
(236,1121,o),
(236,1200,qs),
(236,1245,o),
(236,1292,qs),
(236,1404,l),
(229,1458,o),
(188,1458,qs),
(176,1458,ls),
(110,1458,o),
(-50,1245,o),
(-50,1128,qs),
(-50,1120,l),
(-51,1112,l),
(-51,1019,o),
(28,922,o),
(88,922,qs),
(119,922,ls),
(157,922,o)
);
},
{
closed = 1;
nodes = (
(421,923,o),
(480,923,qs),
(511,923,ls),
(550,923,o),
(629,987,o),
(629,1034,qs),
(629,1048,ls),
(629,1093,o),
(629,1123,o),
(629,1145,qs),
(629,1202,o),
(629,1291,o),
(629,1404,qs),
(625,1452,o),
(574,1458,qs),
(503,1467,o),
(342,1243,o),
(342,1120,qs),
(342,1105,ls),
(342,1019,o)
);
}
);
width = 600;
}
);
note = uni201C;
unicode = 8220;
},
{
glyphname = quotedblright;
lastChange = "2024-03-17 02:05:53 +0000";
layers = (
{
layerId = m01;
shapes = (
{
closed = 1;
nodes = (
(329,1447,o),
(269,1447,qs),
(246,1447,ls),
(199,1447,o),
(125,1380,o),
(125,1332,qs),
(125,1318,ls),
(125,1279,o),
(234,1158,o),
(234,1149,qs),
(234,1093,o),
(130,955,o),
(130,953,qs),
(130,911,o),
(166,911,qs),
(242,911,o),
(403,1144,o),
(403,1244,qs),
(403,1283,ls),
(403,1357,o)
);
},
{
closed = 1;
nodes = (
(718,1448,o),
(652,1448,qs),
(645,1448,ls),
(593,1448,o),
(515,1384,o),
(515,1332,q),
(514,1325,l),
(514,1274,o),
(624,1164,o),
(624,1149,qs),
(624,1080,o),
(546,994,qs),
(520,964,o),
(520,952,qs),
(520,911,o),
(551,911,qs),
(564,911,ls),
(634,911,o),
(730,1049,qs),
(796,1144,o),
(796,1251,qs),
(796,1283,ls),
(796,1362,o)
);
}
);
width = 896;
},
{
layerId = "9BE5C8F1-5E5D-4A4F-AAC2-5BCBDB5A5B12";
shapes = (
{
closed = 1;
nodes = (
(179,1447,o),
(119,1447,qs),
(96,1447,ls),
(49,1447,o),
(-25,1380,o),
(-25,1332,qs),
(-25,1318,ls),
(-25,1279,o),
(-20,1132,o),
(-20,1123,qs),
(-20,1067,o),
(-20,955,o),
(-20,953,qs),
(-20,911,o),
(16,911,qs),
(92,911,o),
(253,1144,o),
(253,1244,qs),
(253,1283,ls),
(253,1357,o)
);
},
{
closed = 1;
nodes = (
(568,1448,o),
(502,1448,qs),
(495,1448,ls),
(443,1448,o),
(365,1384,o),
(366,1332,q),
(366,1325,l),
(366,1274,o),
(366,1228,o),
(366,1213,qs),
(366,1121,o),
(366,1050,qs),
(366,978,o),
(366,952,qs),
(376,911,o),
(401,911,qs),
(414,911,ls),
(484,911,o),
(580,1049,qs),
(646,1144,o),
(646,1251,qs),
(646,1283,ls),
(646,1362,o)
);
}
);
width = 600;
}
);
note = uni201D;
unicode = 8221;
},
{
glyphname = quoteleft;
lastChange = "2024-03-17 02:02:36 +0000";
layers = (
{
layerId = m01;
shapes = (
{
closed = 1;
nodes = (
(189,934,o),
(249,934,qs),
(280,934,ls),
(321,934,o),
(397,1003,o),
(397,1038,qs),
(397,1060,ls),
(397,1108,o),
(278,1206,o),
(278,1233,qs),
(278,1290,o),
(313,1337,qs),
(320,1346,o),
(380,1420,o),
(380,1426,qs),
(380,1469,o),
(350,1469,qs),
(344,1469,ls),
(271,1469,o),
(175,1341,qs),
(110,1254,o),
(110,1139,qs),
(110,1108,ls),
(110,1030,o)
);
}
);
width = 523;
},
{
layerId = "9BE5C8F1-5E5D-4A4F-AAC2-5BCBDB5A5B12";
shapes = (
{
closed = 1;
nodes = (
(229,934,o),
(289,934,qs),
(320,934,l),
(361,934,o),
(437,1003,o),
(437,1058,qs),
(437,1080,ls),
(437,1128,o),
(438,1206,o),
(438,1232,qs),
(438,1284,o),
(438,1325,qs),
(438,1336,o),
(438,1338,o),
(438,1367,qs),
(438,1469,o),
(390,1469,qs),
(384,1469,ls),
(310,1469,o),
(214,1341,qs),
(150,1254,o),
(150,1139,qs),
(150,1108,ls),
(150,1030,o)
);
}
);
width = 600;
}
);
note = uni2018;
unicode = 8216;
},
{
glyphname = quoteright;
lastChange = "2024-03-17 01:59:42 +0000";
layers = (
{
layerId = m01;
shapes = (
{
closed = 1;
nodes = (
(344,1462,o),
(288,1462,q),
(280,1463,l),
(265,1463,ls),
(214,1463,o),
(139,1395,o),
(139,1351,q),
(138,1344,l),
(138,1337,ls),
(138,1281,o),
(248,1191,o),
(248,1161,qs),
(248,1109,o),
(205,1052,qs),
(140,965,l),
(140,926,o),
(176,926,qs),
(182,926,ls),
(249,926,o),
(420,1154,o),
(420,1271,qs),
(420,1303,ls),
(420,1378,o)
);
}
);
width = 518;
},
{
layerId = "9BE5C8F1-5E5D-4A4F-AAC2-5BCBDB5A5B12";
shapes = (
{
closed = 1;
nodes = (
(384,1462,o),
(328,1462,q),
(320,1463,l),
(305,1463,ls),
(207,1463,o),
(179,1395,o),
(179,1351,q),
(179,1344,l),
(179,1337,ls),
(179,1281,o),
(179,1262,o),
(179,1232,qs),
(178,1173,o),
(179,1064,qs),
(180,965,l),
(180,926,o),
(216,926,qs),
(222,926,ls),
(289,926,o),
(460,1154,o),
(460,1271,qs),
(460,1303,ls),
(460,1378,o)
);
}
);
width = 600;
}
);
note = uni2019;
unicode = 8217;
},
{
glyphname = quotesingle;
lastChange = "2024-03-17 02:09:08 +0000";
layers = (
{
layerId = m01;
shapes = (
{
closed = 1;
nodes = (
(338,1362,l),
(338,1369,ls),
(338,1420,o),
(297,1461,o),
(255,1461,qs),
(234,1461,ls),
(124,1461,o),
(124,1375,qs),
(125,1356,l),
(147,1215,l),
(147,1203,o),
(154,1154,q),
(158,1099,l),
(158,1086,l),
(159,1072,ls),
(159,1062,o),
(159,1052,qs),
(159,925,o),
(196,925,qs),
(223,925,ls),
(262,925,o),
(278,978,qs),
(329,1144,o),
(329,1248,q),
(337,1342,l),
(337,1355,l)
);
}
);
width = 451;
},
{
layerId = "9BE5C8F1-5E5D-4A4F-AAC2-5BCBDB5A5B12";
shapes = (
{
closed = 1;
nodes = (
(414,1332,l),
(414,1339,ls),
(414,1406,o),
(372,1461,o),
(330,1461,qs),
(309,1461,ls),
(197,1461,o),
(197,1375,qs),
(197,1337,l),
(197,1297,l),
(197,1210,o),
(197,1150,q),
(197,1099,l),
(197,1086,l),
(197,1072,ls),
(197,1062,o),
(197,1052,qs),
(197,925,o),
(271,925,qs),
(298,925,ls),
(409,925,o),
(410,978,qs),
(414,1136,o),
(414,1212,q),
(414,1276,l),
(414,1325,l)
);
}
);
width = 600;
}
);
note = uni0027;
unicode = 39;
},
{
glyphname = at;
lastChange = "2024-03-17 01:47:34 +0000";
layers = (
{
layerId = m01;
shapes = (
{
closed = 1;
nodes = (
(1033,650,ls),
(1033,642,o),
(1030,618,q),
(1030,488,o),
(946,367,qs),
(908,313,o),
(794,247,o),
(766,247,qs),
(744,247,ls),
(698,247,o),
(647,357,o),
(647,460,q),
(646,468,l),
(646,606,o),
(718,718,qs),
(758,781,o),
(881,847,o),
(914,847,q),
(922,848,l),
(929,848,ls),
(980,848,o),
(1036,786,o),
(1036,729,qs),
(1036,698,l)
);
},
{
closed = 1;
nodes = (
(1203,-60,qs),
(1153,-76,l),
(1101,-90,ls),
(1016,-109,o),
(930,-109,qs),
(628,-109,o),
(267,234,o),
(267,546,qs),
(267,685,o),
(381,932,o),
(553,1100,o),
(782,1193,o),
(906,1193,qs),
(1158,1193,o),
(1316,1043,qs),
(1465,901,o),
(1465,658,qs),
(1465,518,o),
(1404,411,qs),
(1375,360,o),
(1296,300,o),
(1217,300,o),
(1160,381,o),
(1160,476,q),
(1169,646,ls),
(1172,702,o),
(1172,854,o),
(1129,919,o),
(831,919,o),
(720,884,o),
(584,754,o),
(500,537,o),
(500,297,o),
(630,171,o),
(764,171,o),
(943,232,o),
(967,232,q),
(1001,221,l),
(1076,186,ls),
(1129,163,o),
(1252,163,o),
(1318,192,qs),
(1480,264,o),
(1564,450,qs),
(1609,548,o),
(1609,655,qs),
(1608,897,o),
(1495,1053,qs),
(1304,1317,o),
(914,1317,qs),
(740,1317,o),
(570,1243,qs),
(279,1117,o),
(160,826,qs),
(100,680,o),
(100,533,qs),
(100,472,ls),
(100,333,o),
(217,72,o),
(400,-114,o),
(682,-224,o),
(1005,-224,o),
(1319,-118,o),
(1319,-73,qs),
(1319,-40,o),
(1290,-40,qs),
(1268,-40,o)
);
}
);
width = 1761;
},
{
layerId = "9BE5C8F1-5E5D-4A4F-AAC2-5BCBDB5A5B12";
shapes = (
{
closed = 1;
nodes = (
(841,547,ls),
(841,547,o),
(841,547,q),
(841,548,o),
(841,548,qs),
(841,548,o),
(841,548,o),
(841,548,qs),
(841,548,ls),
(841,548,o),
(841,548,o),
(841,548,q),
(841,548,l),
(841,547,o),
(841,547,qs),
(841,547,o),
(841,547,o),
(841,547,q),
(841,547,l),
(841,547,ls),
(841,547,o),
(841,547,o),
(841,547,qs),
(841,547,l)
);
},
{
closed = 1;
nodes = (
(1172,-4,qs),
(1126,-18,l),
(1079,-31,ls),
(978,-59,o),
(924,-57,qs),
(651,-47,o),
(323,263,o),
(323,545,qs),
(323,671,o),
(426,895,o),
(582,1048,o),
(790,1132,o),
(902,1132,qs),
(1131,1132,o),
(1274,996,qs),
(1409,867,o),
(1409,647,qs),
(1409,520,o),
(1354,423,qs),
(1327,377,o),
(1256,322,o),
(1217,300,o),
(1160,381,o),
(1160,476,q),
(1169,646,ls),
(1172,702,o),
(1172,856,o),
(1129,921,o),
(831,921,o),
(720,886,o),
(584,754,o),
(500,537,o),
(500,297,o),
(630,171,o),
(764,171,o),
(943,232,o),
(967,232,q),
(1001,221,l),
(1076,186,ls),
(1128,162,o),
(1252,163,o),
(1318,192,qs),
(1480,264,o),
(1564,450,qs),
(1609,548,o),
(1609,655,qs),
(1608,897,o),
(1495,1053,qs),
(1304,1317,o),
(914,1317,qs),
(740,1317,o),
(570,1243,qs),
(279,1117,o),
(160,826,qs),
(100,680,o),
(100,533,qs),
(100,472,ls),
(100,333,o),
(217,72,o),
(400,-114,o),
(682,-224,o),
(1005,-224,o),
(1307,-117,o),
(1319,-73,q),
(1338,0,o),
(1280,12,qs),
(1245,18,o)
);
}
);
width = 1761;
}
);
note = uni0040;
unicode = 64;
},
{
glyphname = ampersand;
lastChange = "2024-03-08 17:27:21 +0000";
layers = (
{
layerId = m01;
shapes = (
{
closed = 1;
nodes = (
(491,1154,l),
(491,1204,o),
(573,1297,o),
(620,1297,qs),
(625,1297,ls),
(682,1297,o),
(759,1187,o),
(759,1121,qs),
(759,1075,ls),
(759,1014,o),
(730,962,qs),
(667,849,o),
(621,849,qs),
(616,849,ls),
(598,849,o),
(566,895,qs),
(487,1008,o),
(487,1100,qs),
(487,1126,l)
);
},
{
closed = 1;
nodes = (
(415,653,o),
(457,653,qs),
(464,653,ls),
(475,653,o),
(824,241,o),
(824,232,qs),
(824,226,ls),
(824,188,o),
(673,112,o),
(604,112,qs),
(562,112,ls),
(455,112,o),
(305,275,o),
(305,373,qs),
(305,407,ls),
(305,494,o)
);
},
{
closed = 1;
nodes = (
(1032,703,q),
(1039,649,l),
(1039,598,o),
(989,512,o),
(881,512,o),
(773,670,o),
(773,828,o),
(896,1033,o),
(896,1226,o),
(739,1375,o),
(470,1375,o),
(278,1203,o),
(278,1061,qs),
(278,1000,o),
(358,804,o),
(358,795,qs),
(358,744,o),
(265,664,qs),
(101,523,o),
(101,368,qs),
(101,336,ls),
(101,276,o),
(161,139,o),
(223,85,qs),
(335,-11,o),
(522,-11,qs),
(612,-10,o),
(736,32,qs),
(862,74,o),
(925,74,o),
(1102,8,o),
(1160,8,qs),
(1275,8,o),
(1337,51,qs),
(1355,63,o),
(1355,69,qs),
(1355,78,ls),
(1355,92,o),
(1222,155,o),
(1137,254,o),
(1137,305,qs),
(1137,399,o),
(1222,604,o),
(1315,723,o),
(1315,736,qs),
(1315,775,o),
(1253,775,qs),
(1032,775,o)
);
}
);
width = 1516;
},
{
layerId = "9BE5C8F1-5E5D-4A4F-AAC2-5BCBDB5A5B12";
shapes = (
{
closed = 1;
nodes = (
(623,1073,l),
(623,1073,o),
(623,1073,o),
(623,1073,qs),
(623,1073,ls),
(623,1073,o),
(623,1073,o),
(623,1073,qs),
(623,1073,ls),
(623,1073,o),
(623,1073,qs),
(623,1073,o),
(623,1073,qs),
(623,1073,ls),
(623,1073,o),
(623,1073,qs),
(623,1073,o),
(623,1073,qs),
(623,1073,l)
);
},
{
closed = 1;
nodes = (
(564,383,o),
(564,383,qs),
(564,383,ls),
(564,383,o),
(565,382,o),
(565,382,qs),
(565,382,ls),
(565,382,o),
(565,382,o),
(565,382,qs),
(564,382,ls),
(564,382,o),
(564,382,o),
(564,382,qs),
(564,383,ls),
(564,383,o)
);
},
{
closed = 1;
nodes = (
(1263,922,qs),
(1263,994,ls),
(1263,1062,o),
(1263,1139,o),
(1263,1296,o),
(1221,1366,o),
(1053,1371,o),
(964,1371,o),
(896,1371,o),
(739,1371,o),
(470,1375,o),
(278,1203,o),
(278,1061,qs),
(278,1000,o),
(358,804,o),
(358,795,qs),
(358,744,o),
(265,664,qs),
(101,523,o),
(101,368,qs),
(101,336,ls),
(101,276,o),
(161,139,o),
(223,85,qs),
(335,-11,o),
(522,-11,qs),
(612,-10,o),
(736,32,qs),
(862,74,o),
(925,74,o),
(1042,30,o),
(1118,15,qs),
(1285,2,o),
(1263,117,q),
(1263,124,o),
(1263,154,qs),
(1263,163,ls),
(1263,177,o),
(1263,220,o),
(1263,249,o),
(1263,300,qs),
(1263,394,o),
(1263,514,o),
(1263,592,o),
(1263,603,qs),
(1263,684,o),
(1263,777,qs),
(1263,892,o)
);
}
);
width = 1516;
}
);
note = uni0026;
unicode = 38;
},
{
glyphname = plus;
lastChange = "2024-03-08 19:01:22 +0000";
layers = (
{
layerId = m01;
shapes = (
{
closed = 1;
nodes = (
(477,1005,o),
(477,685,o),
(467,666,o),
(155,666,o),
(132,660,qs),
(96,651,o),
(96,600,qs),
(96,582,ls),
(96,542,o),
(122,534,qs),
(134,530,o),
(461,530,o),
(476,517,o),
(476,196,o),
(480,179,qs),
(488,145,o),
(539,145,qs),
(558,145,ls),
(600,145,o),
(616,188,o),
(616,519,o),
(633,530,o),
(949,530,o),
(997,552,o),
(997,610,qs),
(997,627,ls),
(997,667,o),
(630,667,o),
(627,669,qs),
(616,675,o),
(616,999,o),
(613,1012,qs),
(605,1048,o),
(573,1048,qs),
(538,1048,ls),
(494,1048,o)
);
}
);
width = 1092;
},
{
layerId = "9BE5C8F1-5E5D-4A4F-AAC2-5BCBDB5A5B12";
shapes = (
{
closed = 1;
nodes = (
(426,1046,o),
(98,1046,o),
(100,852,o),
(100,838,o),
(100,764,qs),
(100,715,o),
(100,600,qs),
(100,582,ls),
(100,479,o),
(100,430,qs),
(100,352,o),
(100,145,o),
(314,142,o),
(411,142,o),
(428,142,qs),
(484,142,o),
(539,142,qs),
(558,142,ls),
(600,142,o),
(693,142,o),
(997,145,o),
(995,361,o),
(995,430,o),
(995,552,o),
(995,610,qs),
(995,627,ls),
(995,667,o),
(995,824,o),
(995,942,qs),
(995,1037,o),
(733,1046,o),
(674,1046,qs),
(649,1046,o),
(573,1046,qs),
(538,1046,ls),
(494,1046,o)
);
}
);
width = 1092;
}
);
note = uni002B;
unicode = 43;
},
{
glyphname = asciitilde;
lastChange = "2024-03-17 01:39:54 +0000";
layers = (
{
layerId = m01;
shapes = (
{
closed = 1;
nodes = (
(148,559,qs),
(152,559,o),
(299,671,o),
(417,671,o),
(689,541,o),
(762,541,q),
(773,540,l),
(784,540,ls),
(873,540,o),
(1034,682,o),
(1034,803,o),
(997,803,qs),
(995,803,o),
(844,696,o),
(743,696,o),
(444,826,o),
(380,826,qs),
(369,826,ls),
(274,826,o),
(110,681,o),
(110,620,qs),
(110,598,ls),
(110,559,o)
);
}
